{
.appVersion = "3223";
copyright = "Copyright (c) 2011, Cyreal (www.cyreal.org) with Reserved Font Name \"Vidaloka\".";
customParameters = (
{
name = glyphOrder;
value = (
.null,
nonmarkingreturn,
space,
f,
g,
h,
i,
j,
k,
l,
m,
n,
o,
p,
q,
r,
s,
t,
u,
x,
y,
z,
O,
H,
I,
J,
K,
C,
comma,
hyphen,
period,
exclam,
quotedbl,
a,
d,
A,
B,
D,
E,
F,
G,
L,
M,
N,
P,
Q,
R,
S,
T,
U,
V,
W,
X,
Y,
Z,
one,
zero,
two,
three,
four,
five,
seven,
six,
eight,
nine,
quotesingle,
parenleft,
parenright,
slash,
plus,
minus,
asterisk,
numbersign,
dollar,
percent,
colon,
semicolon,
question,
less,
at,
greater,
equal,
ampersand,
asciicircum,
bracketleft,
bracketright,
underscore,
backslash,
grave,
w,
ring,
Eth,
eth,
acute,
Thorn,
thorn,
multiply,
caron,
bar,
braceleft,
braceright,
asciitilde,
dieresis,
cedilla,
cedilla.case,
tilde,
circumflex,
dagger,
daggerdbl,
germandbls,
AE,
Oslash,
divide,
guilsinglleft,
guilsinglright,
oslash,
ae,
florin,
OE,
quotesinglbase,
quotedblbase,
dotlessi,
uni00AD,
fi,
fl,
grave.case,
acute.case,
circumflex.case,
dieresis.case,
tilde.case,
ring.case,
caron.case,
b,
c,
v,
brokenbar,
plusminus,
macron,
endash,
emdash,
logicalnot,
section,
copyright,
registered,
guillemotleft,
guillemotright,
questiondown,
exclamdown,
cent,
Euro,
yen,
sterling,
paragraph,
currency,
onesuperior,
twosuperior,
threesuperior,
foursuperior,
fraction,
onequarter,
onehalf,
threequarters,
quoteleft,
quoteright,
degree,
ordfeminine,
ordmasculine,
mu,
quotedblleft,
quotedblright,
periodcentered,
bullet,
foundryicon,
noBreak,
nbspace,
e,
oe,
Agrave,
Aacute,
Acircumflex,
Atilde,
Adieresis,
Aring,
Ccedilla,
Egrave,
Eacute,
Ecircumflex,
Edieresis,
Igrave,
Iacute,
Icircumflex,
Idieresis,
Ntilde,
Ograve,
Oacute,
Ocircumflex,
Otilde,
Odieresis,
Ugrave,
Uacute,
Ucircumflex,
Udieresis,
Yacute,
agrave,
aacute,
acircumflex,
atilde,
adieresis,
aring,
ccedilla,
egrave,
eacute,
ecircumflex,
edieresis,
igrave,
iacute,
icircumflex,
idieresis,
ntilde,
ograve,
oacute,
ocircumflex,
otilde,
odieresis,
ugrave,

glyphs = (
{
glyphname = f;
lastChange = "2016-04-07 19:09:02 +0000";
layers = (
{
layerId = UUID0;
name = Regular;
paths = (
{
closed = 1;
nodes = (
"209 25 LINE",
"209 464 LINE",
"327 469 LINE",
"327 490 LINE",
"209 490 LINE",
"209 604 LINE SMOOTH",
"209 638 OFFCURVE",
"211 685 OFFCURVE",
"250 685 CURVE SMOOTH",
"262 685 OFFCURVE",
"272 679 OFFCURVE",
"274 673 CURVE",
"274 671 LINE",
"260 662 OFFCURVE",
"253 639 OFFCURVE",
"253 623 CURVE SMOOTH",
"253 596 OFFCURVE",
"272 567 OFFCURVE",
"309 567 CURVE SMOOTH",
"344 567 OFFCURVE",
"365 594 OFFCURVE",
"365 625 CURVE SMOOTH",
"365 671 OFFCURVE",
"327 707 OFFCURVE",
"255 707 CURVE SMOOTH",
"211 707 OFFCURVE",
"92 699 OFFCURVE",
"89 490 CURVE",
"18 490 LINE",
"18 469 LINE",
"89 464 LINE",
"89 25 LINE",
"40 20 LINE",
"40 0 LINE",
"279 0 LINE",
"279 20 LINE"
);
}
);
width = 332;
}
);
leftKerningGroup = f;
unicode = 0066;
},
{
glyphname = g;
lastChange = "2016-04-07 19:25:15 +0000";
layers = (
{
anchors = (
{
name = bottom;
position = "{274, 0}";
},
{
name = top;
position = "{251, 490}";
}
);
layerId = UUID0;
name = Regular;
paths = (
{
closed = 1;
nodes = (
"145 505 OFFCURVE",
"56 432 OFFCURVE",
"56 334 CURVE SMOOTH",
"56 273 OFFCURVE",
"86 220 OFFCURVE",
"146 191 CURVE",
"146 190 LINE",
"108 179 OFFCURVE",
"50 139 OFFCURVE",
"50 76 CURVE SMOOTH",
"50 22 OFFCURVE",
"88 -6 OFFCURVE",
"141 -22 CURVE",
"141 -23 LINE",
"111 -23 OFFCURVE",
"32 -48 OFFCURVE",
"32 -125 CURVE SMOOTH",
"32 -224 OFFCURVE",
"174 -242 OFFCURVE",
"264 -242 CURVE SMOOTH",
"438 -242 OFFCURVE",
"500 -144 OFFCURVE",
"500 -69 CURVE SMOOTH",
"500 45 OFFCURVE",
"445 79 OFFCURVE",
"271 79 CURVE SMOOTH",
"180 79 OFFCURVE",
"109 90 OFFCURVE",
"109 124 CURVE SMOOTH",
"109 146 OFFCURVE",
"133 168 OFFCURVE",
"171 182 CURVE",
"196 174 OFFCURVE",
"225 169 OFFCURVE",
"257 169 CURVE SMOOTH",
"371 169 OFFCURVE",
"456 237 OFFCURVE",
"456 335 CURVE SMOOTH",
"456 375 OFFCURVE",
"440 415 OFFCURVE",
"411 446 CURVE",
"422 475 OFFCURVE",
"440 498 OFFCURVE",
"458 501 CURVE",
"458 499 LINE",
"452 490 OFFCURVE",
"452 481 OFFCURVE",
"452 475 CURVE SMOOTH",
"452 445 OFFCURVE",
"473 428 OFFCURVE",
"502 428 CURVE SMOOTH",
"529 428 OFFCURVE",
"548 451 OFFCURVE",
"548 480 CURVE SMOOTH",
"548 512 OFFCURVE",
"527 537 OFFCURVE",
"488 537 CURVE SMOOTH",
"440 537 OFFCURVE",
"410 495 OFFCURVE",
"393 462 CURVE",
"360 488 OFFCURVE",
"315 505 OFFCURVE",
"258 505 CURVE SMOOTH"
);
},
{
closed = 1;
nodes = (
"445 -172 OFFCURVE",
"384 -216 OFFCURVE",
"282 -216 CURVE SMOOTH",
"206 -216 OFFCURVE",
"119 -194 OFFCURVE",
"119 -110 CURVE SMOOTH",
"119 -53 OFFCURVE",
"160 -28 OFFCURVE",
"161 -27 CURVE",
"282 -46 OFFCURVE",
"445 -5 OFFCURVE",
"445 -111 CURVE SMOOTH"
);
},
{
closed = 1;
nodes = (
"203 191 OFFCURVE",
"176 244 OFFCURVE",
"176 337 CURVE SMOOTH",
"176 429 OFFCURVE",
"205 483 OFFCURVE",
"258 483 CURVE SMOOTH",
"314 483 OFFCURVE",
"335 436 OFFCURVE",
"335 334 CURVE SMOOTH",
"335 243 OFFCURVE",
"311 191 OFFCURVE",
"256 191 CURVE SMOOTH"
);
}
);
width = 547;
}
);
unicode = 0067;
},
{
glyphname = h;
lastChange = "2016-04-07 19:09:02 +0000";
layers = (
{
layerId = UUID0;
name = Regular;
paths = (
{
closed = 1;
nodes = (
"198 693 LINE",
"191 707 LINE",
"122 689 LINE",
"20 678 LINE",
"20 658 LINE",
"80 658 LINE",
"80 25 LINE",
"30 20 LINE",
"30 0 LINE",
"250 0 LINE",
"250 20 LINE",
"200 25 LINE",
"200 316 LINE SMOOTH",
"200 403 OFFCURVE",
"242 461 OFFCURVE",
"300 461 CURVE SMOOTH",
"317 461 OFFCURVE",
"367 458 OFFCURVE",
"367 357 CURVE SMOOTH",
"367 25 LINE",
"317 20 LINE",
"317 0 LINE",
"537 0 LINE",
"537 20 LINE",
"487 25 LINE",
"487 343 LINE SMOOTH",
"487 486 OFFCURVE",
"400 505 OFFCURVE",
"350 505 CURVE SMOOTH",
"273 505 OFFCURVE",
"227 460 OFFCURVE",
"200 420 CURVE",
"198 420 LINE"
);
}
);
width = 561;
}
);
leftKerningGroup = h;
rightKerningGroup = n;
unicode = 0068;
},
{
glyphname = i;
lastChange = "2016-04-07 19:09:02 +0000";
layers = (
{
layerId = UUID0;
name = Regular;
paths = (
{
closed = 1;
nodes = (
"208 486 LINE",
"199 500 LINE",
"130 482 LINE",
"28 471 LINE",
"28 451 LINE",
"88 451 LINE",
"88 25 LINE",
"38 20 LINE",
"38 0 LINE",
"258 0 LINE",
"258 20 LINE",
"208 25 LINE"
);
},
{
closed = 1;
nodes = (
"81 637 OFFCURVE",
"109 608 OFFCURVE",
"146 608 CURVE SMOOTH",
"182 608 OFFCURVE",
"210 637 OFFCURVE",
"210 673 CURVE SMOOTH",
"210 709 OFFCURVE",
"182 738 OFFCURVE",
"146 738 CURVE SMOOTH",
"109 738 OFFCURVE",
"81 709 OFFCURVE",
"81 673 CURVE SMOOTH"
);
}
);
width = 286;
}
);
leftKerningGroup = i;
rightKerningGroup = i;
unicode = 0069;
},
{
glyphname = j;
lastChange = "2016-04-07 19:09:02 +0000";
layers = (
{
layerId = UUID0;
name = Regular;
paths = (
{
closed = 1;
nodes = (
"83 -120 LINE SMOOTH",
"83 -213 OFFCURVE",
"54 -220 OFFCURVE",
"36 -220 CURVE SMOOTH",
"23 -220 OFFCURVE",
"15 -213 OFFCURVE",
"12 -208 CURVE",
"12 -207 LINE",
"29 -196 OFFCURVE",
"37 -173 OFFCURVE",
"37 -160 CURVE SMOOTH",
"37 -130 OFFCURVE",
"19 -102 OFFCURVE",
"-20 -102 CURVE SMOOTH",
"-54 -102 OFFCURVE",
"-78 -130 OFFCURVE",
"-78 -163 CURVE SMOOTH",
"-78 -201 OFFCURVE",
"-55 -242 OFFCURVE",
"23 -242 CURVE SMOOTH",
"64 -242 OFFCURVE",
"203 -237 OFFCURVE",
"203 -22 CURVE SMOOTH",
"203 486 LINE",
"194 500 LINE",
"125 482 LINE",
"22 471 LINE",
"22 451 LINE",
"83 451 LINE"
);
},
{
closed = 1;
nodes = (
"76 637 OFFCURVE",
"104 608 OFFCURVE",
"141 608 CURVE SMOOTH",
"177 608 OFFCURVE",
"206 637 OFFCURVE",
"206 673 CURVE SMOOTH",
"206 709 OFFCURVE",
"177 738 OFFCURVE",
"141 738 CURVE SMOOTH",
"104 738 OFFCURVE",
"76 709 OFFCURVE",
"76 673 CURVE SMOOTH"
);
}
);
width = 274;
}
);
unicode = 006A;
},
{
glyphname = k;
lastChange = "2016-04-07 19:09:02 +0000";
layers = (
{
layerId = UUID0;
name = Regular;
paths = (
{
closed = 1;
nodes = (
"426 465 LINE",
"481 470 LINE",
"481 490 LINE",
"335 490 LINE",
"335 470 LINE",
"390 465 LINE",
"200 267 LINE",
"200 693 LINE",
"191 707 LINE",
"122 689 LINE",
"20 678 LINE",
"21 658 LINE",
"80 659 LINE",
"80 25 LINE",
"30 20 LINE",
"30 0 LINE",
"250 0 LINE",
"250 20 LINE",
"200 25 LINE",
"200 255 LINE",
"349 25 LINE",
"309 20 LINE",
"309 0 LINE",
"533 0 LINE",
"533 20 LINE",
"482 25 LINE",
"286 316 LINE"
);
}
);
width = 527;
}
);
leftKerningGroup = h;
unicode = 006B;
},
{
glyphname = l;
lastChange = "2016-04-07 19:09:02 +0000";
layers = (
{
layerId = UUID0;
name = Regular;
paths = (
{
closed = 1;
nodes = (
"200 693 LINE",
"191 707 LINE",
"122 689 LINE",
"20 678 LINE",
"20 658 LINE",
"80 658 LINE",
"80 25 LINE",
"30 20 LINE",
"30 0 LINE",
"250 0 LINE",
"250 20 LINE",
"200 25 LINE"
);
}
);
width = 279;
}
);
rightKerningGroup = l;
unicode = 006C;
},
{
glyphname = m;
lastChange = "2016-04-07 19:09:02 +0000";
layers = (
{
layerId = UUID0;
name = Regular;
paths = (
{
closed = 1;
nodes = (
"206 486 LINE",
"199 500 LINE",
"130 482 LINE",
"28 471 LINE",
"28 451 LINE",
"88 451 LINE",
"88 25 LINE",
"38 20 LINE",
"38 0 LINE",
"258 0 LINE",
"258 20 LINE",
"208 25 LINE",
"208 316 LINE SMOOTH",
"208 403 OFFCURVE",
"261 461 OFFCURVE",
"298 461 CURVE SMOOTH",
"315 461 OFFCURVE",
"359 458 OFFCURVE",
"359 357 CURVE SMOOTH",
"359 25 LINE",
"310 20 LINE",
"310 0 LINE",
"530 0 LINE",
"530 20 LINE",
"479 25 LINE",
"479 326 LINE SMOOTH",
"479 418 OFFCURVE",
"538 461 OFFCURVE",
"574 461 CURVE SMOOTH",
"591 461 OFFCURVE",
"636 458 OFFCURVE",
"636 357 CURVE SMOOTH",
"636 25 LINE",
"586 20 LINE",
"586 0 LINE",
"807 0 LINE",
"807 20 LINE",
"756 25 LINE",
"756 340 LINE SMOOTH",
"756 483 OFFCURVE",
"673 505 OFFCURVE",
"624 505 CURVE SMOOTH",
"561 505 OFFCURVE",
"512 470 OFFCURVE",
"471 414 CURVE",
"470 414 LINE",
"447 491 OFFCURVE",
"387 505 OFFCURVE",
"348 505 CURVE SMOOTH",
"281 505 OFFCURVE",
"235 460 OFFCURVE",
"208 420 CURVE",
"206 420 LINE"
);
}
);
width = 830;
}
);
leftKerningGroup = n;
rightKerningGroup = n;
unicode = 006D;
},
{
glyphname = n;
lastChange = "2016-04-07 19:28:36 +0000";
layers = (
{
anchors = (
{
name = bottom;
position = "{284, 0}";
},
{
name = top;
position = "{324, 490}";
}
);
layerId = UUID0;
name = Regular;
paths = (
{
closed = 1;
nodes = (
"207 486 LINE",
"198 500 LINE",
"129 482 LINE",
"27 471 LINE",
"28 451 LINE",
"87 452 LINE",
"87 25 LINE",
"37 20 LINE",
"37 0 LINE",
"257 0 LINE",
"257 20 LINE",
"207 25 LINE",
"207 316 LINE SMOOTH",
"207 403 OFFCURVE",
"249 461 OFFCURVE",
"307 461 CURVE SMOOTH",
"324 461 OFFCURVE",
"374 458 OFFCURVE",
"374 357 CURVE SMOOTH",
"374 25 LINE",
"324 20 LINE",
"324 0 LINE",
"544 0 LINE",
"544 20 LINE",
"494 25 LINE",
"494 343 LINE SMOOTH",
"494 486 OFFCURVE",
"407 505 OFFCURVE",
"357 505 CURVE SMOOTH",
"280 505 OFFCURVE",
"234 460 OFFCURVE",
"207 420 CURVE",
"205 420 LINE"
);
}
);
width = 568;
}
);
leftKerningGroup = n;
rightKerningGroup = n;
unicode = 006E;
},
{
glyphname = o;
lastChange = "2016-04-07 19:09:02 +0000";
layers = (
{
layerId = UUID0;
name = Regular;
paths = (
{
closed = 1;
nodes = (
"132 505 OFFCURVE",
"39 391 OFFCURVE",
"39 242 CURVE SMOOTH",
"39 103 OFFCURVE",
"106 -15 OFFCURVE",
"263 -15 CURVE SMOOTH",
"396 -15 OFFCURVE",
"484 101 OFFCURVE",
"484 245 CURVE SMOOTH",
"484 375 OFFCURVE",
"413 505 OFFCURVE",
"264 505 CURVE SMOOTH"
);
},
{
closed = 1;
nodes = (
"190 7 OFFCURVE",
"164 108 OFFCURVE",
"164 248 CURVE SMOOTH",
"164 383 OFFCURVE",
"190 483 OFFCURVE",
"261 483 CURVE SMOOTH",
"337 483 OFFCURVE",
"359 393 OFFCURVE",
"359 242 CURVE SMOOTH",
"359 107 OFFCURVE",
"334 7 OFFCURVE",
"261 7 CURVE SMOOTH"
);
}
);
width = 523;
}
);
leftKerningGroup = o;
rightKerningGroup = o;
unicode = 006F;
},
{
glyphname = p;
lastChange = "2016-04-07 19:09:02 +0000";
layers = (
{
layerId = UUID0;
name = Regular;
paths = (
{
closed = 1;
nodes = (
"200 422 LINE",
"200 486 LINE",
"193 500 LINE",
"125 482 LINE",
"22 471 LINE",
"22 451 LINE",
"83 451 LINE",
"83 -207 LINE",
"32 -212 LINE",
"32 -232 LINE",
"252 -232 LINE",
"252 -212 LINE",
"202 -207 LINE",
"202 10 LINE",
"228 -10 OFFCURVE",
"263 -15 OFFCURVE",
"282 -15 CURVE SMOOTH",
"433 -15 OFFCURVE",
"503 106 OFFCURVE",
"503 250 CURVE SMOOTH",
"503 472 OFFCURVE",
"380 505 OFFCURVE",
"334 505 CURVE SMOOTH",
"281 505 OFFCURVE",
"241 489 OFFCURVE",
"202 422 CURVE"
);
},
{
closed = 1;
nodes = (
"202 336 LINE SMOOTH",
"202 400 OFFCURVE",
"240 466 OFFCURVE",
"292 466 CURVE SMOOTH",
"344 466 OFFCURVE",
"378 421 OFFCURVE",
"378 257 CURVE SMOOTH",
"378 165 OFFCURVE",
"375 11 OFFCURVE",
"262 11 CURVE SMOOTH",
"243 11 OFFCURVE",
"220 20 OFFCURVE",
"202 36 CURVE"
);
}
);
width = 544;
}
);
rightKerningGroup = b;
unicode = 0070;
},
{
glyphname = q;
lastChange = "2016-04-07 19:09:02 +0000";
layers = (
{
layerId = UUID0;
name = Regular;
paths = (
{
closed = 1;
nodes = (
"465 -207 LINE",
"465 490 LINE",
"445 490 LINE",
"345 452 LINE",
"316 493 OFFCURVE",
"271 505 OFFCURVE",
"240 505 CURVE SMOOTH",
"106 505 OFFCURVE",
"41 377 OFFCURVE",
"41 235 CURVE SMOOTH",
"41 12 OFFCURVE",
"164 -15 OFFCURVE",
"210 -15 CURVE SMOOTH",
"263 -15 OFFCURVE",
"304 3 OFFCURVE",
"343 69 CURVE",
"345 69 LINE",
"345 -207 LINE",
"295 -212 LINE",
"295 -232 LINE",
"515 -232 LINE",
"515 -212 LINE"
);
},
{
closed = 1;
nodes = (
"213 25 OFFCURVE",
"166 61 OFFCURVE",
"166 230 CURVE SMOOTH",
"166 322 OFFCURVE",
"169 476 OFFCURVE",
"266 476 CURVE SMOOTH",
"308 476 OFFCURVE",
"341 433 OFFCURVE",
"345 386 CURVE",
"345 155 LINE SMOOTH",
"345 91 OFFCURVE",
"301 25 OFFCURVE",
"252 25 CURVE SMOOTH"
);
}
);
width = 537;
}
);
leftKerningGroup = d;
unicode = 0071;
},
{
glyphname = r;
lastChange = "2016-04-07 19:09:02 +0000";
layers = (
{
layerId = UUID0;
name = Regular;
paths = (
{
closed = 1;
nodes = (
"303 464 LINE",
"294 454 OFFCURVE",
"292 435 OFFCURVE",
"292 426 CURVE SMOOTH",
"292 393 OFFCURVE",
"315 365 OFFCURVE",
"355 365 CURVE SMOOTH",
"393 365 OFFCURVE",
"417 395 OFFCURVE",
"417 431 CURVE SMOOTH",
"417 475 OFFCURVE",
"388 505 OFFCURVE",
"337 505 CURVE SMOOTH",
"280 505 OFFCURVE",
"229 447 OFFCURVE",
"208 402 CURVE",
"206 402 LINE",
"206 486 LINE",
"199 500 LINE",
"130 482 LINE",
"28 471 LINE",
"28 451 LINE",
"88 451 LINE",
"88 25 LINE",
"38 20 LINE",
"38 0 LINE",
"258 0 LINE",
"258 20 LINE",
"208 25 LINE",
"208 268 LINE SMOOTH",
"208 398 OFFCURVE",
"263 458 OFFCURVE",
"303 467 CURVE"
);
}
);
width = 424;
}
);
leftKerningGroup = n;
unicode = 0072;
},
{
glyphname = s;
lastChange = "2016-04-07 19:28:29 +0000";
layers = (
{
anchors = (
{
name = bottom;
position = "{223, 0}";
},
{
name = top;
position = "{223, 490}";
}
);
layerId = UUID0;
name = Regular;
paths = (
{
closed = 1;
nodes = (
"137 9 OFFCURVE",
"100 36 OFFCURVE",
"89 62 CURVE",
"89 63 LINE",
"91 62 OFFCURVE",
"95 62 OFFCURVE",
"97 62 CURVE SMOOTH",
"124 62 OFFCURVE",
"152 81 OFFCURVE",
"152 118 CURVE",
"151 148 OFFCURVE",
"131 174 OFFCURVE",
"96 174 CURVE SMOOTH",
"56 174 OFFCURVE",
"33 140 OFFCURVE",
"33 104 CURVE SMOOTH",
"33 18 OFFCURVE",
"129 -14 OFFCURVE",
"197 -14 CURVE SMOOTH",
"339 -14 OFFCURVE",
"402 46 OFFCURVE",
"402 130 CURVE SMOOTH",
"402 230 OFFCURVE",
"299 276 OFFCURVE",
"223 315 CURVE",
"145 361 OFFCURVE",
"125 375 OFFCURVE",
"125 412 CURVE SMOOTH",
"125 444 OFFCURVE",
"151 484 OFFCURVE",
"220 484 CURVE SMOOTH",
"268 484 OFFCURVE",
"305 464 OFFCURVE",
"318 444 CURVE",
"318 443 LINE",
"313 443 LINE SMOOTH",
"290 443 OFFCURVE",
"267 427 OFFCURVE",
"267 389 CURVE SMOOTH",
"267 359 OFFCURVE",
"286 335 OFFCURVE",
"323 335 CURVE SMOOTH",
"359 335 OFFCURVE",
"380 365 OFFCURVE",
"380 394 CURVE SMOOTH",
"380 467 OFFCURVE",
"296 506 OFFCURVE",
"220 506 CURVE SMOOTH",
"120 506 OFFCURVE",
"49 449 OFFCURVE",
"49 361 CURVE SMOOTH",
"49 261 OFFCURVE",
"141 222 OFFCURVE",
"205 184 CURVE",
"279 144 OFFCURVE",
"304 124 OFFCURVE",
"304 81 CURVE SMOOTH",
"304 40 OFFCURVE",
"269 9 OFFCURVE",
"195 9 CURVE SMOOTH"
);
}
);
width = 445;
}
);
leftKerningGroup = s;
rightKerningGroup = s;
unicode = 0073;
},
{
glyphname = t;
lastChange = "2016-04-07 19:09:02 +0000";
layers = (
{
layerId = UUID0;
name = Regular;
paths = (
{
closed = 1;
nodes = (
"85 598 LINE",
"85 490 LINE",
"2 490 LINE",
"2 469 LINE",
"85 465 LINE",
"85 149 LINE SMOOTH",
"85 6 OFFCURVE",
"156 -15 OFFCURVE",
"224 -15 CURVE SMOOTH",
"313 -15 OFFCURVE",
"356 64 OFFCURVE",
"375 95 CURVE",
"354 108 LINE",
"335 76 OFFCURVE",
"308 33 OFFCURVE",
"265 33 CURVE SMOOTH",
"252 33 OFFCURVE",
"206 35 OFFCURVE",
"206 121 CURVE SMOOTH",
"206 465 LINE",
"313 469 LINE",
"313 490 LINE",
"206 490 LINE",
"206 606 LINE",
"196 621 LINE",
"127 603 LINE"
);
}
);
width = 368;
}
);
unicode = 0074;
},
{
glyphname = u;
lastChange = "2016-04-07 19:09:02 +0000";
layers = (
{
layerId = UUID0;
name = Regular;
paths = (
{
closed = 1;
nodes = (
"376 0 LINE",
"529 0 LINE",
"529 20 LINE",
"479 25 LINE",
"479 486 LINE",
"470 500 LINE",
"401 482 LINE",
"299 471 LINE",
"299 451 LINE",
"359 451 LINE",
"359 180 LINE SMOOTH",
"359 93 OFFCURVE",
"312 31 OFFCURVE",
"268 31 CURVE SMOOTH",
"251 31 OFFCURVE",
"197 32 OFFCURVE",
"197 133 CURVE SMOOTH",
"197 486 LINE",
"188 500 LINE",
"119 482 LINE",
"17 471 LINE",
"17 451 LINE",
"77 451 LINE",
"77 147 LINE SMOOTH",
"77 4 OFFCURVE",
"170 -15 OFFCURVE",
"220 -15 CURVE SMOOTH",
"292 -15 OFFCURVE",
"332 35 OFFCURVE",
"359 75 CURVE",
"361 75 LINE"
);
}
);
width = 558;
}
);
leftKerningGroup = u;
rightKerningGroup = u;
unicode = 0075;
},
{
glyphname = x;
lastChange = "2016-04-07 19:09:02 +0000";
layers = (
{
layerId = UUID0;
name = Regular;
paths = (
{
closed = 1;
nodes = (
"458 25 LINE",
"297 281 LINE",
"415 465 LINE",
"466 470 LINE",
"466 490 LINE",
"329 490 LINE",
"329 470 LINE",
"383 465 LINE",
"282 305 LINE",
"182 465 LINE",
"234 470 LINE",
"234 490 LINE",
"1 490 LINE",
"1 470 LINE",
"49 465 LINE",
"206 215 LINE",
"82 25 LINE",
"30 20 LINE",
"30 0 LINE",
"167 0 LINE",
"167 20 LINE",
"113 25 LINE",
"222 189 LINE",
"325 25 LINE",
"271 20 LINE",
"271 0 LINE",
"506 0 LINE",
"506 20 LINE"
);
}
);
width = 505;
}
);
unicode = 0078;
},
{
glyphname = y;
lastChange = "2016-04-07 19:09:02 +0000";
layers = (
{
layerId = UUID0;
name = Regular;
paths = (
{
closed = 1;
nodes = (
"228 -91 LINE",
"213 -132 OFFCURVE",
"184 -208 OFFCURVE",
"135 -208 CURVE",
"135 -207 LINE",
"150 -196 OFFCURVE",
"157 -173 OFFCURVE",
"157 -163 CURVE SMOOTH",
"157 -131 OFFCURVE",
"140 -102 OFFCURVE",
"100 -102 CURVE SMOOTH",
"65 -102 OFFCURVE",
"39 -131 OFFCURVE",
"39 -169 CURVE SMOOTH",
"39 -210 OFFCURVE",
"71 -242 OFFCURVE",
"121 -242 CURVE SMOOTH",
"166 -242 OFFCURVE",
"214 -223 OFFCURVE",
"261 -84 CURVE",
"423 465 LINE",
"474 470 LINE",
"474 490 LINE",
"341 490 LINE",
"341 470 LINE",
"395 465 LINE",
"299 146 LINE",
"172 465 LINE",
"225 470 LINE",
"225 490 LINE",
"-6 490 LINE",
"-6 470 LINE",
"42 465 LINE",
"250 -17 LINE"
);
}
);
width = 471;
}
);
leftKerningGroup = y;
rightKerningGroup = y;
unicode = 0079;
},
{
glyphname = z;
lastChange = "2016-04-07 19:15:29 +0000";
layers = (
{
anchors = (
{
name = bottom;
position = "{235, 0}";
},
{
name = top;
position = "{250, 490}";
}
);
layerId = UUID0;
name = Regular;
paths = (
{
closed = 1;
nodes = (
"403 163 LINE",
"403 103 OFFCURVE",
"389 18 OFFCURVE",
"300 21 CURVE SMOOTH",
"161 25 LINE",
"436 476 LINE",
"426 490 LINE",
"52 490 LINE",
"52 327 LINE",
"72 327 LINE",
"72 387 OFFCURVE",
"89 472 OFFCURVE",
"174 469 CURVE SMOOTH",
"292 465 LINE",
"28 14 LINE",
"37 0 LINE",
"423 0 LINE",
"423 163 LINE"
);
}
);
width = 469;
}
);
leftKerningGroup = z;
rightKerningGroup = z;
unicode = 007A;
},
{
glyphname = O;
lastChange = "2016-04-07 19:09:02 +0000";
layers = (
{
layerId = UUID0;
name = Regular;
paths = (
{
closed = 1;
nodes = (
"178 590 OFFCURVE",
"261 687 OFFCURVE",
"354 687 CURVE SMOOTH",
"458 687 OFFCURVE",
"526 583 OFFCURVE",
"526 358 CURVE SMOOTH",
"526 151 OFFCURVE",
"462 10 OFFCURVE",
"351 10 CURVE SMOOTH",
"237 10 OFFCURVE",
"178 168 OFFCURVE",
"178 357 CURVE SMOOTH"
);
},
{
closed = 1;
nodes = (
"47 131 OFFCURVE",
"160 -17 OFFCURVE",
"354 -17 CURVE SMOOTH",
"561 -17 OFFCURVE",
"657 174 OFFCURVE",
"657 362 CURVE SMOOTH",
"657 572 OFFCURVE",
"535 714 OFFCURVE",
"351 714 CURVE SMOOTH",
"163 714 OFFCURVE",
"47 546 OFFCURVE",
"47 346 CURVE SMOOTH"
);
}
);
width = 704;
}
);
leftKerningGroup = O;
rightKerningGroup = O;
unicode = 004F;
},
{
glyphname = H;
lastChange = "2016-04-07 19:09:02 +0000";
layers = (
{
layerId = UUID0;
name = Regular;
paths = (
{
closed = 1;
nodes = (
"699 697 LINE",
"423 697 LINE",
"423 675 LINE",
"499 670 LINE",
"499 376 LINE",
"236 372 LINE",
"236 670 LINE",
"311 675 LINE",
"311 697 LINE",
"36 697 LINE",
"36 675 LINE",
"111 670 LINE",
"111 27 LINE",
"36 22 LINE",
"36 0 LINE",
"311 0 LINE",
"311 22 LINE",
"236 27 LINE",
"236 343 LINE",
"499 343 LINE",
"499 27 LINE",
"423 22 LINE",
"423 0 LINE",
"699 0 LINE",
"699 22 LINE",
"624 27 LINE",
"624 670 LINE",
"699 675 LINE"
);
}
);
width = 734;
}
);
leftKerningGroup = I;
rightKerningGroup = I;
unicode = 0048;
},
{
glyphname = I;
lastChange = "2016-04-07 19:09:02 +0000";
layers = (
{
layerId = UUID0;
name = Regular;
paths = (
{
closed = 1;
nodes = (
"311 697 LINE",
"36 697 LINE",
"36 675 LINE",
"111 670 LINE",
"111 27 LINE",
"36 22 LINE",
"36 0 LINE",
"311 0 LINE",
"311 22 LINE",
"236 27 LINE",
"236 670 LINE",
"311 675 LINE"
);
}
);
width = 347;
}
);
leftKerningGroup = I;
rightKerningGroup = I;
unicode = 0049;
},
{
glyphname = J;
lastChange = "2016-04-07 19:09:02 +0000";
layers = (
{
layerId = UUID0;
name = Regular;
paths = (
{
closed = 1;
nodes = (
"295 670 LINE",
"370 675 LINE",
"370 697 LINE",
"75 697 LINE",
"75 675 LINE",
"170 670 LINE",
"170 4 LINE SMOOTH",
"170 -120 OFFCURVE",
"127 -123 OFFCURVE",
"103 -123 CURVE SMOOTH",
"98 -123 OFFCURVE",
"79 -121 OFFCURVE",
"74 -114 CURVE SMOOTH",
"73 -112 LINE",
"97 -99 OFFCURVE",
"110 -69 OFFCURVE",
"110 -50 CURVE SMOOTH",
"110 -15 OFFCURVE",
"87 17 OFFCURVE",
"41 17 CURVE SMOOTH",
"-1 17 OFFCURVE",
"-29 -17 OFFCURVE",
"-29 -55 CURVE SMOOTH",
"-29 -118 OFFCURVE",
"30 -150 OFFCURVE",
"95 -150 CURVE SMOOTH",
"160 -150 OFFCURVE",
"295 -121 OFFCURVE",
"295 108 CURVE SMOOTH"
);
}
);
width = 401;
}
);
unicode = 004A;
},
{
glyphname = K;
lastChange = "2016-04-07 19:09:02 +0000";
layers = (
{
layerId = UUID0;
name = Regular;
paths = (
{
closed = 1;
nodes = (
"311 697 LINE",
"36 697 LINE",
"36 675 LINE",
"111 670 LINE",
"111 27 LINE",
"36 22 LINE",
"36 0 LINE",
"311 0 LINE",
"311 22 LINE",
"236 27 LINE",
"236 348 LINE",
"237 348 LINE",
"472 27 LINE",
"409 22 LINE",
"409 0 LINE",
"688 0 LINE",
"688 22 LINE",
"635 27 LINE",
"325 430 LINE",
"552 670 LINE",
"609 675 LINE",
"609 697 LINE",
"451 697 LINE",
"451 675 LINE",
"514 670 LINE",
"237 373 LINE",
"236 373 LINE",
"236 670 LINE",
"311 675 LINE"
);
}
);
width = 674;
}
);
leftKerningGroup = I;
unicode = 004B;
},
{
glyphname = C;
lastChange = "2016-04-07 19:27:29 +0000";
layers = (
{
anchors = (
{
name = bottom;
position = "{306, 0}";
},
{
name = top;
position = "{384, 697}";
}
);
layerId = UUID0;
name = Regular;
paths = (
{
closed = 1;
nodes = (
"451 686 OFFCURVE",
"492 650 OFFCURVE",
"498 638 CURVE",
"498 636 LINE",
"496 637 OFFCURVE",
"493 637 OFFCURVE",
"490 637 CURVE SMOOTH",
"455 637 OFFCURVE",
"427 607 OFFCURVE",
"427 570 CURVE SMOOTH",
"427 532 OFFCURVE",
"455 503 OFFCURVE",
"496 503 CURVE SMOOTH",
"540 503 OFFCURVE",
"564 537 OFFCURVE",
"564 573 CURVE SMOOTH",
"564 650 OFFCURVE",
"472 714 OFFCURVE",
"372 714 CURVE SMOOTH",
"146 714 OFFCURVE",
"48 512 OFFCURVE",
"48 336 CURVE SMOOTH",
"48 159 OFFCURVE",
"109 -17 OFFCURVE",
"357 -17 CURVE SMOOTH",
"475 -17 OFFCURVE",
"548 47 OFFCURVE",
"592 155 CURVE",
"569 166 LINE",
"534 87 OFFCURVE",
"467 19 OFFCURVE",
"368 19 CURVE SMOOTH",
"234 19 OFFCURVE",
"178 183 OFFCURVE",
"178 350 CURVE SMOOTH",
"178 555 OFFCURVE",
"264 686 OFFCURVE",
"381 686 CURVE SMOOTH"
);
}
);
width = 612;
}
);
leftKerningGroup = C;
rightKerningGroup = C;
unicode = 0043;
},
{
glyphname = comma;
lastChange = "2016-04-07 19:09:02 +0000";
layers = (
{
layerId = UUID0;
name = Regular;
paths = (
{
closed = 1;
nodes = (
"68 -141 LINE",
"158 -96 OFFCURVE",
"180 -26 OFFCURVE",
"180 29 CURVE SMOOTH",
"180 73 OFFCURVE",
"159 117 OFFCURVE",
"110 117 CURVE SMOOTH",
"62 117 OFFCURVE",
"45 77 OFFCURVE",
"45 50 CURVE SMOOTH",
"45 11 OFFCURVE",
"72 -17 OFFCURVE",
"106 -17 CURVE SMOOTH",
"116 -17 OFFCURVE",
"124 -16 OFFCURVE",
"136 -8 CURVE",
"138 -8 LINE",
"138 -36 OFFCURVE",
"123 -86 OFFCURVE",
"60 -116 CURVE"
);
}
);
width = 224;
}
);
leftKerningGroup = period;
rightKerningGroup = period;
unicode = 002C;
},
{
glyphname = hyphen;
lastChange = "2016-04-07 19:09:02 +0000";
layers = (
{
layerId = UUID0;
name = Regular;
paths = (
{
closed = 1;
nodes = (
"57 343 LINE",
"57 289 LINE",
"307 289 LINE",
"307 343 LINE"
);
}
);
width = 364;
}
);
leftKerningGroup = hyphen;
rightKerningGroup = hyphen;
unicode = 002D;
},
{
glyphname = period;
lastChange = "2016-04-07 19:09:02 +0000";
layers = (
{
layerId = UUID0;
name = Regular;
paths = (
{
closed = 1;
nodes = (
"46 9 OFFCURVE",
"74 -17 OFFCURVE",
"113 -17 CURVE SMOOTH",
"154 -17 OFFCURVE",
"181 9 OFFCURVE",
"181 49 CURVE SMOOTH",
"181 90 OFFCURVE",
"154 117 OFFCURVE",
"113 117 CURVE SMOOTH",
"74 117 OFFCURVE",
"46 90 OFFCURVE",
"46 49 CURVE SMOOTH"
);
}
);
width = 227;
}
);
leftKerningGroup = period;
rightKerningGroup = period;
unicode = 002E;
},
{
glyphname = exclam;
lastChange = "2016-04-07 19:09:02 +0000";
layers = (
{
layerId = UUID0;
name = Regular;
paths = (
{
closed = 1;
nodes = (
"144 179 LINE",
"150 393 OFFCURVE",
"203 550 OFFCURVE",
"203 632 CURVE SMOOTH",
"203 672 OFFCURVE",
"181 714 OFFCURVE",
"134 714 CURVE SMOOTH",
"87 714 OFFCURVE",
"61 672 OFFCURVE",
"61 632 CURVE SMOOTH",
"61 550 OFFCURVE",
"114 393 OFFCURVE",
"121 179 CURVE"
);
},
{
closed = 1;
nodes = (
"65 17 OFFCURVE",
"91 -10 OFFCURVE",
"131 -10 CURVE SMOOTH",
"172 -10 OFFCURVE",
"200 17 OFFCURVE",
"200 56 CURVE SMOOTH",
"200 97 OFFCURVE",
"172 125 OFFCURVE",
"131 125 CURVE SMOOTH",
"91 125 OFFCURVE",
"65 97 OFFCURVE",
"65 56 CURVE SMOOTH"
);
}
);
width = 265;
}
);
unicode = 0021;
},
{
glyphname = quotedbl;
lastChange = "2016-04-07 19:09:02 +0000";
layers = (
{
layerId = UUID0;
name = Regular;
paths = (
{
closed = 1;
nodes = (
"216 462 LINE",
"231 551 OFFCURVE",
"246 615 OFFCURVE",
"246 649 CURVE SMOOTH",
"246 665 OFFCURVE",
"246 714 OFFCURVE",
"206 714 CURVE SMOOTH",
"166 714 OFFCURVE",
"164 665 OFFCURVE",
"164 649 CURVE SMOOTH",
"164 615 OFFCURVE",
"179 551 OFFCURVE",
"194 462 CURVE"
);
},
{
closed = 1;
nodes = (
"96 462 LINE",
"111 551 OFFCURVE",
"126 615 OFFCURVE",
"126 649 CURVE SMOOTH",
"126 665 OFFCURVE",
"126 714 OFFCURVE",
"86 714 CURVE SMOOTH",
"45 714 OFFCURVE",
"44 665 OFFCURVE",
"44 649 CURVE SMOOTH",
"44 615 OFFCURVE",
"59 551 OFFCURVE",
"74 462 CURVE"
);
}
);
width = 290;
}
);
leftKerningGroup = quotesingle;
rightKerningGroup = quotesingle;
unicode = 0022;
},
{
glyphname = a;
lastChange = "2016-04-07 19:09:02 +0000";
layers = (
{
layerId = UUID0;
name = Regular;
paths = (
{
closed = 1;
nodes = (
"153 149 OFFCURVE",
"161 242 OFFCURVE",
"267 242 CURVE SMOOTH",
"276 242 OFFCURVE",
"287 241 OFFCURVE",
"298 239 CURVE",
"298 172 LINE SMOOTH",
"298 89 OFFCURVE",
"253 29 OFFCURVE",
"211 29 CURVE SMOOTH",
"172 29 OFFCURVE",
"153 67 OFFCURVE",
"153 116 CURVE SMOOTH"
);
},
{
closed = 1;
nodes = (
"299 77 LINE",
"313 0 LINE",
"468 0 LINE",
"468 20 LINE",
"418 25 LINE",
"418 288 LINE SMOOTH",
"418 422 OFFCURVE",
"395 505 OFFCURVE",
"229 505 CURVE SMOOTH",
"141 505 OFFCURVE",
"54 450 OFFCURVE",
"54 370 CURVE SMOOTH",
"54 337 OFFCURVE",
"76 305 OFFCURVE",
"116 305 CURVE SMOOTH",
"152 305 OFFCURVE",
"178 331 OFFCURVE",
"178 365 CURVE SMOOTH",
"178 405 OFFCURVE",
"156 425 OFFCURVE",
"123 425 CURVE SMOOTH",
"118 425 OFFCURVE",
"113 425 OFFCURVE",
"108 424 CURVE",
"108 426 LINE",
"120 447 OFFCURVE",
"149 482 OFFCURVE",
"212 482 CURVE SMOOTH",
"292 482 OFFCURVE",
"298 422 OFFCURVE",
"298 329 CURVE SMOOTH",
"298 262 LINE",
"282 263 OFFCURVE",
"267 264 OFFCURVE",
"253 264 CURVE SMOOTH",
"99 264 OFFCURVE",
"35 184 OFFCURVE",
"35 106 CURVE SMOOTH",
"35 46 OFFCURVE",
"73 -15 OFFCURVE",
"158 -15 CURVE SMOOTH",
"224 -15 OFFCURVE",
"267 17 OFFCURVE",
"298 77 CURVE"
);
}
);
width = 491;
}
);
leftKerningGroup = a;
rightKerningGroup = a;
unicode = 0061;
},
{
glyphname = d;
lastChange = "2016-04-07 19:09:02 +0000";
layers = (
{
layerId = UUID0;
name = Regular;
paths = (
{
closed = 1;
nodes = (
"341 69 LINE",
"347 0 LINE",
"510 0 LINE",
"510 20 LINE",
"460 25 LINE",
"460 693 LINE",
"451 707 LINE",
"382 689 LINE",
"280 678 LINE",
"280 658 LINE",
"340 658 LINE",
"340 480 LINE",
"317 499 OFFCURVE",
"275 505 OFFCURVE",
"256 505 CURVE SMOOTH",
"105 505 OFFCURVE",
"40 371 OFFCURVE",
"40 233 CURVE SMOOTH",
"40 19 OFFCURVE",
"161 -15 OFFCURVE",
"207 -15 CURVE SMOOTH",
"260 -15 OFFCURVE",
"300 1 OFFCURVE",
"340 69 CURVE"
);
},
{
closed = 1;
nodes = (
"340 157 LINE SMOOTH",
"340 96 OFFCURVE",
"300 26 OFFCURVE",
"252 26 CURVE SMOOTH",
"207 26 OFFCURVE",
"165 67 OFFCURVE",
"165 238 CURVE SMOOTH",
"165 320 OFFCURVE",
"170 477 OFFCURVE",
"278 477 CURVE SMOOTH",
"301 477 OFFCURVE",
"322 470 OFFCURVE",
"340 456 CURVE"
);
}
);
width = 540;
}
);
leftKerningGroup = d;
unicode = 0064;
},
{
glyphname = A;
lastChange = "2016-04-07 19:09:02 +0000";
layers = (
{
anchors = (
{
name = bottom;
position = "{302, 0}";
},
{
name = ogonek;
position = "{583, 5}";
},
{
name = top;
position = "{302, 697}";
}
);
layerId = UUID0;
name = Regular;
paths = (
{
closed = 1;
nodes = (
"417 27 LINE",
"351 22 LINE",
"351 0 LINE",
"612 0 LINE",
"612 22 LINE",
"548 27 LINE",
"309 717 LINE",
"287 717 LINE",
"56 27 LINE",
"-3 22 LINE",
"-3 0 LINE",
"150 0 LINE",
"150 22 LINE",
"84 27 LINE",
"141 202 LINE",
"359 202 LINE"
);
},
{
closed = 1;
nodes = (
"249 535 LINE",
"251 535 LINE",
"349 235 LINE",
"149 231 LINE"
);
}
);
width = 604;
}
);
leftKerningGroup = A;
rightKerningGroup = A;
unicode = 0041;
},
{
glyphname = B;
lastChange = "2016-04-07 19:09:02 +0000";
layers = (
{
layerId = UUID0;
name = Regular;
paths = (
{
closed = 1;
nodes = (
"111 670 LINE",
"111 27 LINE",
"36 22 LINE",
"36 0 LINE",
"318 0 LINE SMOOTH",
"448 0 OFFCURVE",
"583 51 OFFCURVE",
"583 195 CURVE SMOOTH",
"583 322 OFFCURVE",
"483 382 OFFCURVE",
"353 382 CURVE",
"353 384 LINE",
"430 394 OFFCURVE",
"548 437 OFFCURVE",
"548 540 CURVE SMOOTH",
"548 669 OFFCURVE",
"427 697 OFFCURVE",
"297 697 CURVE SMOOTH",
"36 697 LINE",
"36 675 LINE"
);
},
{
closed = 1;
nodes = (
"236 360 LINE",
"251 363 OFFCURVE",
"263 364 OFFCURVE",
"281 364 CURVE SMOOTH",
"387 364 OFFCURVE",
"453 305 OFFCURVE",
"453 194 CURVE SMOOTH",
"453 92 OFFCURVE",
"391 27 OFFCURVE",
"287 27 CURVE SMOOTH",
"276 27 OFFCURVE",
"257 28 OFFCURVE",
"236 32 CURVE"
);
},
{
closed = 1;
nodes = (
"236 665 LINE",
"257 669 OFFCURVE",
"276 670 OFFCURVE",
"287 670 CURVE SMOOTH",
"381 670 OFFCURVE",
"421 617 OFFCURVE",
"421 537 CURVE SMOOTH",
"421 440 OFFCURVE",
"374 391 OFFCURVE",
"273 391 CURVE SMOOTH",
"260 391 OFFCURVE",
"250 392 OFFCURVE",
"236 394 CURVE"
);
}
);
width = 626;
}
);
leftKerningGroup = I;
unicode = 0042;
},
{
glyphname = D;
lastChange = "2016-04-07 19:09:02 +0000";
layers = (
{
layerId = UUID0;
name = Regular;
paths = (
{
closed = 1;
nodes = (
"272 27 OFFCURVE",
"257 28 OFFCURVE",
"236 32 CURVE",
"236 665 LINE",
"257 669 OFFCURVE",
"276 670 OFFCURVE",
"290 670 CURVE SMOOTH",
"474 670 OFFCURVE",
"513 530 OFFCURVE",
"513 353 CURVE SMOOTH",
"513 166 OFFCURVE",
"453 27 OFFCURVE",
"284 27 CURVE SMOOTH"
);
},
{
closed = 1;
nodes = (
"298 0 LINE SMOOTH",
"542 0 OFFCURVE",
"643 152 OFFCURVE",
"643 345 CURVE SMOOTH",
"643 556 OFFCURVE",
"552 697 OFFCURVE",
"282 697 CURVE SMOOTH",
"36 697 LINE",
"36 675 LINE",
"111 670 LINE",
"111 27 LINE",
"36 22 LINE",
"36 0 LINE"
);
}
);
width = 692;
}
);
leftKerningGroup = I;
rightKerningGroup = D;
unicode = 0044;
},
{
glyphname = E;
lastChange = "2016-04-07 19:09:02 +0000";
layers = (
{
layerId = UUID0;
name = Regular;
paths = (
{
closed = 1;
nodes = (
"236 665 LINE",
"273 668 OFFCURVE",
"310 670 OFFCURVE",
"340 670 CURVE SMOOTH",
"456 670 OFFCURVE",
"483 598 OFFCURVE",
"501 498 CURVE",
"521 498 LINE",
"517 697 LINE",
"36 697 LINE",
"36 675 LINE",
"111 670 LINE",
"111 27 LINE",
"36 22 LINE",
"36 0 LINE",
"537 0 LINE",
"542 199 LINE",
"521 199 LINE",
"500 88 OFFCURVE",
"476 27 OFFCURVE",
"360 27 CURVE SMOOTH",
"324 27 OFFCURVE",
"273 29 OFFCURVE",
"236 32 CURVE",
"236 345 LINE",
"251 347 OFFCURVE",
"281 347 OFFCURVE",
"289 347 CURVE SMOOTH",
"355 347 OFFCURVE",
"384 319 OFFCURVE",
"384 228 CURVE",
"411 228 LINE",
"411 490 LINE",
"384 490 LINE",
"384 399 OFFCURVE",
"355 374 OFFCURVE",
"289 374 CURVE SMOOTH",
"276 374 OFFCURVE",
"250 374 OFFCURVE",
"236 375 CURVE"
);
}
);
width = 591;
}
);
leftKerningGroup = I;
rightKerningGroup = E;
unicode = 0045;
},
{
glyphname = F;
lastChange = "2016-04-07 19:09:02 +0000";
layers = (
{
layerId = UUID0;
name = Regular;
paths = (
{
closed = 1;
nodes = (
"236 665 LINE",
"261 669 OFFCURVE",
"290 670 OFFCURVE",
"320 670 CURVE SMOOTH",
"436 670 OFFCURVE",
"466 599 OFFCURVE",
"475 498 CURVE",
"502 498 LINE",
"497 697 LINE",
"36 697 LINE",
"36 675 LINE",
"111 670 LINE",
"111 27 LINE",
"36 22 LINE",
"36 0 LINE",
"331 0 LINE",
"331 22 LINE",
"236 27 LINE",
"236 337 LINE",
"251 337 OFFCURVE",
"269 337 OFFCURVE",
"274 337 CURVE SMOOTH",
"341 337 OFFCURVE",
"370 310 OFFCURVE",
"370 219 CURVE",
"396 219 LINE",
"396 481 LINE",
"370 481 LINE",
"370 376 OFFCURVE",
"334 364 OFFCURVE",
"250 364 CURVE SMOOTH",
"246 364 OFFCURVE",
"241 364 OFFCURVE",
"236 364 CURVE"
);
}
);
width = 527;
}
);
leftKerningGroup = I;
unicode = 0046;
},
{
glyphname = G;
lastChange = "2016-04-07 19:27:37 +0000";
layers = (
{
anchors = (
{
name = bottom;
position = "{344, 0}";
},
{
name = top;
position = "{366, 697}";
}
);
layerId = UUID0;
name = Regular;
paths = (
{
closed = 1;
nodes = (
"595 292 LINE",
"667 297 LINE",
"667 319 LINE",
"411 319 LINE",
"411 297 LINE",
"483 292 LINE",
"483 26 LINE",
"456 18 OFFCURVE",
"428 11 OFFCURVE",
"392 11 CURVE SMOOTH",
"210 11 OFFCURVE",
"178 204 OFFCURVE",
"178 350 CURVE SMOOTH",
"178 547 OFFCURVE",
"259 685 OFFCURVE",
"399 685 CURVE SMOOTH",
"473 685 OFFCURVE",
"519 652 OFFCURVE",
"527 642 CURVE",
"527 640 LINE",
"485 640 OFFCURVE",
"453 615 OFFCURVE",
"453 569 CURVE SMOOTH",
"453 529 OFFCURVE",
"481 499 OFFCURVE",
"524 499 CURVE SMOOTH",
"572 499 OFFCURVE",
"598 534 OFFCURVE",
"598 573 CURVE SMOOTH",
"598 647 OFFCURVE",
"505 714 OFFCURVE",
"370 714 CURVE SMOOTH",
"144 714 OFFCURVE",
"48 500 OFFCURVE",
"48 334 CURVE SMOOTH",
"48 167 OFFCURVE",
"100 -17 OFFCURVE",
"365 -17 CURVE SMOOTH",
"448 -17 OFFCURVE",
"539 0 OFFCURVE",
"595 33 CURVE"
);
}
);
width = 687;
}
);
leftKerningGroup = C;
unicode = 0047;
},
{
glyphname = L;
lastChange = "2016-04-07 19:09:02 +0000";
layers = (
{
layerId = UUID0;
name = Regular;
paths = (
{
closed = 1;
nodes = (
"36 697 LINE",
"36 675 LINE",
"111 670 LINE",
"111 27 LINE",
"36 22 LINE",
"36 0 LINE",
"547 0 LINE",
"547 199 LINE",
"530 199 LINE",
"500 62 OFFCURVE",
"485 26 OFFCURVE",
"345 26 CURVE SMOOTH",
"308 26 OFFCURVE",
"272 29 OFFCURVE",
"236 32 CURVE",
"236 670 LINE",
"311 675 LINE",
"311 697 LINE"
);
}
);
width = 569;
}
);
leftKerningGroup = I;
unicode = 004C;
},
{
glyphname = M;
lastChange = "2016-04-07 19:09:02 +0000";
layers = (
{
layerId = UUID0;
name = Regular;
paths = (
{
closed = 1;
nodes = (
"841 697 LINE",
"641 697 LINE",
"449 177 LINE",
"448 177 LINE",
"245 697 LINE",
"36 697 LINE",
"36 675 LINE",
"111 670 LINE",
"111 27 LINE",
"36 22 LINE",
"36 0 LINE",
"213 0 LINE",
"213 22 LINE",
"139 27 LINE",
"132 647 LINE",
"133 647 LINE",
"391 -10 LINE",
"409 -10 LINE",
"641 624 LINE",
"642 624 LINE",
"641 27 LINE",
"565 22 LINE",
"565 0 LINE",
"841 0 LINE",
"841 22 LINE",
"766 27 LINE",
"766 670 LINE",
"841 675 LINE"
);
}
);
width = 876;
}
);
leftKerningGroup = I;
rightKerningGroup = I;
unicode = 004D;
},
{
glyphname = N;
lastChange = "2016-04-07 19:27:48 +0000";
layers = (
{
anchors = (
{
name = bottom;
position = "{345, 0}";
},
{
name = top;
position = "{345, 697}";
}
);
layerId = UUID0;
name = Regular;
paths = (
{
closed = 1;
nodes = (
"138 500 LINE",
"139 500 LINE",
"558 -10 LINE",
"587 -10 LINE",
"582 670 LINE",
"657 675 LINE",
"657 697 LINE",
"477 697 LINE",
"477 675 LINE",
"551 670 LINE",
"558 189 LINE",
"557 189 LINE",
"138 697 LINE",
"34 697 LINE",
"34 675 LINE",
"108 670 LINE",
"114 27 LINE",
"39 22 LINE",
"39 0 LINE",
"219 0 LINE",
"219 22 LINE",
"145 27 LINE"
);
}
);
width = 690;
}
);
leftKerningGroup = I;
rightKerningGroup = N;
unicode = 004E;
},
{
glyphname = P;
lastChange = "2016-04-07 19:09:02 +0000";
layers = (
{
layerId = UUID0;
name = Regular;
paths = (
{
closed = 1;
nodes = (
"422 277 OFFCURVE",
"561 339 OFFCURVE",
"561 499 CURVE SMOOTH",
"561 639 OFFCURVE",
"439 697 OFFCURVE",
"301 697 CURVE SMOOTH",
"36 697 LINE",
"36 675 LINE",
"111 670 LINE",
"111 27 LINE",
"36 22 LINE",
"36 0 LINE",
"311 0 LINE",
"311 22 LINE",
"236 27 LINE",
"236 278 LINE",
"247 278 OFFCURVE",
"258 277 OFFCURVE",
"268 277 CURVE SMOOTH"
);
},
{
closed = 1;
nodes = (
"236 663 LINE",
"257 666 OFFCURVE",
"277 667 OFFCURVE",
"288 667 CURVE SMOOTH",
"368 667 OFFCURVE",
"431 630 OFFCURVE",
"431 500 CURVE SMOOTH",
"431 384 OFFCURVE",
"388 305 OFFCURVE",
"271 305 CURVE SMOOTH",
"259 305 OFFCURVE",
"247 305 OFFCURVE",
"236 306 CURVE"
);
}
);
width = 589;
}
);
leftKerningGroup = I;
unicode = 0050;
},
{
glyphname = Q;
lastChange = "2016-04-07 19:09:02 +0000";
layers = (
{
layerId = UUID0;
name = Regular;
paths = (
{
closed = 1;
nodes = (
"207 -104 LINE",
"226 -95 OFFCURVE",
"243 -92 OFFCURVE",
"260 -92 CURVE SMOOTH",
"297 -92 OFFCURVE",
"344 -131 OFFCURVE",
"411 -170 CURVE SMOOTH",
"492 -219 OFFCURVE",
"516 -220 OFFCURVE",
"550 -220 CURVE SMOOTH",
"636 -220 OFFCURVE",
"680 -147 OFFCURVE",
"680 -98 CURVE SMOOTH",
"680 -56 OFFCURVE",
"659 -19 OFFCURVE",
"618 -19 CURVE SMOOTH",
"589 -19 OFFCURVE",
"565 -39 OFFCURVE",
"565 -71 CURVE SMOOTH",
"565 -99 OFFCURVE",
"585 -122 OFFCURVE",
"617 -122 CURVE SMOOTH",
"632 -122 OFFCURVE",
"644 -114 OFFCURVE",
"649 -104 CURVE",
"651 -104 LINE",
"651 -106 OFFCURVE",
"651 -108 OFFCURVE",
"651 -110 CURVE SMOOTH",
"651 -133 OFFCURVE",
"638 -159 OFFCURVE",
"603 -159 CURVE SMOOTH",
"586 -159 OFFCURVE",
"567 -153 OFFCURVE",
"544 -140 CURVE SMOOTH",
"450 -87 OFFCURVE",
"408 -36 OFFCURVE",
"320 -36 CURVE SMOOTH",
"281 -36 OFFCURVE",
"238 -51 OFFCURVE",
"197 -84 CURVE"
);
},
{
closed = 1;
nodes = (
"178 590 OFFCURVE",
"261 687 OFFCURVE",
"354 687 CURVE SMOOTH",
"458 687 OFFCURVE",
"526 583 OFFCURVE",
"526 358 CURVE SMOOTH",
"526 151 OFFCURVE",
"462 10 OFFCURVE",
"351 10 CURVE SMOOTH",
"237 10 OFFCURVE",
"178 168 OFFCURVE",
"178 357 CURVE SMOOTH"
);
},
{
closed = 1;
nodes = (
"47 131 OFFCURVE",
"160 -17 OFFCURVE",
"354 -17 CURVE SMOOTH",
"561 -17 OFFCURVE",
"657 174 OFFCURVE",
"657 362 CURVE SMOOTH",
"657 572 OFFCURVE",
"535 714 OFFCURVE",
"351 714 CURVE SMOOTH",
"163 714 OFFCURVE",
"47 546 OFFCURVE",
"47 346 CURVE SMOOTH"
);
}
);
width = 704;
}
);
leftKerningGroup = O;
rightKerningGroup = O;
unicode = 0051;
},
{
glyphname = R;
lastChange = "2016-04-07 19:09:02 +0000";
layers = (
{
layerId = UUID0;
name = Regular;
paths = (
{
closed = 1;
nodes = (
"236 666 LINE",
"257 668 OFFCURVE",
"272 669 OFFCURVE",
"283 669 CURVE SMOOTH",
"355 669 OFFCURVE",
"414 638 OFFCURVE",
"414 523 CURVE SMOOTH",
"414 417 OFFCURVE",
"377 354 OFFCURVE",
"256 354 CURVE SMOOTH",
"247 354 OFFCURVE",
"241 354 OFFCURVE",
"236 355 CURVE"
);
},
{
closed = 1;
nodes = (
"321 328 OFFCURVE",
"353 249 OFFCURVE",
"388 162 CURVE SMOOTH",
"446 17 OFFCURVE",
"475 0 OFFCURVE",
"566 0 CURVE SMOOTH",
"647 0 LINE",
"647 27 LINE",
"623 27 OFFCURVE",
"592 32 OFFCURVE",
"559 92 CURVE SMOOTH",
"524 152 OFFCURVE",
"519 176 OFFCURVE",
"489 236 CURVE SMOOTH",
"459 293 OFFCURVE",
"421 332 OFFCURVE",
"336 333 CURVE",
"336 333 LINE",
"455 351 OFFCURVE",
"544 407 OFFCURVE",
"544 524 CURVE SMOOTH",
"544 651 OFFCURVE",
"436 697 OFFCURVE",
"296 697 CURVE SMOOTH",
"36 697 LINE",
"36 675 LINE",
"111 670 LINE",
"111 27 LINE",
"36 22 LINE",
"36 0 LINE",
"311 0 LINE",
"311 22 LINE",
"236 27 LINE",
"236 327 LINE",
"247 328 OFFCURVE",
"253 328 OFFCURVE",
"269 328 CURVE SMOOTH"
);
}
);
width = 629;
}
);
leftKerningGroup = I;
unicode = 0052;
},
{
glyphname = S;
lastChange = "2016-04-07 19:27:55 +0000";
layers = (
{
anchors = (
{
name = bottom;
position = "{273, 0}";
},
{
name = top;
position = "{283, 697}";
}
);
layerId = UUID0;
name = Regular;
paths = (
{
closed = 1;
nodes = (
"364 687 OFFCURVE",
"408 652 OFFCURVE",
"416 642 CURVE",
"416 640 LINE",
"374 640 OFFCURVE",
"341 615 OFFCURVE",
"341 569 CURVE SMOOTH",
"341 529 OFFCURVE",
"370 499 OFFCURVE",
"413 499 CURVE SMOOTH",
"460 499 OFFCURVE",
"486 534 OFFCURVE",
"486 573 CURVE SMOOTH",
"486 647 OFFCURVE",
"416 714 OFFCURVE",
"282 714 CURVE SMOOTH",
"142 714 OFFCURVE",
"63 625 OFFCURVE",
"63 518 CURVE SMOOTH",
"63 440 OFFCURVE",
"106 356 OFFCURVE",
"223 301 CURVE",
"397 223 OFFCURVE",
"432 184 OFFCURVE",
"432 124 CURVE SMOOTH",
"432 53 OFFCURVE",
"350 10 OFFCURVE",
"271 10 CURVE SMOOTH",
"176 10 OFFCURVE",
"133 42 OFFCURVE",
"124 52 CURVE",
"124 54 LINE",
"166 54 OFFCURVE",
"196 78 OFFCURVE",
"196 124 CURVE SMOOTH",
"196 164 OFFCURVE",
"168 195 OFFCURVE",
"125 195 CURVE SMOOTH",
"78 195 OFFCURVE",
"51 160 OFFCURVE",
"51 118 CURVE SMOOTH",
"51 52 OFFCURVE",
"108 -17 OFFCURVE",
"280 -17 CURVE SMOOTH",
"435 -17 OFFCURVE",
"510 84 OFFCURVE",
"510 179 CURVE SMOOTH",
"510 290 OFFCURVE",
"452 348 OFFCURVE",
"293 421 CURVE",
"163 475 OFFCURVE",
"138 520 OFFCURVE",
"138 572 CURVE SMOOTH",
"138 641 OFFCURVE",
"187 687 OFFCURVE",
"281 687 CURVE SMOOTH"
);
}
);
width = 547;
}
);
leftKerningGroup = S;
rightKerningGroup = S;
unicode = 0053;
},
{
glyphname = T;
lastChange = "2016-04-07 19:09:02 +0000";
layers = (
{
layerId = UUID0;
name = Regular;
paths = (
{
closed = 1;
nodes = (
"567 697 LINE",
"34 697 LINE",
"29 458 LINE",
"56 458 LINE",
"85 611 OFFCURVE",
"102 670 OFFCURVE",
"218 670 CURVE SMOOTH",
"223 670 OFFCURVE",
"228 669 OFFCURVE",
"237 669 CURVE",
"240 27 LINE",
"165 22 LINE",
"165 0 LINE",
"440 0 LINE",
"440 22 LINE",
"365 27 LINE",
"365 670 LINE",
"374 670 OFFCURVE",
"379 670 OFFCURVE",
"384 670 CURVE SMOOTH",
"499 670 OFFCURVE",
"517 612 OFFCURVE",
"545 458 CURVE",
"572 458 LINE"
);
}
);
width = 602;
}
);
unicode = 0054;
},
{
glyphname = U;
lastChange = "2016-04-07 19:09:02 +0000";
layers = (
{
layerId = UUID0;
name = Regular;
paths = (
{
closed = 1;
nodes = (
"99 234 LINE SMOOTH",
"99 113 OFFCURVE",
"119 -17 OFFCURVE",
"378 -17 CURVE SMOOTH",
"559 -17 OFFCURVE",
"600 115 OFFCURVE",
"600 223 CURVE SMOOTH",
"600 670 LINE",
"675 675 LINE",
"675 697 LINE",
"494 697 LINE",
"494 675 LINE",
"569 670 LINE",
"569 233 LINE SMOOTH",
"569 125 OFFCURVE",
"532 17 OFFCURVE",
"394 17 CURVE SMOOTH",
"233 17 OFFCURVE",
"224 136 OFFCURVE",
"224 214 CURVE SMOOTH",
"224 670 LINE",
"299 675 LINE",
"299 697 LINE",
"24 697 LINE",
"24 675 LINE",
"99 670 LINE"
);
}
);
width = 699;
}
);
leftKerningGroup = U;
rightKerningGroup = U;
unicode = 0055;
},
{
glyphname = V;
lastChange = "2016-04-07 19:09:02 +0000";
layers = (
{
layerId = UUID0;
name = Regular;
paths = (
{
closed = 1;
nodes = (
"186 670 LINE",
"252 675 LINE",
"252 697 LINE",
"-19 697 LINE",
"-19 675 LINE",
"55 670 LINE",
"329 -10 LINE",
"351 -10 LINE",
"583 670 LINE",
"642 675 LINE",
"642 697 LINE",
"486 697 LINE",
"486 675 LINE",
"552 670 LINE",
"382 175 LINE",
"380 175 LINE"
);
}
);
width = 642;
}
);
unicode = 0056;
},
{
glyphname = W;
lastChange = "2016-04-07 19:09:02 +0000";
layers = (
{
layerId = UUID0;
name = Regular;
paths = (
{
closed = 1;
nodes = (
"496 707 LINE",
"474 707 LINE",
"323 182 LINE",
"321 182 LINE",
"191 670 LINE",
"258 675 LINE",
"258 697 LINE",
"-13 697 LINE",
"-13 675 LINE",
"61 670 LINE",
"271 -10 LINE",
"293 -10 LINE",
"442 500 LINE",
"443 500 LINE",
"623 -10 LINE",
"645 -10 LINE",
"843 670 LINE",
"902 675 LINE",
"902 697 LINE",
"748 697 LINE",
"748 675 LINE",
"813 670 LINE",
"674 184 LINE",
"672 184 LINE"
);
}
);
width = 900;
}
);
unicode = 0057;
},
{
glyphname = X;
lastChange = "2016-04-07 19:09:02 +0000";
layers = (
{
layerId = UUID0;
name = Regular;
paths = (
{
closed = 1;
nodes = (
"449 27 LINE",
"364 22 LINE",
"364 0 LINE",
"669 0 LINE",
"669 22 LINE",
"594 27 LINE",
"367 392 LINE",
"534 670 LINE",
"598 675 LINE",
"598 697 LINE",
"436 697 LINE",
"436 675 LINE",
"499 670 LINE",
"349 421 LINE",
"348 421 LINE",
"195 670 LINE",
"268 675 LINE",
"268 697 LINE",
"-5 697 LINE",
"-5 675 LINE",
"55 670 LINE",
"271 316 LINE",
"98 27 LINE",
"34 22 LINE",
"34 0 LINE",
"207 0 LINE",
"207 22 LINE",
"134 27 LINE",
"290 287 LINE",
"291 287 LINE"
);
}
);
width = 657;
}
);
unicode = 0058;
},
{
glyphname = Y;
lastChange = "2016-04-07 19:09:02 +0000";
layers = (
{
layerId = UUID0;
name = Regular;
paths = (
{
closed = 1;
nodes = (
"48 670 LINE",
"253 314 LINE",
"253 27 LINE",
"179 22 LINE",
"179 0 LINE",
"454 0 LINE",
"454 22 LINE",
"378 27 LINE",
"378 343 LINE",
"531 670 LINE",
"591 675 LINE",
"591 697 LINE",
"429 697 LINE",
"429 675 LINE",
"498 670 LINE",
"360 374 LINE",
"357 374 LINE",
"193 670 LINE",
"269 675 LINE",
"269 697 LINE",
"-18 697 LINE",
"-18 675 LINE"
);
}
);
width = 595;
}
);
leftKerningGroup = Y;
rightKerningGroup = Y;
unicode = 0059;
},
{
glyphname = Z;
lastChange = "2016-04-07 19:09:02 +0000";
layers = (
{
anchors = (
{
name = bottom;
position = "{290, 0}";
},
{
name = top;
position = "{300, 697}";
}
);
layerId = UUID0;
name = Regular;
paths = (
{
closed = 1;
nodes = (
"521 0 LINE",
"537 259 LINE",
"515 259 LINE",
"500 139 OFFCURVE",
"466 21 OFFCURVE",
"363 22 CURVE SMOOTH",
"177 25 LINE",
"515 671 LINE",
"515 697 LINE",
"62 697 LINE",
"46 468 LINE",
"68 468 LINE",
"88 601 OFFCURVE",
"132 668 OFFCURVE",
"238 670 CURVE SMOOTH",
"403 673 LINE",
"48 27 LINE",
"48 0 LINE"
);
}
);
width = 580;
}
);
unicode = 005A;
},
{
glyphname = one;
lastChange = "2016-04-07 19:09:02 +0000";
layers = (
{
layerId = UUID0;
name = Regular;
paths = (
{
closed = 1;
nodes = (
"255 714 LINE",
"228 714 LINE",
"14 655 LINE",
"21 629 LINE",
"135 656 LINE",
"135 27 LINE",
"60 22 LINE",
"60 0 LINE",
"330 0 LINE",
"330 22 LINE",
"255 27 LINE"
);
}
);
width = 359;
}
);
unicode = 0031;
},
{
glyphname = zero;
lastChange = "2016-04-07 19:09:02 +0000";
layers = (
{
layerId = UUID0;
name = Regular;
paths = (
{
closed = 1;
nodes = (
"180 604 OFFCURVE",
"246 687 OFFCURVE",
"314 687 CURVE SMOOTH",
"393 687 OFFCURVE",
"444 596 OFFCURVE",
"444 356 CURVE SMOOTH",
"444 135 OFFCURVE",
"397 10 OFFCURVE",
"311 10 CURVE SMOOTH",
"222 10 OFFCURVE",
"180 152 OFFCURVE",
"180 355 CURVE SMOOTH"
);
},
{
closed = 1;
nodes = (
"47 124 OFFCURVE",
"130 -17 OFFCURVE",
"314 -17 CURVE SMOOTH",
"511 -17 OFFCURVE",
"577 175 OFFCURVE",
"577 364 CURVE SMOOTH",
"577 574 OFFCURVE",
"485 714 OFFCURVE",
"311 714 CURVE SMOOTH",
"133 714 OFFCURVE",
"47 539 OFFCURVE",
"47 338 CURVE SMOOTH"
);
}
);
width = 625;
}
);
unicode = 0030;
},
{
glyphname = two;
lastChange = "2016-04-07 19:09:02 +0000";
layers = (
{
layerId = UUID0;
name = Regular;
paths = (
{
closed = 1;
nodes = (
"45 0 LINE",
"471 0 LINE",
"476 181 LINE",
"449 181 LINE",
"442 103 OFFCURVE",
"410 93 OFFCURVE",
"304 92 CURVE SMOOTH",
"107 89 LINE",
"156 131 OFFCURVE",
"212 189 OFFCURVE",
"294 268 CURVE SMOOTH",
"420 388 OFFCURVE",
"462 456 OFFCURVE",
"462 546 CURVE SMOOTH",
"462 649 OFFCURVE",
"378 714 OFFCURVE",
"253 714 CURVE SMOOTH",
"88 714 OFFCURVE",
"39 606 OFFCURVE",
"39 542 CURVE SMOOTH",
"39 503 OFFCURVE",
"64 469 OFFCURVE",
"112 469 CURVE SMOOTH",
"155 469 OFFCURVE",
"183 499 OFFCURVE",
"183 539 CURVE SMOOTH",
"183 581 OFFCURVE",
"154 610 OFFCURVE",
"112 610 CURVE SMOOTH",
"108 610 OFFCURVE",
"104 610 OFFCURVE",
"100 610 CURVE",
"100 612 LINE",
"108 638 OFFCURVE",
"148 685 OFFCURVE",
"218 685 CURVE SMOOTH",
"283 685 OFFCURVE",
"329 643 OFFCURVE",
"329 544 CURVE SMOOTH",
"329 479 OFFCURVE",
"323 395 OFFCURVE",
"245 286 CURVE SMOOTH",
"195 217 OFFCURVE",
"113 130 OFFCURVE",
"45 70 CURVE"
);
}
);
width = 523;
}
);
unicode = 0032;
},
{
glyphname = three;
lastChange = "2016-04-07 19:09:02 +0000";
layers = (
{
layerId = UUID0;
name = Regular;
paths = (
{
closed = 1;
nodes = (
"177 366 LINE",
"210 366 LINE SMOOTH",
"357 366 OFFCURVE",
"361 242 OFFCURVE",
"361 172 CURVE SMOOTH",
"361 68 OFFCURVE",
"308 11 OFFCURVE",
"227 11 CURVE SMOOTH",
"145 11 OFFCURVE",
"124 41 OFFCURVE",
"116 50 CURVE",
"116 52 LINE",
"158 52 OFFCURVE",
"188 74 OFFCURVE",
"188 119 CURVE SMOOTH",
"188 159 OFFCURVE",
"161 188 OFFCURVE",
"118 188 CURVE SMOOTH",
"71 188 OFFCURVE",
"44 151 OFFCURVE",
"44 113 CURVE SMOOTH",
"44 40 OFFCURVE",
"103 -17 OFFCURVE",
"247 -17 CURVE SMOOTH",
"419 -17 OFFCURVE",
"493 79 OFFCURVE",
"493 173 CURVE SMOOTH",
"493 283 OFFCURVE",
"438 368 OFFCURVE",
"275 384 CURVE",
"275 385 LINE",
"398 399 OFFCURVE",
"453 458 OFFCURVE",
"453 540 CURVE SMOOTH",
"453 651 OFFCURVE",
"371 714 OFFCURVE",
"245 714 CURVE SMOOTH",
"83 714 OFFCURVE",
"44 599 OFFCURVE",
"44 559 CURVE SMOOTH",
"44 517 OFFCURVE",
"67 487 OFFCURVE",
"111 487 CURVE SMOOTH",
"151 487 OFFCURVE",
"176 514 OFFCURVE",
"176 552 CURVE SMOOTH",
"176 594 OFFCURVE",
"146 623 OFFCURVE",
"101 616 CURVE",
"101 618 LINE",
"109 640 OFFCURVE",
"151 685 OFFCURVE",
"214 685 CURVE SMOOTH",
"294 685 OFFCURVE",
"329 625 OFFCURVE",
"329 540 CURVE SMOOTH",
"329 463 OFFCURVE",
"300 393 OFFCURVE",
"208 393 CURVE SMOOTH",
"177 393 LINE"
);
}
);
width = 537;
}
);
unicode = 0033;
},
{
glyphname = four;
lastChange = "2016-04-07 19:09:02 +0000";
layers = (
{
layerId = UUID0;
name = Regular;
paths = (
{
closed = 1;
nodes = (
"404 161 LINE",
"529 161 LINE",
"529 189 LINE",
"404 188 LINE",
"404 714 LINE",
"377 714 LINE",
"5 184 LINE",
"5 161 LINE",
"284 161 LINE",
"284 27 LINE",
"209 22 LINE",
"209 0 LINE",
"479 0 LINE",
"479 22 LINE",
"404 27 LINE"
);
},
{
closed = 1;
nodes = (
"284 533 LINE",
"284 187 LINE",
"41 184 LINE",
"41 186 LINE",
"282 533 LINE"
);
}
);
width = 543;
}
);
unicode = 0034;
},
{
glyphname = five;
lastChange = "2016-04-07 19:09:02 +0000";
layers = (
{
layerId = UUID0;
name = Regular;
paths = (
{
closed = 1;
nodes = (
"75 360 LINE",
"97 347 LINE",
"119 371 OFFCURVE",
"160 393 OFFCURVE",
"203 393 CURVE SMOOTH",
"338 393 OFFCURVE",
"338 262 OFFCURVE",
"338 193 CURVE SMOOTH",
"338 89 OFFCURVE",
"301 11 OFFCURVE",
"220 11 CURVE SMOOTH",
"147 11 OFFCURVE",
"121 40 OFFCURVE",
"113 49 CURVE",
"113 51 LINE",
"155 51 OFFCURVE",
"186 76 OFFCURVE",
"186 121 CURVE SMOOTH",
"186 161 OFFCURVE",
"158 188 OFFCURVE",
"115 188 CURVE SMOOTH",
"69 188 OFFCURVE",
"42 151 OFFCURVE",
"42 113 CURVE SMOOTH",
"42 40 OFFCURVE",
"112 -17 OFFCURVE",
"236 -17 CURVE SMOOTH",
"397 -17 OFFCURVE",
"469 100 OFFCURVE",
"469 194 CURVE SMOOTH",
"469 308 OFFCURVE",
"413 422 OFFCURVE",
"230 422 CURVE SMOOTH",
"173 422 OFFCURVE",
"130 405 OFFCURVE",
"99 384 CURVE",
"99 608 LINE",
"418 605 LINE",
"423 766 LINE",
"396 766 LINE",
"389 698 OFFCURVE",
"371 697 OFFCURVE",
"265 697 CURVE SMOOTH",
"73 697 LINE"
);
}
);
width = 502;
}
);
unicode = 0035;
},
{
glyphname = seven;
lastChange = "2016-04-07 19:09:02 +0000";
layers = (
{
layerId = UUID0;
name = Regular;
paths = (
{
closed = 1;
nodes = (
"366 606 LINE",
"336 572 OFFCURVE",
"279 473 OFFCURVE",
"241 390 CURVE SMOOTH",
"176 247 OFFCURVE",
"126 143 OFFCURVE",
"126 52 CURVE SMOOTH",
"126 28 OFFCURVE",
"130 -24 OFFCURVE",
"180 -24 CURVE SMOOTH",
"227 -24 OFFCURVE",
"239 21 OFFCURVE",
"239 53 CURVE SMOOTH",
"239 220 OFFCURVE",
"265 428 OFFCURVE",
"416 627 CURVE",
"416 697 LINE",
"30 697 LINE",
"25 516 LINE",
"52 516 LINE",
"59 595 OFFCURVE",
"83 604 OFFCURVE",
"188 605 CURVE SMOOTH",
"366 607 LINE"
);
}
);
width = 422;
}
);
unicode = 0037;
},
{
glyphname = six;
lastChange = "2016-04-07 19:09:02 +0000";
layers = (
{
layerId = UUID0;
name = Regular;
paths = (
{
closed = 1;
nodes = (
"176 369 LINE",
"176 373 OFFCURVE",
"176 378 OFFCURVE",
"176 384 CURVE SMOOTH",
"176 420 OFFCURVE",
"178 469 OFFCURVE",
"178 503 CURVE SMOOTH",
"178 613 OFFCURVE",
"215 687 OFFCURVE",
"317 687 CURVE SMOOTH",
"370 687 OFFCURVE",
"400 665 OFFCURVE",
"408 646 CURVE",
"408 644 LINE",
"370 641 OFFCURVE",
"343 613 OFFCURVE",
"343 575 CURVE SMOOTH",
"343 535 OFFCURVE",
"372 509 OFFCURVE",
"408 509 CURVE SMOOTH",
"458 509 OFFCURVE",
"477 547 OFFCURVE",
"477 583 CURVE SMOOTH",
"477 622 OFFCURVE",
"454 714 OFFCURVE",
"304 714 CURVE SMOOTH",
"137 714 OFFCURVE",
"50 574 OFFCURVE",
"50 303 CURVE SMOOTH",
"50 170 OFFCURVE",
"67 -17 OFFCURVE",
"276 -17 CURVE SMOOTH",
"447 -17 OFFCURVE",
"505 115 OFFCURVE",
"505 209 CURVE SMOOTH",
"505 327 OFFCURVE",
"451 432 OFFCURVE",
"305 432 CURVE SMOOTH",
"247 432 OFFCURVE",
"202 407 OFFCURVE",
"177 369 CURVE"
);
},
{
closed = 1;
nodes = (
"370 398 OFFCURVE",
"376 300 OFFCURVE",
"376 199 CURVE SMOOTH",
"376 95 OFFCURVE",
"346 10 OFFCURVE",
"271 10 CURVE SMOOTH",
"220 10 OFFCURVE",
"176 60 OFFCURVE",
"176 278 CURVE SMOOTH",
"176 289 OFFCURVE",
"176 301 OFFCURVE",
"176 313 CURVE",
"187 363 OFFCURVE",
"235 398 OFFCURVE",
"280 398 CURVE SMOOTH"
);
}
);
width = 548;
}
);
unicode = 0036;
},
{
glyphname = eight;
lastChange = "2016-04-07 19:09:02 +0000";
layers = (
{
layerId = UUID0;
name = Regular;
paths = (
{
closed = 1;
nodes = (
"312 416 LINE SMOOTH",
"246 463 OFFCURVE",
"162 521 OFFCURVE",
"162 598 CURVE SMOOTH",
"162 652 OFFCURVE",
"214 687 OFFCURVE",
"272 687 CURVE SMOOTH",
"344 687 OFFCURVE",
"396 646 OFFCURVE",
"396 559 CURVE SMOOTH",
"396 518 OFFCURVE",
"385 460 OFFCURVE",
"320 409 CURVE"
);
},
{
closed = 1;
nodes = (
"467 650 OFFCURVE",
"378 714 OFFCURVE",
"279 714 CURVE SMOOTH",
"155 714 OFFCURVE",
"64 638 OFFCURVE",
"64 536 CURVE SMOOTH",
"64 480 OFFCURVE",
"103 404 OFFCURVE",
"196 336 CURVE",
"128 294 OFFCURVE",
"57 235 OFFCURVE",
"57 151 CURVE SMOOTH",
"57 43 OFFCURVE",
"142 -17 OFFCURVE",
"286 -17 CURVE SMOOTH",
"440 -17 OFFCURVE",
"511 76 OFFCURVE",
"511 170 CURVE SMOOTH",
"511 280 OFFCURVE",
"424 338 OFFCURVE",
"342 395 CURVE",
"409 437 OFFCURVE",
"467 483 OFFCURVE",
"467 568 CURVE SMOOTH"
);
},
{
closed = 1;
nodes = (
"419 49 OFFCURVE",
"355 10 OFFCURVE",
"286 10 CURVE SMOOTH",
"171 10 OFFCURVE",
"139 98 OFFCURVE",
"139 156 CURVE SMOOTH",
"139 230 OFFCURVE",
"175 278 OFFCURVE",
"224 317 CURVE",
"377 214 OFFCURVE",
"419 182 OFFCURVE",
"419 122 CURVE SMOOTH"
);
}
);
width = 554;
}
);
unicode = 0038;
},
{
glyphname = nine;
lastChange = "2016-04-07 19:09:02 +0000";
layers = (
{
layerId = UUID0;
name = Regular;
paths = (
{
closed = 1;
nodes = (
"100 714 OFFCURVE",
"42 582 OFFCURVE",
"42 488 CURVE SMOOTH",
"42 370 OFFCURVE",
"96 265 OFFCURVE",
"242 265 CURVE SMOOTH",
"301 265 OFFCURVE",
"347 291 OFFCURVE",
"371 330 CURVE",
"371 149 OFFCURVE",
"370 10 OFFCURVE",
"240 10 CURVE SMOOTH",
"188 10 OFFCURVE",
"152 32 OFFCURVE",
"144 51 CURVE",
"144 53 LINE",
"182 56 OFFCURVE",
"209 83 OFFCURVE",
"209 122 CURVE SMOOTH",
"209 162 OFFCURVE",
"182 188 OFFCURVE",
"146 188 CURVE SMOOTH",
"95 188 OFFCURVE",
"75 149 OFFCURVE",
"75 114 CURVE SMOOTH",
"75 75 OFFCURVE",
"99 -17 OFFCURVE",
"249 -17 CURVE SMOOTH",
"420 -17 OFFCURVE",
"497 123 OFFCURVE",
"497 394 CURVE SMOOTH",
"497 527 OFFCURVE",
"480 714 OFFCURVE",
"271 714 CURVE SMOOTH"
);
},
{
closed = 1;
nodes = (
"177 299 OFFCURVE",
"171 396 OFFCURVE",
"171 498 CURVE SMOOTH",
"171 602 OFFCURVE",
"201 687 OFFCURVE",
"276 687 CURVE SMOOTH",
"327 687 OFFCURVE",
"372 637 OFFCURVE",
"372 419 CURVE SMOOTH",
"372 408 OFFCURVE",
"371 396 OFFCURVE",
"371 384 CURVE",
"360 334 OFFCURVE",
"312 299 OFFCURVE",
"267 299 CURVE SMOOTH"
);
}
);
width = 548;
}
);
unicode = 0039;
},
{
glyphname = quotesingle;
lastChange = "2016-04-07 19:09:02 +0000";
layers = (
{
layerId = UUID0;
name = Regular;
paths = (
{
closed = 1;
nodes = (
"100 462 LINE",
"115 551 OFFCURVE",
"134 615 OFFCURVE",
"134 649 CURVE SMOOTH",
"134 665 OFFCURVE",
"134 714 OFFCURVE",
"89 714 CURVE SMOOTH",
"44 714 OFFCURVE",
"42 665 OFFCURVE",
"42 649 CURVE SMOOTH",
"42 615 OFFCURVE",
"61 551 OFFCURVE",
"76 462 CURVE"
);
}
);
width = 176;
}
);
leftKerningGroup = quotesingle;
rightKerningGroup = quotesingle;
unicode = 0027;
},
{
glyphname = parenleft;
lastChange = "2016-04-07 19:09:02 +0000";
layers = (
{
layerId = UUID0;
name = Regular;
paths = (
{
closed = 1;
nodes = (
"142 384 OFFCURVE",
"160 564 OFFCURVE",
"253 696 CURVE",
"234 714 LINE",
"126 604 OFFCURVE",
"31 421 OFFCURVE",
"31 235 CURVE SMOOTH",
"31 49 OFFCURVE",
"126 -132 OFFCURVE",
"234 -242 CURVE",
"253 -224 LINE",
"160 -92 OFFCURVE",
"142 86 OFFCURVE",
"142 235 CURVE SMOOTH"
);
}
);
width = 270;
}
);
unicode = 0028;
},
{
glyphname = parenright;
lastChange = "2016-04-07 19:09:02 +0000";
layers = (
{
layerId = UUID0;
name = Regular;
paths = (
{
closed = 1;
nodes = (
"128 384 OFFCURVE",
"110 564 OFFCURVE",
"16 696 CURVE",
"35 714 LINE",
"143 604 OFFCURVE",
"238 421 OFFCURVE",
"238 235 CURVE SMOOTH",
"238 49 OFFCURVE",
"143 -132 OFFCURVE",
"35 -242 CURVE",
"16 -224 LINE",
"110 -92 OFFCURVE",
"128 86 OFFCURVE",
"128 235 CURVE SMOOTH"
);
}
);
width = 270;
}
);
unicode = 0029;
},
{
glyphname = slash;
lastChange = "2016-04-07 19:09:02 +0000";
layers = (
{
layerId = UUID0;
name = Regular;
paths = (
{
closed = 1;
nodes = (
"32 -242 LINE",
"443 714 LINE",
"383 714 LINE",
"-27 -242 LINE"
);
}
);
width = 415;
}
);
unicode = 002F;
},
{
glyphname = plus;
lastChange = "2016-04-07 19:09:02 +0000";
layers = (
{
layerId = UUID0;
name = Regular;
paths = (
{
closed = 1;
nodes = (
"57 343 LINE",
"57 289 LINE",
"253 289 LINE",
"253 95 LINE",
"307 95 LINE",
"307 289 LINE",
"502 289 LINE",
"502 343 LINE",
"307 343 LINE",
"307 537 LINE",
"253 537 LINE",
"253 343 LINE"
);
}
);
width = 560;
}
);
unicode = 002B;
},
{
glyphname = minus;
lastChange = "2016-04-07 19:09:02 +0000";
layers = (
{
layerId = UUID0;
name = Regular;
paths = (
{
closed = 1;
nodes = (
"57 343 LINE",
"57 289 LINE",
"502 289 LINE",
"502 343 LINE"
);
}
);
width = 560;
}
);
unicode = 2212;
},
{
glyphname = asterisk;
lastChange = "2016-04-07 19:09:02 +0000";
layers = (
{
layerId = UUID0;
name = Regular;
paths = (
{
closed = 1;
nodes = (
"239 587 OFFCURVE",
"283 613 OFFCURVE",
"283 657 CURVE SMOOTH",
"283 683 OFFCURVE",
"268 714 OFFCURVE",
"228 714 CURVE SMOOTH",
"188 714 OFFCURVE",
"171 683 OFFCURVE",
"171 657 CURVE SMOOTH",
"171 613 OFFCURVE",
"215 586 OFFCURVE",
"215 522 CURVE",
"155 542 OFFCURVE",
"143 592 OFFCURVE",
"101 605 CURVE SMOOTH",
"76 613 OFFCURVE",
"42 609 OFFCURVE",
"29 571 CURVE SMOOTH",
"17 533 OFFCURVE",
"41 507 OFFCURVE",
"66 499 CURVE SMOOTH",
"108 485 OFFCURVE",
"147 519 OFFCURVE",
"208 499 CURVE",
"170 448 OFFCURVE",
"119 452 OFFCURVE",
"94 416 CURVE",
"78 395 OFFCURVE",
"72 362 OFFCURVE",
"104 337 CURVE",
"136 314 OFFCURVE",
"168 329 OFFCURVE",
"184 350 CURVE SMOOTH",
"210 386 OFFCURVE",
"190 434 OFFCURVE",
"228 485 CURVE",
"265 433 OFFCURVE",
"245 386 OFFCURVE",
"272 351 CURVE SMOOTH",
"287 330 OFFCURVE",
"316 314 OFFCURVE",
"350 336 CURVE",
"382 360 OFFCURVE",
"377 395 OFFCURVE",
"362 417 CURVE SMOOTH",
"336 452 OFFCURVE",
"284 448 OFFCURVE",
"248 500 CURVE",
"308 519 OFFCURVE",
"347 486 OFFCURVE",
"389 501 CURVE SMOOTH",
"413 509 OFFCURVE",
"437 531 OFFCURVE",
"427 570 CURVE",
"414 608 OFFCURVE",
"379 614 OFFCURVE",
"354 607 CURVE",
"312 593 OFFCURVE",
"300 541 OFFCURVE",
"239 523 CURVE"
);
}
);
width = 456;
}
);
unicode = 002A;
},
{
glyphname = numbersign;
lastChange = "2016-04-07 19:09:02 +0000";
layers = (
{
layerId = UUID0;
name = Regular;
paths = (
{
closed = 1;
nodes = (
"184 -17 LINE",
"220 197 LINE",
"397 197 LINE",
"362 -17 LINE",
"422 -17 LINE",
"458 197 LINE",
"603 197 LINE",
"612 262 LINE",
"469 262 LINE",
"500 447 LINE",
"643 447 LINE",
"652 512 LINE",
"511 512 LINE",
"545 714 LINE",
"485 714 LINE",
"451 512 LINE",
"273 512 LINE",
"307 714 LINE",
"247 714 LINE",
"213 512 LINE",
"64 512 LINE",
"55 447 LINE",
"202 447 LINE",
"171 262 LINE",
"22 262 LINE",
"13 197 LINE",
"160 197 LINE",
"124 -17 LINE"
);
},
{
closed = 1;
nodes = (
"262 447 LINE",
"439 447 LINE",
"409 262 LINE",
"231 262 LINE"
);
}
);
width = 666;
}
);
unicode = 0023;
},
{
glyphname = dollar;
lastChange = "2016-04-07 19:09:02 +0000";
layers = (
{
background = {
paths = (
{
closed = 1;
nodes = (
"263 -119 LINE",
"263 -17 LINE",
"404 -14 OFFCURVE",
"473 102 OFFCURVE",
"473 185 CURVE SMOOTH",
"473 300 OFFCURVE",
"401 366 OFFCURVE",
"263 419 CURVE",
"263 687 LINE",
"335 682 OFFCURVE",
"361 651 OFFCURVE",
"370 643 CURVE",
"370 641 LINE",
"328 641 OFFCURVE",
"295 615 OFFCURVE",
"295 569 CURVE SMOOTH",
"295 529 OFFCURVE",
"324 500 OFFCURVE",
"367 500 CURVE SMOOTH",
"414 500 OFFCURVE",
"440 534 OFFCURVE",
"440 573 CURVE SMOOTH",
"440 644 OFFCURVE",
"386 708 OFFCURVE",
"263 713 CURVE",
"263 807 LINE",
"235 807 LINE",
"235 713 LINE",
"117 709 OFFCURVE",
"30 624 OFFCURVE",
"30 511 CURVE SMOOTH",
"30 434 OFFCURVE",
"63 354 OFFCURVE",
"186 305 CURVE SMOOTH",
"204 297 OFFCURVE",
"220 291 OFFCURVE",
"235 284 CURVE",
"235 10 LINE",
"150 13 OFFCURVE",
"115 45 OFFCURVE",
"106 55 CURVE",
"106 57 LINE",
"148 57 OFFCURVE",
"179 81 OFFCURVE",
"179 127 CURVE SMOOTH",
"179 167 OFFCURVE",
"151 198 OFFCURVE",
"107 198 CURVE SMOOTH",
"61 198 OFFCURVE",
"34 160 OFFCURVE",
"34 121 CURVE SMOOTH",
"34 50 OFFCURVE",
"90 -11 OFFCURVE",
"235 -17 CURVE",
"235 -119 LINE"
);
},
{
closed = 1;
nodes = (
"98 633 OFFCURVE",
"153 683 OFFCURVE",
"235 687 CURVE",
"235 430 LINE",
"143 468 OFFCURVE",
"98 515 OFFCURVE",
"98 566 CURVE SMOOTH"
);
},
{
closed = 1;
nodes = (
"396 69 OFFCURVE",
"334 17 OFFCURVE",
"263 10 CURVE",
"263 271 LINE",
"375 218 OFFCURVE",
"396 183 OFFCURVE",
"396 131 CURVE SMOOTH"
);
}
);
};
layerId = UUID0;
name = Regular;
paths = (
{
closed = 1;
nodes = (
"235 -119 LINE",
"263 -119 LINE",
"263 -16 LINE",
"404 -8 OFFCURVE",
"473 88 OFFCURVE",
"473 179 CURVE SMOOTH",
"473 301 OFFCURVE",
"416 346 OFFCURVE",
"263 417 CURVE",
"263 687 LINE",
"333 682 OFFCURVE",
"365 651 OFFCURVE",
"373 642 CURVE",
"373 640 LINE",
"331 640 OFFCURVE",
"298 615 OFFCURVE",
"298 569 CURVE SMOOTH",
"298 529 OFFCURVE",
"327 499 OFFCURVE",
"370 499 CURVE SMOOTH",
"417 499 OFFCURVE",
"443 534 OFFCURVE",
"443 573 CURVE SMOOTH",
"443 644 OFFCURVE",
"384 708 OFFCURVE",
"263 713 CURVE",
"263 807 LINE",
"235 807 LINE",
"235 713 LINE",
"102 709 OFFCURVE",
"26 623 OFFCURVE",
"26 518 CURVE SMOOTH",
"26 434 OFFCURVE",
"57 356 OFFCURVE",
"186 301 CURVE",
"235 278 LINE",
"235 10 LINE",
"234 10 LINE SMOOTH",
"139 10 OFFCURVE",
"96 42 OFFCURVE",
"87 52 CURVE",
"87 54 LINE",
"129 54 OFFCURVE",
"159 78 OFFCURVE",
"159 124 CURVE SMOOTH",
"159 164 OFFCURVE",
"131 195 OFFCURVE",
"88 195 CURVE SMOOTH",
"41 195 OFFCURVE",
"14 160 OFFCURVE",
"14 118 CURVE SMOOTH",
"14 53 OFFCURVE",
"69 -15 OFFCURVE",
"235 -17 CURVE"
);
},
{
closed = 1;
nodes = (
"101 639 OFFCURVE",
"147 684 OFFCURVE",
"235 687 CURVE",
"235 430 LINE",
"116 485 OFFCURVE",
"101 527 OFFCURVE",
"101 572 CURVE SMOOTH"
);
},
{
closed = 1;
nodes = (
"395 61 OFFCURVE",
"332 21 OFFCURVE",
"263 12 CURVE",
"263 264 LINE",
"371 208 OFFCURVE",
"395 173 OFFCURVE",
"395 124 CURVE SMOOTH"
);
}
);
width = 493;
}
);
unicode = 0024;
},
{
glyphname = percent;
lastChange = "2016-04-07 19:09:02 +0000";
layers = (
{
layerId = UUID0;
name = Regular;
paths = (
{
closed = 1;
nodes = (
"517 231 OFFCURVE",
"525 329 OFFCURVE",
"598 329 CURVE SMOOTH",
"673 329 OFFCURVE",
"676 235 OFFCURVE",
"676 159 CURVE SMOOTH",
"676 100 OFFCURVE",
"668 10 OFFCURVE",
"596 10 CURVE SMOOTH",
"519 10 OFFCURVE",
"517 109 OFFCURVE",
"517 182 CURVE SMOOTH"
);
},
{
closed = 1;
nodes = (
"418 70 OFFCURVE",
"484 -17 OFFCURVE",
"600 -17 CURVE SMOOTH",
"699 -17 OFFCURVE",
"776 73 OFFCURVE",
"776 175 CURVE SMOOTH",
"776 261 OFFCURVE",
"720 355 OFFCURVE",
"601 355 CURVE SMOOTH",
"483 355 OFFCURVE",
"418 259 OFFCURVE",
"418 166 CURVE SMOOTH"
);
},
{
closed = 1;
nodes = (
"111 590 OFFCURVE",
"120 687 OFFCURVE",
"192 687 CURVE SMOOTH",
"268 687 OFFCURVE",
"271 593 OFFCURVE",
"271 518 CURVE SMOOTH",
"271 458 OFFCURVE",
"263 368 OFFCURVE",
"190 368 CURVE SMOOTH",
"114 368 OFFCURVE",
"111 467 OFFCURVE",
"111 541 CURVE SMOOTH"
);
},
{
closed = 1;
nodes = (
"13 428 OFFCURVE",
"79 341 OFFCURVE",
"194 341 CURVE SMOOTH",
"293 341 OFFCURVE",
"371 431 OFFCURVE",
"371 533 CURVE SMOOTH",
"371 620 OFFCURVE",
"314 714 OFFCURVE",
"195 714 CURVE SMOOTH",
"78 714 OFFCURVE",
"13 617 OFFCURVE",
"13 524 CURVE SMOOTH"
);
},
{
closed = 1;
nodes = (
"215 0 LINE",
"596 714 LINE",
"565 714 LINE",
"185 0 LINE"
);
}
);
width = 787;
}
);
unicode = 0025;
},
{
glyphname = colon;
lastChange = "2016-04-07 19:09:02 +0000";
layers = (
{
layerId = UUID0;
name = Regular;
paths = (
{
closed = 1;
nodes = (
"57 9 OFFCURVE",
"85 -17 OFFCURVE",
"125 -17 CURVE SMOOTH",
"166 -17 OFFCURVE",
"192 9 OFFCURVE",
"192 49 CURVE SMOOTH",
"192 90 OFFCURVE",
"166 117 OFFCURVE",
"125 117 CURVE SMOOTH",
"85 117 OFFCURVE",
"57 90 OFFCURVE",
"57 49 CURVE SMOOTH"
);
},
{
closed = 1;
nodes = (
"57 397 OFFCURVE",
"85 371 OFFCURVE",
"125 371 CURVE SMOOTH",
"166 371 OFFCURVE",
"192 397 OFFCURVE",
"192 437 CURVE SMOOTH",
"192 478 OFFCURVE",
"166 505 OFFCURVE",
"125 505 CURVE SMOOTH",
"85 505 OFFCURVE",
"57 478 OFFCURVE",
"57 437 CURVE SMOOTH"
);
}
);
width = 249;
}
);
leftKerningGroup = colon;
unicode = 003A;
},
{
glyphname = semicolon;
lastChange = "2016-04-07 19:09:02 +0000";
layers = (
{
layerId = UUID0;
name = Regular;
paths = (
{
closed = 1;
nodes = (
"57 397 OFFCURVE",
"85 371 OFFCURVE",
"125 371 CURVE SMOOTH",
"166 371 OFFCURVE",
"192 397 OFFCURVE",
"192 437 CURVE SMOOTH",
"192 478 OFFCURVE",
"166 505 OFFCURVE",
"125 505 CURVE SMOOTH",
"85 505 OFFCURVE",
"57 478 OFFCURVE",
"57 437 CURVE SMOOTH"
);
},
{
closed = 1;
nodes = (
"83 -141 LINE",
"173 -96 OFFCURVE",
"195 -26 OFFCURVE",
"195 29 CURVE SMOOTH",
"195 73 OFFCURVE",
"174 117 OFFCURVE",
"125 117 CURVE SMOOTH",
"77 117 OFFCURVE",
"60 77 OFFCURVE",
"60 50 CURVE SMOOTH",
"60 11 OFFCURVE",
"87 -17 OFFCURVE",
"121 -17 CURVE SMOOTH",
"131 -17 OFFCURVE",
"139 -16 OFFCURVE",
"151 -8 CURVE",
"153 -8 LINE",
"153 -36 OFFCURVE",
"138 -86 OFFCURVE",
"75 -116 CURVE"
);
}
);
width = 253;
}
);
leftKerningGroup = colon;
unicode = 003B;
},
{
glyphname = question;
lastChange = "2016-04-07 19:09:02 +0000";
layers = (
{
layerId = UUID0;
name = Regular;
paths = (
{
closed = 1;
nodes = (
"285 423 OFFCURVE",
"174 334 OFFCURVE",
"174 243 CURVE SMOOTH",
"174 228 OFFCURVE",
"177 213 OFFCURVE",
"184 198 CURVE",
"210 198 LINE",
"207 208 OFFCURVE",
"206 218 OFFCURVE",
"206 228 CURVE SMOOTH",
"206 336 OFFCURVE",
"397 408 OFFCURVE",
"397 548 CURVE SMOOTH",
"397 635 OFFCURVE",
"335 714 OFFCURVE",
"210 714 CURVE SMOOTH",
"62 714 OFFCURVE",
"9 626 OFFCURVE",
"9 565 CURVE SMOOTH",
"9 530 OFFCURVE",
"32 499 OFFCURVE",
"73 499 CURVE SMOOTH",
"112 499 OFFCURVE",
"136 525 OFFCURVE",
"136 561 CURVE SMOOTH",
"136 599 OFFCURVE",
"116 620 OFFCURVE",
"74 620 CURVE SMOOTH",
"67 620 LINE",
"67 623 LINE",
"73 646 OFFCURVE",
"117 686 OFFCURVE",
"177 686 CURVE SMOOTH",
"244 686 OFFCURVE",
"285 644 OFFCURVE",
"285 555 CURVE SMOOTH"
);
},
{
closed = 1;
nodes = (
"144 6 OFFCURVE",
"168 -17 OFFCURVE",
"204 -17 CURVE SMOOTH",
"240 -17 OFFCURVE",
"264 6 OFFCURVE",
"264 42 CURVE SMOOTH",
"264 79 OFFCURVE",
"240 103 OFFCURVE",
"204 103 CURVE SMOOTH",
"168 103 OFFCURVE",
"144 79 OFFCURVE",
"144 42 CURVE SMOOTH"
);
}
);
width = 414;
}
);
unicode = 003F;
},
{
glyphname = less;
lastChange = "2016-04-07 19:09:02 +0000";
layers = (
{
layerId = UUID0;
name = Regular;
paths = (
{
closed = 1;
nodes = (
"8 298 LINE",
"453 85 LINE",
"453 145 LINE",
"88 314 LINE",
"88 315 LINE",
"453 484 LINE",
"453 544 LINE",
"8 327 LINE"
);
}
);
width = 497;
}
);
unicode = 003C;
},
{
glyphname = at;
lastChange = "2016-04-07 19:09:02 +0000";
layers = (
{
layerId = UUID0;
name = Regular;
paths = (
{
closed = 1;
nodes = (
"465 488 LINE",
"462 464 LINE",
"443 480 OFFCURVE",
"414 497 OFFCURVE",
"371 497 CURVE SMOOTH",
"234 497 OFFCURVE",
"194 349 OFFCURVE",
"194 238 CURVE SMOOTH",
"194 134 OFFCURVE",
"249 77 OFFCURVE",
"328 77 CURVE SMOOTH",
"356 77 OFFCURVE",
"403 88 OFFCURVE",
"435 129 CURVE",
"447 88 OFFCURVE",
"486 72 OFFCURVE",
"532 72 CURVE SMOOTH",
"613 72 OFFCURVE",
"709 148 OFFCURVE",
"709 317 CURVE SMOOTH",
"709 503 OFFCURVE",
"578 642 OFFCURVE",
"393 642 CURVE SMOOTH",
"170 642 OFFCURVE",
"38 474 OFFCURVE",
"38 267 CURVE SMOOTH",
"38 58 OFFCURVE",
"162 -95 OFFCURVE",
"387 -95 CURVE SMOOTH",
"473 -95 OFFCURVE",
"569 -67 OFFCURVE",
"646 16 CURVE",
"628 32 LINE",
"561 -42 OFFCURVE",
"477 -68 OFFCURVE",
"385 -68 CURVE SMOOTH",
"166 -68 OFFCURVE",
"70 95 OFFCURVE",
"70 275 CURVE SMOOTH",
"70 452 OFFCURVE",
"194 614 OFFCURVE",
"378 614 CURVE SMOOTH",
"565 614 OFFCURVE",
"676 487 OFFCURVE",
"676 309 CURVE SMOOTH",
"676 193 OFFCURVE",
"611 98 OFFCURVE",
"544 98 CURVE SMOOTH",
"517 98 OFFCURVE",
"501 110 OFFCURVE",
"501 153 CURVE SMOOTH",
"501 207 OFFCURVE",
"524 368 OFFCURVE",
"537 481 CURVE"
);
},
{
closed = 1;
nodes = (
"417 469 OFFCURVE",
"442 453 OFFCURVE",
"458 435 CURVE",
"447 332 OFFCURVE",
"431 204 OFFCURVE",
"431 158 CURVE",
"407 129 OFFCURVE",
"379 114 OFFCURVE",
"352 114 CURVE SMOOTH",
"297 114 OFFCURVE",
"269 164 OFFCURVE",
"269 233 CURVE SMOOTH",
"269 347 OFFCURVE",
"296 469 OFFCURVE",
"380 469 CURVE SMOOTH"
);
},
{
closed = 1;
nodes = (
"478 402 LINE",
"478 402 OFFCURVE",
"478 403 OFFCURVE",
"478 403 CURVE SMOOTH",
"478 403 OFFCURVE",
"478 403 OFFCURVE",
"478 403 CURVE"
);
}
);
width = 736;
}
);
unicode = 0040;
},
{
glyphname = greater;
lastChange = "2016-04-07 19:09:02 +0000";
layers = (
{
layerId = UUID0;
name = Regular;
paths = (
{
closed = 1;
nodes = (
"489 331 LINE",
"44 544 LINE",
"44 484 LINE",
"409 315 LINE",
"409 314 LINE",
"44 145 LINE",
"44 85 LINE",
"489 302 LINE"
);
}
);
width = 497;
}
);
unicode = 003E;
},
{
glyphname = equal;
lastChange = "2016-04-07 19:09:02 +0000";
layers = (
{
layerId = UUID0;
name = Regular;
paths = (
{
closed = 1;
nodes = (
"57 443 LINE",
"57 390 LINE",
"502 390 LINE",
"502 443 LINE"
);
},
{
closed = 1;
nodes = (
"57 248 LINE",
"57 194 LINE",
"502 194 LINE",
"502 248 LINE"
);
}
);
width = 560;
}
);
unicode = 003D;
},
{
glyphname = ampersand;
lastChange = "2016-04-07 19:09:02 +0000";
layers = (
{
layerId = UUID0;
name = Regular;
paths = (
{
closed = 1;
nodes = (
"508 342 LINE SMOOTH",
"313 342 OFFCURVE",
"304 230 OFFCURVE",
"304 193 CURVE SMOOTH",
"304 122 OFFCURVE",
"346 101 OFFCURVE",
"380 101 CURVE SMOOTH",
"410 101 OFFCURVE",
"436 122 OFFCURVE",
"436 154 CURVE SMOOTH",
"436 188 OFFCURVE",
"410 205 OFFCURVE",
"383 205 CURVE SMOOTH",
"371 205 OFFCURVE",
"350 198 OFFCURVE",
"340 182 CURVE",
"339 182 LINE",
"334 185 OFFCURVE",
"329 193 OFFCURVE",
"329 204 CURVE SMOOTH",
"329 220 OFFCURVE",
"334 250 OFFCURVE",
"419 250 CURVE SMOOTH",
"518 250 LINE SMOOTH",
"524 250 OFFCURVE",
"531 250 OFFCURVE",
"538 250 CURVE",
"538 241 OFFCURVE",
"538 231 OFFCURVE",
"538 223 CURVE SMOOTH",
"538 50 OFFCURVE",
"410 15 OFFCURVE",
"351 15 CURVE SMOOTH",
"251 15 OFFCURVE",
"199 83 OFFCURVE",
"199 206 CURVE SMOOTH",
"199 273 OFFCURVE",
"220 383 OFFCURVE",
"351 383 CURVE SMOOTH",
"360 383 LINE",
"360 410 LINE",
"353 410 LINE SMOOTH",
"274 410 OFFCURVE",
"225 460 OFFCURVE",
"225 555 CURVE SMOOTH",
"225 634 OFFCURVE",
"258 686 OFFCURVE",
"334 686 CURVE SMOOTH",
"374 686 OFFCURVE",
"409 670 OFFCURVE",
"421 646 CURVE",
"421 645 LINE",
"379 643 OFFCURVE",
"355 615 OFFCURVE",
"355 580 CURVE SMOOTH",
"355 538 OFFCURVE",
"383 510 OFFCURVE",
"420 510 CURVE SMOOTH",
"469 510 OFFCURVE",
"491 546 OFFCURVE",
"491 581 CURVE SMOOTH",
"491 586 LINE SMOOTH",
"491 604 OFFCURVE",
"473 714 OFFCURVE",
"313 714 CURVE SMOOTH",
"152 714 OFFCURVE",
"102 612 OFFCURVE",
"102 543 CURVE SMOOTH",
"102 432 OFFCURVE",
"205 400 OFFCURVE",
"286 398 CURVE",
"286 397 LINE",
"146 385 OFFCURVE",
"68 296 OFFCURVE",
"68 189 CURVE SMOOTH",
"68 79 OFFCURVE",
"131 -17 OFFCURVE",
"326 -17 CURVE SMOOTH",
"495 -17 OFFCURVE",
"565 87 OFFCURVE",
"565 221 CURVE SMOOTH",
"565 231 OFFCURVE",
"564 241 OFFCURVE",
"563 252 CURVE",
"714 268 OFFCURVE",
"722 364 OFFCURVE",
"722 398 CURVE SMOOTH",
"722 470 OFFCURVE",
"680 491 OFFCURVE",
"645 491 CURVE SMOOTH",
"616 491 OFFCURVE",
"590 469 OFFCURVE",
"590 438 CURVE SMOOTH",
"590 403 OFFCURVE",
"616 387 OFFCURVE",
"643 387 CURVE SMOOTH",
"655 387 OFFCURVE",
"676 394 OFFCURVE",
"685 409 CURVE",
"687 409 LINE",
"691 407 OFFCURVE",
"697 398 OFFCURVE",
"697 388 CURVE SMOOTH",
"697 371 OFFCURVE",
"691 342 OFFCURVE",
"606 342 CURVE SMOOTH"
);
}
);
width = 732;
}
);
unicode = 0026;
},
{
glyphname = asciicircum;
lastChange = "2016-04-07 19:09:02 +0000";
layers = (
{
layerId = UUID0;
name = Regular;
paths = (
{
closed = 1;
nodes = (
"310 714 LINE",
"39 464 LINE",
"101 464 LINE",
"316 661 LINE",
"317 661 LINE",
"532 464 LINE",
"595 464 LINE",
"328 714 LINE"
);
}
);
width = 634;
}
);
unicode = 005E;
},
{
glyphname = bracketleft;
lastChange = "2016-04-07 19:09:02 +0000";
layers = (
{
layerId = UUID0;
name = Regular;
paths = (
{
closed = 1;
nodes = (
"74 -242 LINE",
"249 -242 LINE",
"249 -212 LINE",
"169 -212 LINE",
"169 684 LINE",
"247 685 LINE",
"247 714 LINE",
"75 714 LINE"
);
}
);
width = 267;
}
);
unicode = 005B;
},
{
glyphname = bracketright;
lastChange = "2016-04-07 19:09:02 +0000";
layers = (
{
layerId = UUID0;
name = Regular;
paths = (
{
closed = 1;
nodes = (
"193 -242 LINE",
"18 -242 LINE",
"18 -212 LINE",
"98 -212 LINE",
"98 684 LINE",
"20 685 LINE",
"20 714 LINE",
"192 714 LINE"
);
}
);
width = 267;
}
);
unicode = 005D;
},
{
glyphname = underscore;
lastChange = "2016-04-07 19:09:02 +0000";
layers = (
{
layerId = UUID0;
name = Regular;
paths = (
{
closed = 1;
nodes = (
"32 -96 LINE",
"500 -96 LINE",
"500 -54 LINE",
"32 -54 LINE"
);
}
);
width = 533;
}
);
unicode = 005F;
},
{
glyphname = backslash;
lastChange = "2016-04-07 19:09:02 +0000";
layers = (
{
layerId = UUID0;
name = Regular;
paths = (
{
closed = 1;
nodes = (
"383 -242 LINE",
"-28 714 LINE",
"32 714 LINE",
"442 -242 LINE"
);
}
);
width = 415;
}
);
unicode = 005C;
},
{
glyphname = grave;
lastChange = "2016-04-07 19:09:02 +0000";
layers = (
{
anchors = (
{
name = _top;
position = "{131, 534}";
}
);
layerId = UUID0;
name = Regular;
paths = (
{
closed = 1;
nodes = (
"165 571 LINE",
"183 583 LINE",
"129 739 LINE",
"123 757 OFFCURVE",
"106 772 OFFCURVE",
"85 772 CURVE SMOOTH",
"60 772 OFFCURVE",
"42 752 OFFCURVE",
"42 727 CURVE SMOOTH",
"42 712 OFFCURVE",
"47 698 OFFCURVE",
"56 688 CURVE SMOOTH"
);
}
);
width = 238;
}
);
unicode = 0060;
},
{
glyphname = w;
lastChange = "2016-04-07 19:09:02 +0000";
layers = (
{
layerId = UUID0;
name = Regular;
paths = (
{
closed = 1;
nodes = (
"647 465 LINE",
"542 156 LINE",
"540 156 LINE",
"437 465 LINE",
"490 470 LINE",
"490 490 LINE",
"271 490 LINE",
"271 470 LINE",
"315 465 LINE",
"350 373 LINE",
"274 160 LINE",
"272 160 LINE",
"172 465 LINE",
"221 470 LINE",
"221 490 LINE",
"-6 490 LINE",
"-6 470 LINE",
"42 465 LINE",
"223 -5 LINE",
"246 -5 LINE",
"364 337 LINE",
"492 -5 LINE",
"514 -5 LINE",
"675 465 LINE",
"726 470 LINE",
"726 490 LINE",
"591 490 LINE",
"591 470 LINE"
);
}
);
width = 721;
}
);
unicode = 0077;
},
{
glyphname = ring;
lastChange = "2016-04-07 19:09:02 +0000";
layers = (
{
anchors = (
{
name = _top;
position = "{132, 534}";
}
);
layerId = UUID0;
name = Regular;
paths = (
{
closed = 1;
nodes = (
"18 615 OFFCURVE",
"63 574 OFFCURVE",
"131 574 CURVE SMOOTH",
"199 574 OFFCURVE",
"247 615 OFFCURVE",
"247 673 CURVE SMOOTH",
"247 731 OFFCURVE",
"199 774 OFFCURVE",
"131 774 CURVE SMOOTH",
"68 774 OFFCURVE",
"18 731 OFFCURVE",
"18 673 CURVE SMOOTH"
);
},
{
closed = 1;
nodes = (
"90 713 OFFCURVE",
"101 750 OFFCURVE",
"131 750 CURVE SMOOTH",
"163 750 OFFCURVE",
"174 713 OFFCURVE",
"174 673 CURVE SMOOTH",
"174 634 OFFCURVE",
"163 599 OFFCURVE",
"131 599 CURVE SMOOTH",
"101 599 OFFCURVE",
"90 634 OFFCURVE",
"90 673 CURVE SMOOTH"
);
}
);
width = 265;
}
);
unicode = 02DA;
},
{
glyphname = Eth;
lastChange = "2016-04-07 19:09:02 +0000";
layers = (
{
layerId = UUID0;
name = Regular;
paths = (
{
closed = 1;
nodes = (
"299 0 LINE SMOOTH",
"544 0 OFFCURVE",
"644 152 OFFCURVE",
"644 345 CURVE SMOOTH",
"644 556 OFFCURVE",
"553 697 OFFCURVE",
"283 697 CURVE SMOOTH",
"37 697 LINE",
"37 675 LINE",
"112 670 LINE",
"112 369 LINE",
"25 369 LINE",
"25 338 LINE",
"112 338 LINE",
"112 27 LINE",
"37 22 LINE",
"37 0 LINE"
);
},
{
closed = 1;
nodes = (
"274 27 OFFCURVE",
"258 28 OFFCURVE",
"237 32 CURVE",
"237 338 LINE",
"338 338 LINE",
"338 372 LINE",
"237 372 LINE",
"237 665 LINE",
"258 669 OFFCURVE",
"277 670 OFFCURVE",
"291 670 CURVE SMOOTH",
"475 670 OFFCURVE",
"514 530 OFFCURVE",
"514 353 CURVE SMOOTH",
"514 166 OFFCURVE",
"454 27 OFFCURVE",
"285 27 CURVE SMOOTH"
);
}
);
width = 694;
}
);
leftKerningGroup = I;
rightKerningGroup = D;
unicode = 00D0;
},
{
glyphname = eth;
lastChange = "2016-04-07 19:09:02 +0000";
layers = (
{
layerId = UUID0;
name = Regular;
paths = (
{
closed = 1;
nodes = (
"153 594 LINE",
"170 579 LINE",
"227 649 LINE",
"285 613 OFFCURVE",
"318 550 OFFCURVE",
"337 483 CURVE",
"309 497 OFFCURVE",
"278 500 OFFCURVE",
"253 500 CURVE SMOOTH",
"129 500 OFFCURVE",
"39 386 OFFCURVE",
"39 242 CURVE SMOOTH",
"39 108 OFFCURVE",
"104 -15 OFFCURVE",
"261 -15 CURVE SMOOTH",
"394 -15 OFFCURVE",
"484 81 OFFCURVE",
"484 272 CURVE SMOOTH",
"484 438 OFFCURVE",
"398 614 OFFCURVE",
"250 680 CURVE",
"297 739 LINE",
"272 759 LINE",
"223 690 LINE",
"191 701 OFFCURVE",
"157 707 OFFCURVE",
"120 707 CURVE SMOOTH",
"114 707 OFFCURVE",
"108 707 OFFCURVE",
"102 707 CURVE",
"102 682 LINE",
"141 682 OFFCURVE",
"174 675 OFFCURVE",
"202 663 CURVE"
);
},
{
closed = 1;
nodes = (
"361 107 OFFCURVE",
"333 7 OFFCURVE",
"259 7 CURVE SMOOTH",
"188 7 OFFCURVE",
"164 108 OFFCURVE",
"164 248 CURVE SMOOTH",
"164 389 OFFCURVE",
"187 474 OFFCURVE",
"279 474 CURVE SMOOTH",
"303 474 OFFCURVE",
"327 465 OFFCURVE",
"345 450 CURVE",
"361 373 OFFCURVE",
"361 293 OFFCURVE",
"361 242 CURVE SMOOTH"
);
}
);
width = 538;
}
);
leftKerningGroup = o;
unicode = 00F0;
},
{
glyphname = acute;
lastChange = "2016-04-07 19:09:02 +0000";
layers = (
{
anchors = (
{
name = _top;
position = "{121, 490}";
}
);
layerId = UUID0;
name = Regular;
paths = (
{
closed = 1;
nodes = (
"186 682 LINE SMOOTH",
"195 691 OFFCURVE",
"201 706 OFFCURVE",
"201 721 CURVE SMOOTH",
"201 746 OFFCURVE",
"182 766 OFFCURVE",
"157 766 CURVE SMOOTH",
"136 766 OFFCURVE",
"119 751 OFFCURVE",
"113 732 CURVE",
"59 577 LINE",
"77 564 LINE"
);
}
);
width = 238;
}
);
unicode = 00B4;
},
{
glyphname = Thorn;
lastChange = "2016-04-07 19:09:02 +0000";
layers = (
{
layerId = UUID0;
name = Regular;
paths = (
{
closed = 1;
nodes = (
"311 697 LINE",
"36 697 LINE",
"36 675 LINE",
"111 670 LINE",
"111 27 LINE",
"36 22 LINE",
"36 0 LINE",
"311 0 LINE",
"311 22 LINE",
"236 27 LINE",
"236 148 LINE",
"247 148 OFFCURVE",
"258 147 OFFCURVE",
"267 147 CURVE SMOOTH",
"421 147 OFFCURVE",
"560 208 OFFCURVE",
"560 369 CURVE SMOOTH",
"560 509 OFFCURVE",
"439 566 OFFCURVE",
"300 566 CURVE SMOOTH",
"236 566 LINE",
"236 670 LINE",
"311 675 LINE"
);
},
{
closed = 1;
nodes = (
"259 174 OFFCURVE",
"247 175 OFFCURVE",
"236 176 CURVE",
"236 533 LINE",
"256 536 OFFCURVE",
"276 537 OFFCURVE",
"287 537 CURVE SMOOTH",
"367 537 OFFCURVE",
"430 500 OFFCURVE",
"430 370 CURVE SMOOTH",
"430 253 OFFCURVE",
"387 174 OFFCURVE",
"270 174 CURVE SMOOTH"
);
}
);
width = 590;
}
);
leftKerningGroup = I;
unicode = 00DE;
},
{
glyphname = thorn;
lastChange = "2016-04-07 19:09:02 +0000";
layers = (
{
layerId = UUID0;
name = Regular;
paths = (
{
closed = 1;
nodes = (
"191 693 LINE",
"183 707 LINE",
"114 689 LINE",
"12 678 LINE",
"12 658 LINE",
"72 658 LINE",
"72 -207 LINE",
"21 -212 LINE",
"21 -232 LINE",
"242 -232 LINE",
"242 -212 LINE",
"191 -207 LINE",
"191 10 LINE",
"217 -10 OFFCURVE",
"252 -15 OFFCURVE",
"271 -15 CURVE SMOOTH",
"422 -15 OFFCURVE",
"493 106 OFFCURVE",
"493 250 CURVE SMOOTH",
"493 467 OFFCURVE",
"370 505 OFFCURVE",
"324 505 CURVE SMOOTH",
"271 505 OFFCURVE",
"230 485 OFFCURVE",
"193 422 CURVE",
"191 422 LINE"
);
},
{
closed = 1;
nodes = (
"333 466 OFFCURVE",
"368 421 OFFCURVE",
"368 257 CURVE SMOOTH",
"368 165 OFFCURVE",
"364 11 OFFCURVE",
"251 11 CURVE SMOOTH",
"232 11 OFFCURVE",
"209 20 OFFCURVE",
"191 36 CURVE",
"191 341 LINE SMOOTH",
"191 403 OFFCURVE",
"232 466 OFFCURVE",
"282 466 CURVE SMOOTH"
);
}
);
width = 533;
}
);
leftKerningGroup = b;
rightKerningGroup = b;
unicode = 00FE;
},
{
glyphname = multiply;
lastChange = "2016-04-07 19:09:02 +0000";
layers = (
{
layerId = UUID0;
name = Regular;
paths = (
{
closed = 1;
nodes = (
"241 316 LINE",
"57 147 LINE",
"93 109 LINE",
"278 281 LINE",
"466 104 LINE",
"502 144 LINE",
"317 317 LINE",
"502 489 LINE",
"471 527 LINE",
"280 352 LINE",
"93 528 LINE",
"57 489 LINE"
);
}
);
width = 560;
}
);
unicode = 00D7;
},
{
glyphname = caron;
lastChange = "2016-04-07 19:09:02 +0000";
layers = (
{
anchors = (
{
name = _top;
position = "{160, 534}";
}
);
layerId = UUID0;
name = Regular;
paths = (
{
closed = 1;
nodes = (
"161 560 LINE",
"300 754 LINE",
"280 773 LINE",
"167 661 LINE",
"165 661 LINE",
"57 774 LINE",
"34 752 LINE",
"158 560 LINE"
);
}
);
width = 320;
}
);
unicode = 02C7;
},
{
glyphname = bar;
lastChange = "2016-04-07 19:09:02 +0000";
layers = (
{
layerId = UUID0;
name = Regular;
paths = (
{
closed = 1;
nodes = (
"134 -242 LINE",
"134 714 LINE",
"74 714 LINE",
"74 -242 LINE"
);
}
);
width = 208;
}
);
unicode = 007C;
},
{
glyphname = braceleft;
lastChange = "2016-04-07 19:09:02 +0000";
layers = (
{
layerId = UUID0;
name = Regular;
paths = (
{
closed = 1;
nodes = (
"68 237 LINE",
"150 251 OFFCURVE",
"214 293 OFFCURVE",
"214 375 CURVE SMOOTH",
"214 474 OFFCURVE",
"205 516 OFFCURVE",
"205 547 CURVE SMOOTH",
"205 636 OFFCURVE",
"234 688 OFFCURVE",
"324 688 CURVE SMOOTH",
"330 688 LINE",
"330 714 LINE",
"302 714 LINE SMOOTH",
"165 714 OFFCURVE",
"108 641 OFFCURVE",
"108 507 CURVE SMOOTH",
"108 461 OFFCURVE",
"113 411 OFFCURVE",
"113 366 CURVE SMOOTH",
"113 309 OFFCURVE",
"98 251 OFFCURVE",
"19 251 CURVE SMOOTH",
"-4 251 LINE",
"-4 222 LINE",
"19 222 LINE SMOOTH",
"98 222 OFFCURVE",
"113 164 OFFCURVE",
"113 106 CURVE SMOOTH",
"113 62 OFFCURVE",
"108 12 OFFCURVE",
"108 -34 CURVE SMOOTH",
"108 -168 OFFCURVE",
"165 -242 OFFCURVE",
"302 -242 CURVE SMOOTH",
"330 -242 LINE",
"330 -215 LINE",
"324 -215 LINE SMOOTH",
"234 -215 OFFCURVE",
"205 -163 OFFCURVE",
"205 -75 CURVE SMOOTH",
"205 -44 OFFCURVE",
"214 -1 OFFCURVE",
"214 98 CURVE SMOOTH",
"214 180 OFFCURVE",
"150 221 OFFCURVE",
"68 235 CURVE"
);
}
);
width = 334;
}
);
unicode = 007B;
},
{
glyphname = braceright;
lastChange = "2016-04-07 19:09:02 +0000";
layers = (
{
layerId = UUID0;
name = Regular;
paths = (
{
closed = 1;
nodes = (
"267 235 LINE",
"184 221 OFFCURVE",
"120 179 OFFCURVE",
"120 98 CURVE SMOOTH",
"120 -2 OFFCURVE",
"129 -44 OFFCURVE",
"129 -75 CURVE SMOOTH",
"129 -164 OFFCURVE",
"101 -215 OFFCURVE",
"10 -215 CURVE SMOOTH",
"4 -215 LINE",
"4 -242 LINE",
"32 -242 LINE SMOOTH",
"169 -242 OFFCURVE",
"227 -169 OFFCURVE",
"227 -35 CURVE SMOOTH",
"227 11 OFFCURVE",
"221 62 OFFCURVE",
"221 106 CURVE SMOOTH",
"221 163 OFFCURVE",
"237 221 OFFCURVE",
"316 221 CURVE SMOOTH",
"339 221 LINE",
"339 250 LINE",
"316 250 LINE SMOOTH",
"237 250 OFFCURVE",
"221 309 OFFCURVE",
"221 366 CURVE SMOOTH",
"221 410 OFFCURVE",
"227 460 OFFCURVE",
"227 506 CURVE SMOOTH",
"227 641 OFFCURVE",
"169 714 OFFCURVE",
"32 714 CURVE SMOOTH",
"4 714 LINE",
"4 688 LINE",
"10 688 LINE SMOOTH",
"101 688 OFFCURVE",
"129 635 OFFCURVE",
"129 547 CURVE SMOOTH",
"129 516 OFFCURVE",
"120 474 OFFCURVE",
"120 374 CURVE SMOOTH",
"120 292 OFFCURVE",
"184 251 OFFCURVE",
"267 237 CURVE"
);
}
);
width = 334;
}
);
unicode = 007D;
},
{
glyphname = asciitilde;
lastChange = "2016-04-07 19:09:02 +0000";
layers = (
{
layerId = UUID0;
name = Regular;
paths = (
{
closed = 1;
nodes = (
"104 372 OFFCURVE",
"68 292 OFFCURVE",
"46 219 CURVE",
"74 219 LINE",
"87 254 OFFCURVE",
"99 277 OFFCURVE",
"143 277 CURVE SMOOTH",
"203 277 OFFCURVE",
"277 213 OFFCURVE",
"357 213 CURVE SMOOTH",
"441 213 OFFCURVE",
"477 297 OFFCURVE",
"494 371 CURVE",
"466 371 LINE",
"453 335 OFFCURVE",
"429 311 OFFCURVE",
"390 311 CURVE SMOOTH",
"306 311 OFFCURVE",
"270 372 OFFCURVE",
"197 372 CURVE SMOOTH"
);
}
);
width = 538;
}
);
unicode = 007E;
},
{
glyphname = dieresis;
lastChange = "2016-04-07 19:09:02 +0000";
layers = (
{
anchors = (
{
name = _top;
position = "{181, 534}";
}
);
layerId = UUID0;
name = Regular;
paths = (
{
closed = 1;
nodes = (
"207 636 OFFCURVE",
"229 608 OFFCURVE",
"263 608 CURVE SMOOTH",
"298 608 OFFCURVE",
"320 636 OFFCURVE",
"320 673 CURVE SMOOTH",
"320 710 OFFCURVE",
"298 738 OFFCURVE",
"263 738 CURVE SMOOTH",
"229 738 OFFCURVE",
"207 710 OFFCURVE",
"207 673 CURVE SMOOTH"
);
},
{
closed = 1;
nodes = (
"39 636 OFFCURVE",
"61 608 OFFCURVE",
"96 608 CURVE SMOOTH",
"130 608 OFFCURVE",
"153 636 OFFCURVE",
"153 673 CURVE SMOOTH",
"153 710 OFFCURVE",
"130 738 OFFCURVE",
"96 738 CURVE SMOOTH",
"61 738 OFFCURVE",
"39 710 OFFCURVE",
"39 673 CURVE SMOOTH"
);
}
);
width = 359;
}
);
unicode = 00A8;
},
{
glyphname = cedilla;
lastChange = "2016-04-07 19:09:02 +0000";
layers = (
{
layerId = UUID0;
name = Regular;
paths = (
{
closed = 1;
nodes = (
"146 -57 OFFCURVE",
"117 -64 OFFCURVE",
"98 -76 CURVE",
"125 8 LINE",
"92 8 LINE",
"63 -95 LINE",
"77 -111 LINE",
"90 -102 OFFCURVE",
"107 -97 OFFCURVE",
"123 -97 CURVE SMOOTH",
"140 -97 OFFCURVE",
"154 -110 OFFCURVE",
"154 -131 CURVE SMOOTH",
"154 -170 OFFCURVE",
"107 -213 OFFCURVE",
"39 -225 CURVE",
"45 -251 LINE",
"113 -241 OFFCURVE",
"236 -204 OFFCURVE",
"236 -123 CURVE SMOOTH",
"236 -82 OFFCURVE",
"210 -57 OFFCURVE",
"169 -57 CURVE SMOOTH"
);
}
);
width = 275;
}
);
unicode = 00B8;
},
{
glyphname = cedilla.case;
lastChange = "2016-04-07 19:28:12 +0000";
layers = (
{
anchors = (
{
name = _bottom;
position = "{104, 0}";
}
);
layerId = UUID0;
name = Regular;
paths = (
{
closed = 1;
nodes = (
"146 -66 OFFCURVE",
"113 -73 OFFCURVE",
"93 -83 CURVE",
"123 8 LINE",
"89 8 LINE",
"61 -106 LINE",
"77 -120 LINE",
"90 -111 OFFCURVE",
"107 -105 OFFCURVE",
"123 -105 CURVE SMOOTH",
"144 -105 OFFCURVE",
"154 -120 OFFCURVE",
"154 -141 CURVE SMOOTH",
"154 -180 OFFCURVE",
"115 -238 OFFCURVE",
"41 -249 CURVE",
"44 -273 LINE",
"113 -264 OFFCURVE",
"240 -213 OFFCURVE",
"240 -132 CURVE SMOOTH",
"240 -91 OFFCURVE",
"210 -66 OFFCURVE",
"169 -66 CURVE SMOOTH"
);
}
);
width = 275;
}
);
},
{
glyphname = tilde;
lastChange = "2016-04-07 19:09:02 +0000";
layers = (
{
anchors = (
{
name = _top;
position = "{202, 534}";
}
);
layerId = UUID0;
name = Regular;
paths = (
{
closed = 1;
nodes = (
"187 662 OFFCURVE",
"200 617 OFFCURVE",
"259 617 CURVE SMOOTH",
"304 617 OFFCURVE",
"346 651 OFFCURVE",
"360 725 CURVE",
"341 731 LINE",
"314 691 OFFCURVE",
"284 687 OFFCURVE",
"265 687 CURVE SMOOTH",
"217 687 OFFCURVE",
"209 728 OFFCURVE",
"150 728 CURVE SMOOTH",
"93 728 OFFCURVE",
"57 677 OFFCURVE",
"44 630 CURVE",
"62 623 LINE",
"88 655 OFFCURVE",
"117 662 OFFCURVE",
"141 662 CURVE SMOOTH"
);
}
);
width = 394;
}
);
unicode = 02DC;
},
{
glyphname = circumflex;
lastChange = "2016-04-07 19:09:02 +0000";
layers = (
{
anchors = (
{
name = _top;
position = "{169, 534}";
}
);
layerId = UUID0;
name = Regular;
paths = (
{
closed = 1;
nodes = (
"174 774 LINE",
"44 590 LINE",
"81 570 LINE",
"168 673 LINE",
"170 673 LINE",
"251 570 LINE",
"291 592 LINE",
"176 774 LINE"
);
}
);
width = 339;
}
);
unicode = 02C6;
},
{
glyphname = dagger;
lastChange = "2016-04-07 19:09:02 +0000";
layers = (
{
layerId = UUID0;
name = Regular;
paths = (
{
closed = 1;
nodes = (
"230 137 OFFCURVE",
"244 176 OFFCURVE",
"269 249 CURVE",
"253 286 OFFCURVE",
"238 333 OFFCURVE",
"228 408 CURVE",
"277 408 OFFCURVE",
"324 393 OFFCURVE",
"373 387 CURVE SMOOTH",
"379 386 OFFCURVE",
"387 385 OFFCURVE",
"395 385 CURVE SMOOTH",
"420 385 OFFCURVE",
"446 393 OFFCURVE",
"446 422 CURVE SMOOTH",
"446 451 OFFCURVE",
"421 458 OFFCURVE",
"395 458 CURVE SMOOTH",
"387 458 OFFCURVE",
"380 458 OFFCURVE",
"373 457 CURVE SMOOTH",
"324 450 OFFCURVE",
"276 435 OFFCURVE",
"227 435 CURVE",
"237 571 OFFCURVE",
"261 599 OFFCURVE",
"261 650 CURVE SMOOTH",
"261 680 OFFCURVE",
"250 714 OFFCURVE",
"217 714 CURVE SMOOTH",
"183 714 OFFCURVE",
"170 679 OFFCURVE",
"170 649 CURVE SMOOTH",
"170 599 OFFCURVE",
"194 567 OFFCURVE",
"204 435 CURVE",
"155 435 OFFCURVE",
"107 450 OFFCURVE",
"59 457 CURVE SMOOTH",
"51 458 OFFCURVE",
"43 458 OFFCURVE",
"36 458 CURVE SMOOTH",
"10 458 OFFCURVE",
"-15 451 OFFCURVE",
"-15 422 CURVE SMOOTH",
"-15 393 OFFCURVE",
"11 385 OFFCURVE",
"37 385 CURVE SMOOTH",
"44 385 OFFCURVE",
"51 386 OFFCURVE",
"59 387 CURVE SMOOTH",
"107 393 OFFCURVE",
"154 408 OFFCURVE",
"203 409 CURVE",
"193 334 OFFCURVE",
"178 286 OFFCURVE",
"163 249 CURVE",
"187 176 OFFCURVE",
"201 135 OFFCURVE",
"201 57 CURVE SMOOTH",
"201 -78 OFFCURVE",
"170 -126 OFFCURVE",
"170 -177 CURVE SMOOTH",
"170 -207 OFFCURVE",
"183 -242 OFFCURVE",
"217 -242 CURVE SMOOTH",
"250 -242 OFFCURVE",
"261 -208 OFFCURVE",
"261 -178 CURVE SMOOTH",
"261 -126 OFFCURVE",
"230 -82 OFFCURVE",
"230 57 CURVE SMOOTH"
);
}
);
width = 430;
}
);
unicode = 2020;
},
{
glyphname = daggerdbl;
lastChange = "2016-04-07 19:09:02 +0000";
layers = (
{
layerId = UUID0;
name = Regular;
paths = (
{
closed = 1;
nodes = (
"209 202 OFFCURVE",
"224 139 OFFCURVE",
"235 64 CURVE",
"186 64 OFFCURVE",
"139 79 OFFCURVE",
"90 85 CURVE SMOOTH",
"83 86 OFFCURVE",
"76 87 OFFCURVE",
"68 87 CURVE SMOOTH",
"42 87 OFFCURVE",
"17 80 OFFCURVE",
"17 50 CURVE SMOOTH",
"17 21 OFFCURVE",
"41 14 OFFCURVE",
"67 14 CURVE SMOOTH",
"75 14 OFFCURVE",
"83 15 OFFCURVE",
"90 16 CURVE SMOOTH",
"139 22 OFFCURVE",
"186 37 OFFCURVE",
"235 38 CURVE",
"226 -99 OFFCURVE",
"201 -126 OFFCURVE",
"201 -178 CURVE SMOOTH",
"201 -208 OFFCURVE",
"212 -242 OFFCURVE",
"245 -242 CURVE SMOOTH",
"280 -242 OFFCURVE",
"292 -207 OFFCURVE",
"292 -177 CURVE SMOOTH",
"292 -126 OFFCURVE",
"268 -95 OFFCURVE",
"259 38 CURVE",
"308 37 OFFCURVE",
"355 22 OFFCURVE",
"404 16 CURVE SMOOTH",
"411 15 OFFCURVE",
"419 14 OFFCURVE",
"426 14 CURVE SMOOTH",
"453 14 OFFCURVE",
"477 21 OFFCURVE",
"477 50 CURVE SMOOTH",
"477 80 OFFCURVE",
"452 87 OFFCURVE",
"426 87 CURVE SMOOTH",
"418 87 OFFCURVE",
"411 86 OFFCURVE",
"404 85 CURVE SMOOTH",
"355 79 OFFCURVE",
"308 64 OFFCURVE",
"259 63 CURVE",
"270 138 OFFCURVE",
"285 202 OFFCURVE",
"300 239 CURVE",
"285 276 OFFCURVE",
"270 333 OFFCURVE",
"259 408 CURVE",
"308 408 OFFCURVE",
"355 393 OFFCURVE",
"404 387 CURVE SMOOTH",
"411 386 OFFCURVE",
"418 385 OFFCURVE",
"426 385 CURVE SMOOTH",
"452 385 OFFCURVE",
"477 393 OFFCURVE",
"477 422 CURVE SMOOTH",
"477 451 OFFCURVE",
"453 458 OFFCURVE",
"426 458 CURVE SMOOTH",
"418 458 OFFCURVE",
"411 458 OFFCURVE",
"404 457 CURVE SMOOTH",
"355 450 OFFCURVE",
"308 435 OFFCURVE",
"258 435 CURVE",
"268 571 OFFCURVE",
"292 599 OFFCURVE",
"292 650 CURVE SMOOTH",
"292 680 OFFCURVE",
"282 714 OFFCURVE",
"249 714 CURVE SMOOTH",
"214 714 OFFCURVE",
"201 679 OFFCURVE",
"201 649 CURVE SMOOTH",
"201 599 OFFCURVE",
"226 567 OFFCURVE",
"235 435 CURVE",
"186 435 OFFCURVE",
"139 450 OFFCURVE",
"90 457 CURVE SMOOTH",
"83 458 OFFCURVE",
"75 458 OFFCURVE",
"67 458 CURVE SMOOTH",
"41 458 OFFCURVE",
"17 451 OFFCURVE",
"17 422 CURVE SMOOTH",
"17 393 OFFCURVE",
"42 385 OFFCURVE",
"68 385 CURVE SMOOTH",
"75 385 OFFCURVE",
"83 386 OFFCURVE",
"90 387 CURVE SMOOTH",
"139 393 OFFCURVE",
"186 408 OFFCURVE",
"234 409 CURVE",
"224 334 OFFCURVE",
"209 276 OFFCURVE",
"194 239 CURVE"
);
}
);
width = 494;
}
);
unicode = 2021;
},
{
glyphname = germandbls;
lastChange = "2016-04-07 19:09:02 +0000";
layers = (
{
layerId = UUID0;
name = Regular;
paths = (
{
closed = 1;
nodes = (
"327 391 LINE",
"422 408 OFFCURVE",
"522 448 OFFCURVE",
"522 542 CURVE SMOOTH",
"522 684 OFFCURVE",
"388 707 OFFCURVE",
"306 707 CURVE SMOOTH",
"250 707 OFFCURVE",
"80 699 OFFCURVE",
"80 484 CURVE SMOOTH",
"80 25 LINE",
"30 20 LINE",
"30 0 LINE",
"199 0 LINE",
"200 560 LINE SMOOTH",
"200 613 OFFCURVE",
"218 685 OFFCURVE",
"306 685 CURVE SMOOTH",
"352 685 OFFCURVE",
"408 666 OFFCURVE",
"408 540 CURVE SMOOTH",
"408 437 OFFCURVE",
"331 398 OFFCURVE",
"295 398 CURVE SMOOTH",
"273 398 LINE",
"273 375 LINE",
"295 375 LINE SMOOTH",
"377 375 OFFCURVE",
"449 358 OFFCURVE",
"449 149 CURVE SMOOTH",
"449 66 OFFCURVE",
"420 8 OFFCURVE",
"363 8 CURVE SMOOTH",
"323 8 OFFCURVE",
"291 29 OFFCURVE",
"284 56 CURVE SMOOTH",
"284 57 LINE",
"290 56 OFFCURVE",
"295 55 OFFCURVE",
"300 55 CURVE SMOOTH",
"334 55 OFFCURVE",
"357 78 OFFCURVE",
"357 113 CURVE",
"356 145 OFFCURVE",
"335 170 OFFCURVE",
"299 170 CURVE SMOOTH",
"259 170 OFFCURVE",
"235 136 OFFCURVE",
"235 99 CURVE SMOOTH",
"235 16 OFFCURVE",
"303 -15 OFFCURVE",
"376 -15 CURVE SMOOTH",
"530 -15 OFFCURVE",
"571 100 OFFCURVE",
"571 179 CURVE SMOOTH",
"571 350 OFFCURVE",
"451 390 OFFCURVE",
"346 390 CURVE SMOOTH",
"340 390 OFFCURVE",
"333 390 OFFCURVE",
"327 390 CURVE"
);
}
);
width = 608;
}
);
unicode = 00DF;
},
{
glyphname = AE;
lastChange = "2016-04-07 19:09:02 +0000";
layers = (
{
layerId = UUID0;
name = Regular;
paths = (
{
closed = 1;
nodes = (
"551 665 LINE",
"589 668 OFFCURVE",
"625 670 OFFCURVE",
"655 670 CURVE SMOOTH",
"771 670 OFFCURVE",
"799 597 OFFCURVE",
"810 498 CURVE",
"837 498 LINE",
"837 697 LINE",
"275 697 LINE",
"275 675 LINE",
"337 675 OFFCURVE",
"360 657 OFFCURVE",
"360 624 CURVE SMOOTH",
"360 594 OFFCURVE",
"341 552 OFFCURVE",
"311 498 CURVE SMOOTH",
"42 27 LINE",
"-17 22 LINE",
"-17 0 LINE",
"139 0 LINE",
"139 22 LINE",
"73 27 LINE",
"173 202 LINE",
"426 202 LINE",
"426 27 LINE",
"351 22 LINE",
"351 0 LINE",
"852 0 LINE",
"852 199 LINE",
"836 199 LINE",
"825 100 OFFCURVE",
"791 27 OFFCURVE",
"675 27 CURVE SMOOTH",
"639 27 OFFCURVE",
"589 29 OFFCURVE",
"551 32 CURVE",
"551 345 LINE",
"567 347 OFFCURVE",
"596 347 OFFCURVE",
"604 347 CURVE SMOOTH",
"670 347 OFFCURVE",
"700 319 OFFCURVE",
"700 228 CURVE",
"727 228 LINE",
"727 490 LINE",
"700 490 LINE",
"700 399 OFFCURVE",
"670 374 OFFCURVE",
"604 374 CURVE SMOOTH",
"591 374 OFFCURVE",
"566 374 OFFCURVE",
"551 375 CURVE"
);
},
{
closed = 1;
nodes = (
"185 229 LINE",
"426 648 LINE",
"426 229 LINE"
);
}
);
width = 905;
}
);
rightKerningGroup = E;
unicode = 00C6;
},
{
glyphname = Oslash;
lastChange = "2016-04-07 19:09:02 +0000";
layers = (
{
layerId = UUID0;
name = Regular;
paths = (
{
closed = 1;
nodes = (
"47 237 OFFCURVE",
"76 145 OFFCURVE",
"130 81 CURVE",
"47 -28 LINE",
"107 -28 LINE",
"164 47 LINE",
"213 6 OFFCURVE",
"276 -17 OFFCURVE",
"353 -17 CURVE SMOOTH",
"560 -17 OFFCURVE",
"655 174 OFFCURVE",
"655 362 CURVE SMOOTH",
"655 455 OFFCURVE",
"631 534 OFFCURVE",
"589 594 CURVE",
"674 707 LINE",
"614 707 LINE",
"557 632 LINE",
"505 684 OFFCURVE",
"434 714 OFFCURVE",
"350 714 CURVE SMOOTH",
"162 714 OFFCURVE",
"47 546 OFFCURVE",
"47 346 CURVE SMOOTH"
);
},
{
closed = 1;
nodes = (
"170 605 OFFCURVE",
"255 687 OFFCURVE",
"353 687 CURVE SMOOTH",
"421 687 OFFCURVE",
"474 652 OFFCURVE",
"504 568 CURVE",
"195 160 LINE",
"178 215 OFFCURVE",
"170 282 OFFCURVE",
"170 357 CURVE SMOOTH"
);
},
{
closed = 1;
nodes = (
"533 136 OFFCURVE",
"466 10 OFFCURVE",
"350 10 CURVE SMOOTH",
"291 10 OFFCURVE",
"245 46 OFFCURVE",
"215 108 CURVE",
"520 510 LINE",
"528 468 OFFCURVE",
"533 417 OFFCURVE",
"533 358 CURVE SMOOTH"
);
}
);
width = 704;
}
);
leftKerningGroup = O;
rightKerningGroup = O;
unicode = 00D8;
},
{
glyphname = divide;
lastChange = "2016-04-07 19:09:02 +0000";
layers = (
{
layerId = UUID0;
name = Regular;
paths = (
{
closed = 1;
nodes = (
"212 72 OFFCURVE",
"240 45 OFFCURVE",
"280 45 CURVE SMOOTH",
"321 45 OFFCURVE",
"347 72 OFFCURVE",
"347 111 CURVE SMOOTH",
"347 152 OFFCURVE",
"321 180 OFFCURVE",
"280 180 CURVE SMOOTH",
"240 180 OFFCURVE",
"212 152 OFFCURVE",
"212 111 CURVE SMOOTH"
);
},
{
closed = 1;
nodes = (
"212 459 OFFCURVE",
"240 433 OFFCURVE",
"280 433 CURVE SMOOTH",
"321 433 OFFCURVE",
"347 459 OFFCURVE",
"347 499 CURVE SMOOTH",
"347 540 OFFCURVE",
"321 567 OFFCURVE",
"280 567 CURVE SMOOTH",
"240 567 OFFCURVE",
"212 540 OFFCURVE",
"212 499 CURVE SMOOTH"
);
},
{
closed = 1;
nodes = (
"57 340 LINE",
"57 286 LINE",
"502 286 LINE",
"502 340 LINE"
);
}
);
width = 560;
}
);
unicode = 00F7;
},
{
glyphname = guilsinglleft;
lastChange = "2016-04-07 19:09:02 +0000";
layers = (
{
layerId = UUID0;
name = Regular;
paths = (
{
closed = 1;
nodes = (
"23 305 LINE",
"232 116 LINE",
"253 138 LINE",
"123 315 LINE",
"123 316 LINE",
"253 494 LINE",
"232 516 LINE",
"23 327 LINE"
);
}
);
width = 291;
}
);
unicode = 2039;
},
{
glyphname = guilsinglright;
lastChange = "2016-04-07 19:09:02 +0000";
layers = (
{
layerId = UUID0;
name = Regular;
paths = (
{
closed = 1;
nodes = (
"268 305 LINE",
"58 116 LINE",
"37 138 LINE",
"167 315 LINE",
"167 316 LINE",
"37 494 LINE",
"58 516 LINE",
"268 327 LINE"
);
}
);
width = 291;
}
);
unicode = 203A;
},
{
glyphname = oslash;
lastChange = "2016-04-07 19:09:02 +0000";
layers = (
{
layerId = UUID0;
name = Regular;
paths = (
{
closed = 1;
nodes = (
"132 505 OFFCURVE",
"39 386 OFFCURVE",
"39 242 CURVE SMOOTH",
"39 174 OFFCURVE",
"57 108 OFFCURVE",
"94 61 CURVE",
"26 -27 LINE",
"79 -27 LINE",
"124 30 LINE",
"159 2 OFFCURVE",
"205 -15 OFFCURVE",
"263 -15 CURVE SMOOTH",
"396 -15 OFFCURVE",
"484 101 OFFCURVE",
"484 245 CURVE SMOOTH",
"484 307 OFFCURVE",
"468 368 OFFCURVE",
"436 416 CURVE",
"505 505 LINE",
"451 505 LINE",
"408 449 LINE",
"372 483 OFFCURVE",
"325 505 OFFCURVE",
"264 505 CURVE SMOOTH"
);
},
{
closed = 1;
nodes = (
"157 383 OFFCURVE",
"190 483 OFFCURVE",
"261 483 CURVE SMOOTH",
"309 483 OFFCURVE",
"338 448 OFFCURVE",
"353 385 CURVE",
"164 144 LINE",
"159 175 OFFCURVE",
"157 210 OFFCURVE",
"157 248 CURVE SMOOTH"
);
},
{
closed = 1;
nodes = (
"221 7 OFFCURVE",
"193 39 OFFCURVE",
"176 92 CURVE",
"363 329 LINE",
"365 303 OFFCURVE",
"367 273 OFFCURVE",
"367 242 CURVE SMOOTH",
"367 107 OFFCURVE",
"334 7 OFFCURVE",
"261 7 CURVE SMOOTH"
);
}
);
width = 523;
}
);
leftKerningGroup = o;
rightKerningGroup = o;
unicode = 00F8;
},
{
glyphname = ae;
lastChange = "2016-04-07 19:09:02 +0000";
layers = (
{
layerId = UUID0;
name = Regular;
paths = (
{
closed = 1;
nodes = (
"330 110 LINE",
"359 33 OFFCURVE",
"416 -15 OFFCURVE",
"516 -15 CURVE SMOOTH",
"575 -15 OFFCURVE",
"646 12 OFFCURVE",
"693 91 CURVE",
"674 103 LINE",
"630 29 OFFCURVE",
"579 17 OFFCURVE",
"539 17 CURVE SMOOTH",
"470 17 OFFCURVE",
"424 68 OFFCURVE",
"424 202 CURVE SMOOTH",
"424 260 LINE",
"666 260 LINE",
"679 272 LINE",
"679 429 OFFCURVE",
"623 505 OFFCURVE",
"510 505 CURVE SMOOTH",
"461 505 OFFCURVE",
"413 491 OFFCURVE",
"369 430 CURVE",
"368 430 LINE",
"343 490 OFFCURVE",
"290 505 OFFCURVE",
"230 505 CURVE SMOOTH",
"142 505 OFFCURVE",
"50 450 OFFCURVE",
"50 370 CURVE SMOOTH",
"50 337 OFFCURVE",
"72 305 OFFCURVE",
"112 305 CURVE SMOOTH",
"148 305 OFFCURVE",
"174 331 OFFCURVE",
"174 364 CURVE SMOOTH",
"174 404 OFFCURVE",
"152 425 OFFCURVE",
"119 425 CURVE SMOOTH",
"114 425 OFFCURVE",
"109 425 OFFCURVE",
"104 424 CURVE",
"104 426 LINE",
"116 447 OFFCURVE",
"150 482 OFFCURVE",
"213 482 CURVE SMOOTH",
"293 482 OFFCURVE",
"309 422 OFFCURVE",
"309 329 CURVE SMOOTH",
"309 262 LINE",
"293 263 OFFCURVE",
"278 264 OFFCURVE",
"264 264 CURVE SMOOTH",
"108 264 OFFCURVE",
"36 184 OFFCURVE",
"36 106 CURVE SMOOTH",
"36 46 OFFCURVE",
"74 -15 OFFCURVE",
"159 -15 CURVE SMOOTH",
"221 -15 OFFCURVE",
"282 4 OFFCURVE",
"329 110 CURVE"
);
},
{
closed = 1;
nodes = (
"154 149 OFFCURVE",
"170 242 OFFCURVE",
"277 242 CURVE SMOOTH",
"287 242 OFFCURVE",
"297 241 OFFCURVE",
"309 239 CURVE",
"309 172 LINE SMOOTH",
"309 89 OFFCURVE",
"259 30 OFFCURVE",
"217 30 CURVE SMOOTH",
"178 30 OFFCURVE",
"154 67 OFFCURVE",
"154 116 CURVE SMOOTH"
);
},
{
closed = 1;
nodes = (
"554 483 OFFCURVE",
"575 420 OFFCURVE",
"575 328 CURVE SMOOTH",
"575 315 OFFCURVE",
"575 302 OFFCURVE",
"574 288 CURVE",
"424 282 LINE",
"428 400 OFFCURVE",
"448 483 OFFCURVE",
"506 483 CURVE SMOOTH"
);
}
);
width = 726;
}
);
leftKerningGroup = a;
rightKerningGroup = e;
unicode = 00E6;
},
{
glyphname = florin;
lastChange = "2016-04-07 19:09:02 +0000";
layers = (
{
layerId = UUID0;
name = Regular;
paths = (
{
closed = 1;
nodes = (
"206 604 LINE SMOOTH",
"206 638 OFFCURVE",
"211 685 OFFCURVE",
"249 685 CURVE SMOOTH",
"262 685 OFFCURVE",
"272 679 OFFCURVE",
"274 673 CURVE",
"274 671 LINE",
"260 662 OFFCURVE",
"253 637 OFFCURVE",
"253 623 CURVE SMOOTH",
"253 596 OFFCURVE",
"272 567 OFFCURVE",
"308 567 CURVE SMOOTH",
"344 567 OFFCURVE",
"365 594 OFFCURVE",
"365 625 CURVE SMOOTH",
"365 671 OFFCURVE",
"327 707 OFFCURVE",
"255 707 CURVE SMOOTH",
"210 707 OFFCURVE",
"95 699 OFFCURVE",
"92 490 CURVE",
"2 490 LINE",
"2 469 LINE",
"92 466 LINE",
"92 -139 LINE SMOOTH",
"92 -173 OFFCURVE",
"87 -220 OFFCURVE",
"49 -220 CURVE SMOOTH",
"36 -220 OFFCURVE",
"26 -214 OFFCURVE",
"24 -208 CURVE",
"24 -206 LINE",
"38 -197 OFFCURVE",
"45 -172 OFFCURVE",
"45 -158 CURVE SMOOTH",
"45 -131 OFFCURVE",
"26 -102 OFFCURVE",
"-10 -102 CURVE SMOOTH",
"-46 -102 OFFCURVE",
"-67 -129 OFFCURVE",
"-67 -160 CURVE SMOOTH",
"-67 -206 OFFCURVE",
"-29 -242 OFFCURVE",
"43 -242 CURVE SMOOTH",
"88 -242 OFFCURVE",
"206 -234 OFFCURVE",
"206 -19 CURVE SMOOTH",
"206 464 LINE",
"327 469 LINE",
"327 490 LINE",
"206 490 LINE"
);
}
);
width = 323;
}
);
unicode = 0192;
},
{
glyphname = OE;
lastChange = "2016-04-07 19:09:02 +0000";
layers = (
{
layerId = UUID0;
name = Regular;
paths = (
{
closed = 1;
nodes = (
"627 665 LINE",
"665 668 OFFCURVE",
"703 670 OFFCURVE",
"733 670 CURVE SMOOTH",
"849 670 OFFCURVE",
"877 597 OFFCURVE",
"888 498 CURVE",
"915 498 LINE",
"915 697 LINE",
"502 697 LINE",
"457 705 OFFCURVE",
"414 714 OFFCURVE",
"361 714 CURVE SMOOTH",
"135 714 OFFCURVE",
"47 503 OFFCURVE",
"47 336 CURVE SMOOTH",
"47 158 OFFCURVE",
"117 -17 OFFCURVE",
"372 -17 CURVE SMOOTH",
"406 -17 OFFCURVE",
"448 -16 OFFCURVE",
"502 0 CURVE",
"930 0 LINE",
"930 199 LINE",
"914 199 LINE",
"903 100 OFFCURVE",
"869 27 OFFCURVE",
"753 27 CURVE SMOOTH",
"717 27 OFFCURVE",
"665 29 OFFCURVE",
"627 32 CURVE",
"627 345 LINE",
"643 347 OFFCURVE",
"674 347 OFFCURVE",
"682 347 CURVE SMOOTH",
"748 347 OFFCURVE",
"777 319 OFFCURVE",
"777 228 CURVE",
"804 228 LINE",
"804 490 LINE",
"777 490 LINE",
"777 399 OFFCURVE",
"748 374 OFFCURVE",
"682 374 CURVE SMOOTH",
"669 374 OFFCURVE",
"643 374 OFFCURVE",
"627 375 CURVE"
);
},
{
closed = 1;
nodes = (
"252 13 OFFCURVE",
"177 150 OFFCURVE",
"177 350 CURVE SMOOTH",
"177 541 OFFCURVE",
"252 683 OFFCURVE",
"393 683 CURVE SMOOTH",
"441 683 OFFCURVE",
"481 674 OFFCURVE",
"502 663 CURVE",
"502 31 LINE",
"464 16 OFFCURVE",
"439 13 OFFCURVE",
"396 13 CURVE SMOOTH"
);
}
);
width = 983;
}
);
leftKerningGroup = O;
rightKerningGroup = E;
unicode = 0152;
},
{
glyphname = quotesinglbase;
lastChange = "2016-04-07 19:09:02 +0000";
layers = (
{
layerId = UUID0;
name = Regular;
paths = (
{
closed = 1;
nodes = (
"68 -141 LINE",
"158 -96 OFFCURVE",
"180 -26 OFFCURVE",
"180 29 CURVE SMOOTH",
"180 73 OFFCURVE",
"159 117 OFFCURVE",
"110 117 CURVE SMOOTH",
"62 117 OFFCURVE",
"45 77 OFFCURVE",
"45 50 CURVE SMOOTH",
"45 11 OFFCURVE",
"72 -17 OFFCURVE",
"106 -17 CURVE SMOOTH",
"116 -17 OFFCURVE",
"124 -16 OFFCURVE",
"136 -8 CURVE",
"138 -8 LINE",
"138 -36 OFFCURVE",
"123 -86 OFFCURVE",
"60 -116 CURVE"
);
}
);
width = 224;
}
);
leftKerningGroup = quotesinglbase;
rightKerningGroup = quotesinglbase;
unicode = 201A;
},
{
glyphname = quotedblbase;
lastChange = "2016-04-07 19:09:02 +0000";
layers = (
{
layerId = UUID0;
name = Regular;
paths = (
{
closed = 1;
nodes = (
"67 -141 LINE",
"149 -96 OFFCURVE",
"170 -26 OFFCURVE",
"170 29 CURVE SMOOTH",
"170 73 OFFCURVE",
"150 117 OFFCURVE",
"105 117 CURVE SMOOTH",
"62 117 OFFCURVE",
"46 77 OFFCURVE",
"46 50 CURVE SMOOTH",
"46 11 OFFCURVE",
"70 -17 OFFCURVE",
"102 -17 CURVE SMOOTH",
"111 -17 OFFCURVE",
"118 -16 OFFCURVE",
"129 -8 CURVE",
"131 -8 LINE",
"131 -36 OFFCURVE",
"117 -86 OFFCURVE",
"60 -116 CURVE"
);
},
{
closed = 1;
nodes = (
"228 -141 LINE",
"310 -96 OFFCURVE",
"331 -26 OFFCURVE",
"331 29 CURVE SMOOTH",
"331 73 OFFCURVE",
"312 117 OFFCURVE",
"267 117 CURVE SMOOTH",
"223 117 OFFCURVE",
"207 77 OFFCURVE",
"207 50 CURVE SMOOTH",
"207 11 OFFCURVE",
"231 -17 OFFCURVE",
"263 -17 CURVE SMOOTH",
"272 -17 OFFCURVE",
"279 -16 OFFCURVE",
"291 -8 CURVE",
"292 -8 LINE",
"292 -36 OFFCURVE",
"278 -86 OFFCURVE",
"221 -116 CURVE"
);
}
);
width = 376;
}
);
leftKerningGroup = quotesinglbase;
rightKerningGroup = quotesinglbase;
unicode = 201E;
},
{
glyphname = dotlessi;
lastChange = "2016-04-07 19:09:02 +0000";
layers = (
{
layerId = UUID0;
name = Regular;
paths = (
{
closed = 1;
nodes = (
"207 486 LINE",
"198 500 LINE",
"129 482 LINE",
"27 471 LINE",
"28 451 LINE",
"87 452 LINE",
"87 25 LINE",
"37 20 LINE",
"37 0 LINE",
"257 0 LINE",
"257 20 LINE",
"207 25 LINE"
);
}
);
width = 286;
}
);
leftKerningGroup = i;
rightKerningGroup = i;
unicode = 0131;
},
{
glyphname = uni00AD;
lastChange = "2016-04-07 19:09:02 +0000";
layers = (
{
layerId = UUID0;
name = Regular;
paths = (
{
closed = 1;
nodes = (
"57 343 LINE",
"57 289 LINE",
"307 289 LINE",
"307 343 LINE"
);
}
);
width = 364;
}
);
unicode = 00AD;
},
{
glyphname = fi;
lastChange = "2016-04-07 19:09:02 +0000";
layers = (
{
layerId = UUID0;
name = Regular;
paths = (
{
closed = 1;
nodes = (
"209 25 LINE",
"209 463 LINE",
"413 467 LINE",
"413 25 LINE",
"362 20 LINE",
"362 0 LINE",
"583 0 LINE",
"583 20 LINE",
"532 25 LINE",
"532 486 LINE",
"523 500 LINE",
"455 487 LINE",
"209 489 LINE",
"209 555 LINE SMOOTH",
"209 657 OFFCURVE",
"273 685 OFFCURVE",
"345 685 CURVE SMOOTH",
"400 685 OFFCURVE",
"429 669 OFFCURVE",
"431 663 CURVE",
"431 661 LINE",
"417 652 OFFCURVE",
"409 626 OFFCURVE",
"409 612 CURVE SMOOTH",
"409 582 OFFCURVE",
"430 557 OFFCURVE",
"466 557 CURVE SMOOTH",
"502 557 OFFCURVE",
"522 584 OFFCURVE",
"522 615 CURVE SMOOTH",
"522 687 OFFCURVE",
"434 707 OFFCURVE",
"341 707 CURVE SMOOTH",
"272 707 OFFCURVE",
"93 699 OFFCURVE",
"89 490 CURVE",
"18 490 LINE",
"18 469 LINE",
"89 466 LINE",
"89 25 LINE",
"40 20 LINE",
"40 0 LINE",
"279 0 LINE",
"279 20 LINE"
);
}
);
width = 611;
}
);
leftKerningGroup = f;
rightKerningGroup = i;
unicode = FB01;
},
{
glyphname = fl;
lastChange = "2016-04-07 19:09:02 +0000";
layers = (
{
layerId = UUID0;
name = Regular;
paths = (
{
closed = 1;
nodes = (
"417 25 LINE",
"367 20 LINE",
"367 0 LINE",
"587 0 LINE",
"587 20 LINE",
"537 25 LINE",
"537 693 LINE",
"528 707 LINE",
"459 689 LINE",
"405 678 LINE",
"370 690 OFFCURVE",
"318 707 OFFCURVE",
"267 707 CURVE SMOOTH",
"206 707 OFFCURVE",
"93 703 OFFCURVE",
"89 490 CURVE",
"18 490 LINE",
"18 469 LINE",
"89 466 LINE",
"89 25 LINE",
"40 20 LINE",
"40 0 LINE",
"279 0 LINE",
"279 20 LINE",
"209 25 LINE",
"209 464 LINE",
"327 469 LINE",
"327 490 LINE",
"209 490 LINE",
"209 577 LINE SMOOTH",
"209 633 OFFCURVE",
"229 680 OFFCURVE",
"286 680 CURVE SMOOTH",
"369 680 OFFCURVE",
"417 647 OFFCURVE",
"417 541 CURVE SMOOTH"
);
}
);
width = 617;
}
);
leftKerningGroup = f;
rightKerningGroup = l;
unicode = FB02;
},
{
glyphname = grave.case;
lastChange = "2016-04-07 19:09:02 +0000";
layers = (
{
anchors = (
{
name = _top;
position = "{164, 744}";
}
);
layerId = UUID0;
name = Regular;
paths = (
{
closed = 1;
nodes = (
"226 774 LINE",
"233 793 LINE",
"115 886 LINE",
"106 893 OFFCURVE",
"91 902 OFFCURVE",
"79 902 CURVE SMOOTH",
"60 902 OFFCURVE",
"35 890 OFFCURVE",
"35 861 CURVE SMOOTH",
"35 833 OFFCURVE",
"57 818 OFFCURVE",
"79 813 CURVE SMOOTH"
);
}
);
width = 264;
}
);
},
{
glyphname = acute.case;
lastChange = "2016-04-07 19:27:22 +0000";
layers = (
{
anchors = (
{
name = _top;
position = "{117, 697}";
}
);
layerId = UUID0;
name = Regular;
paths = (
{
closed = 1;
nodes = (
"191 810 LINE SMOOTH",
"213 815 OFFCURVE",
"235 834 OFFCURVE",
"235 857 CURVE SMOOTH",
"235 887 OFFCURVE",
"212 900 OFFCURVE",
"193 900 CURVE SMOOTH",
"180 900 OFFCURVE",
"164 890 OFFCURVE",
"155 883 CURVE",
"37 790 LINE",
"44 771 LINE"
);
}
);
width = 264;
}
);
},
{
glyphname = circumflex.case;
lastChange = "2016-04-07 19:09:02 +0000";
layers = (
{
anchors = (
{
name = _top;
position = "{201, 744}";
}
);
layerId = UUID0;
name = Regular;
paths = (
{
closed = 1;
nodes = (
"59 791 LINE",
"85 768 LINE",
"200 848 LINE",
"202 848 LINE",
"319 770 LINE",
"350 792 LINE",
"206 927 LINE",
"204 927 LINE"
);
}
);
width = 403;
}
);
},
{
glyphname = dieresis.case;
lastChange = "2016-04-07 19:09:02 +0000";
layers = (
{
anchors = (
{
name = _top;
position = "{188, 744}";
}
);
layerId = UUID0;
name = Regular;
paths = (
{
closed = 1;
nodes = (
"39 818 OFFCURVE",
"62 789 OFFCURVE",
"99 789 CURVE SMOOTH",
"135 789 OFFCURVE",
"159 818 OFFCURVE",
"159 855 CURVE SMOOTH",
"159 891 OFFCURVE",
"135 920 OFFCURVE",
"99 920 CURVE SMOOTH",
"62 920 OFFCURVE",
"39 891 OFFCURVE",
"39 855 CURVE SMOOTH"
);
},
{
closed = 1;
nodes = (
"215 818 OFFCURVE",
"238 789 OFFCURVE",
"274 789 CURVE SMOOTH",
"311 789 OFFCURVE",
"334 818 OFFCURVE",
"334 855 CURVE SMOOTH",
"334 891 OFFCURVE",
"311 920 OFFCURVE",
"274 920 CURVE SMOOTH",
"238 920 OFFCURVE",
"215 891 OFFCURVE",
"215 855 CURVE SMOOTH"
);
}
);
width = 383;
}
);
},
{
glyphname = tilde.case;
lastChange = "2016-04-07 19:09:02 +0000";
layers = (
{
anchors = (
{
name = _top;
position = "{201, 744}";
}
);
background = {
paths = (
{
closed = 1;
nodes = (
"117 846 OFFCURVE",
"88 834 OFFCURVE",
"62 802 CURVE",
"44 812 LINE",
"57 858 OFFCURVE",
"93 904 OFFCURVE",
"150 904 CURVE SMOOTH",
"209 904 OFFCURVE",
"217 863 OFFCURVE",
"265 863 CURVE SMOOTH",
"284 863 OFFCURVE",
"314 873 OFFCURVE",
"341 913 CURVE",
"360 904 LINE",
"346 831 OFFCURVE",
"304 801 OFFCURVE",
"259 801 CURVE SMOOTH",
"200 801 OFFCURVE",
"187 846 OFFCURVE",
"141 846 CURVE SMOOTH"
);
}
);
};
layerId = UUID0;
name = Regular;
paths = (
{
closed = 1;
nodes = (
"187 847 OFFCURVE",
"200 802 OFFCURVE",
"259 802 CURVE SMOOTH",
"304 802 OFFCURVE",
"346 836 OFFCURVE",
"360 910 CURVE",
"341 917 LINE",
"314 876 OFFCURVE",
"284 872 OFFCURVE",
"265 872 CURVE SMOOTH",
"217 872 OFFCURVE",
"209 913 OFFCURVE",
"150 913 CURVE SMOOTH",
"93 913 OFFCURVE",
"57 862 OFFCURVE",
"44 815 CURVE",
"62 808 LINE",
"88 840 OFFCURVE",
"117 847 OFFCURVE",
"141 847 CURVE SMOOTH"
);
}
);
width = 414;
}
);
},
{
glyphname = ring.case;
lastChange = "2016-04-07 19:09:02 +0000";
layers = (
{
anchors = (
{
name = _top;
position = "{159, 723}";
}
);
layerId = UUID0;
name = Regular;
paths = (
{
closed = 1;
nodes = (
"39 793 OFFCURVE",
"81 765 OFFCURVE",
"159 765 CURVE SMOOTH",
"237 765 OFFCURVE",
"281 793 OFFCURVE",
"281 852 CURVE SMOOTH",
"281 910 OFFCURVE",
"237 941 OFFCURVE",
"159 941 CURVE SMOOTH",
"86 941 OFFCURVE",
"39 910 OFFCURVE",
"39 852 CURVE SMOOTH"
);
},
{
closed = 1;
nodes = (
"107 892 OFFCURVE",
"124 914 OFFCURVE",
"159 914 CURVE SMOOTH",
"196 914 OFFCURVE",
"213 892 OFFCURVE",
"213 852 CURVE SMOOTH",
"213 813 OFFCURVE",
"196 792 OFFCURVE",
"159 792 CURVE SMOOTH",
"124 792 OFFCURVE",
"107 813 OFFCURVE",
"107 852 CURVE SMOOTH"
);
}
);
width = 320;
}
);
},
{
glyphname = caron.case;
lastChange = "2016-04-07 19:09:02 +0000";
layers = (
{
anchors = (
{
name = _top;
position = "{199, 744}";
}
);
layerId = UUID0;
name = Regular;
paths = (
{
closed = 1;
nodes = (
"364 911 LINE",
"350 931 LINE",
"204 854 LINE",
"202 854 LINE",
"53 930 LINE",
"39 909 LINE",
"198 763 LINE",
"200 763 LINE"
);
}
);
width = 403;
}
);
},
{
glyphname = b;
lastChange = "2016-04-07 19:09:02 +0000";
layers = (
{
layerId = UUID0;
name = Regular;
paths = (
{
closed = 1;
nodes = (
"191 693 LINE",
"183 707 LINE",
"114 689 LINE",
"12 678 LINE",
"12 658 LINE",
"72 658 LINE",
"72 -5 LINE",
"92 -5 LINE",
"191 38 LINE",
"221 -3 OFFCURVE",
"266 -15 OFFCURVE",
"296 -15 CURVE SMOOTH",
"431 -15 OFFCURVE",
"491 107 OFFCURVE",
"491 249 CURVE SMOOTH",
"491 472 OFFCURVE",
"384 505 OFFCURVE",
"329 505 CURVE SMOOTH",
"273 505 OFFCURVE",
"232 488 OFFCURVE",
"193 422 CURVE",
"191 422 LINE"
);
},
{
closed = 1;
nodes = (
"333 466 OFFCURVE",
"366 423 OFFCURVE",
"366 254 CURVE SMOOTH",
"366 162 OFFCURVE",
"363 15 OFFCURVE",
"271 15 CURVE SMOOTH",
"229 15 OFFCURVE",
"191 59 OFFCURVE",
"191 105 CURVE SMOOTH",
"191 339 LINE SMOOTH",
"191 402 OFFCURVE",
"232 466 OFFCURVE",
"281 466 CURVE SMOOTH"
);
}
);
width = 532;
}
);
leftKerningGroup = b;
rightKerningGroup = b;
unicode = 0062;
},
{
glyphname = c;
lastChange = "2016-04-07 19:09:02 +0000";
layers = (
{
layerId = UUID0;
name = Regular;
paths = (
{
closed = 1;
nodes = (
"110 505 OFFCURVE",
"40 359 OFFCURVE",
"40 242 CURVE SMOOTH",
"40 87 OFFCURVE",
"103 -15 OFFCURVE",
"264 -15 CURVE SMOOTH",
"325 -15 OFFCURVE",
"389 9 OFFCURVE",
"436 94 CURVE",
"417 105 LINE",
"370 26 OFFCURVE",
"319 19 OFFCURVE",
"285 19 CURVE SMOOTH",
"220 19 OFFCURVE",
"165 71 OFFCURVE",
"165 244 CURVE SMOOTH",
"165 377 OFFCURVE",
"197 480 OFFCURVE",
"286 480 CURVE SMOOTH",
"338 480 OFFCURVE",
"363 447 OFFCURVE",
"371 434 CURVE",
"371 432 LINE",
"366 432 OFFCURVE",
"362 433 OFFCURVE",
"358 433 CURVE SMOOTH",
"324 433 OFFCURVE",
"302 405 OFFCURVE",
"302 373 CURVE SMOOTH",
"302 339 OFFCURVE",
"327 313 OFFCURVE",
"363 313 CURVE SMOOTH",
"403 313 OFFCURVE",
"425 343 OFFCURVE",
"425 376 CURVE SMOOTH",
"425 445 OFFCURVE",
"360 505 OFFCURVE",
"268 505 CURVE SMOOTH"
);
}
);
width = 462;
}
);
leftKerningGroup = o;
rightKerningGroup = c;
unicode = 0063;
},
{
glyphname = v;
lastChange = "2016-04-07 19:09:02 +0000";
layers = (
{
layerId = UUID0;
name = Regular;
paths = (
{
closed = 1;
nodes = (
"395 465 LINE",
"290 157 LINE",
"288 157 LINE",
"172 465 LINE",
"225 470 LINE",
"225 490 LINE",
"-6 490 LINE",
"-6 470 LINE",
"42 465 LINE",
"238 -5 LINE",
"261 -5 LINE",
"424 465 LINE",
"475 470 LINE",
"475 490 LINE",
"341 490 LINE",
"341 470 LINE"
);
}
);
width = 470;
}
);
unicode = 0076;
},
{
glyphname = brokenbar;
lastChange = "2016-04-07 19:09:02 +0000";
layers = (
{
layerId = UUID0;
name = Regular;
paths = (
{
closed = 1;
nodes = (
"142 364 LINE",
"142 714 LINE",
"82 714 LINE",
"82 364 LINE"
);
},
{
closed = 1;
nodes = (
"142 -242 LINE",
"142 108 LINE",
"82 108 LINE",
"82 -242 LINE"
);
}
);
width = 224;
}
);
unicode = 00A6;
},
{
glyphname = plusminus;
lastChange = "2016-04-07 19:09:02 +0000";
layers = (
{
layerId = UUID0;
name = Regular;
paths = (
{
closed = 1;
nodes = (
"57 343 LINE",
"57 289 LINE",
"253 289 LINE",
"253 129 LINE",
"307 129 LINE",
"307 289 LINE",
"502 289 LINE",
"502 343 LINE",
"307 343 LINE",
"307 503 LINE",
"253 503 LINE",
"253 343 LINE"
);
},
{
closed = 1;
nodes = (
"57 54 LINE",
"57 0 LINE",
"502 0 LINE",
"502 54 LINE"
);
}
);
width = 560;
}
);
unicode = 00B1;
},
{
glyphname = macron;
lastChange = "2016-04-07 19:09:02 +0000";
layers = (
{
layerId = UUID0;
name = Regular;
paths = (
{
closed = 1;
nodes = (
"0 655 LINE",
"468 655 LINE",
"468 697 LINE",
"0 697 LINE"
);
}
);
width = 468;
}
);
unicode = 00AF;
},
{
glyphname = endash;
lastChange = "2016-04-07 19:09:02 +0000";
layers = (
{
layerId = UUID0;
name = Regular;
paths = (
{
closed = 1;
nodes = (
"57 343 LINE",
"57 289 LINE",
"464 289 LINE",
"464 343 LINE"
);
}
);
width = 521;
}
);
leftKerningGroup = hyphen;
rightKerningGroup = hyphen;
unicode = 2013;
},
{
glyphname = emdash;
lastChange = "2016-04-07 19:09:02 +0000";
layers = (
{
layerId = UUID0;
name = Regular;
paths = (
{
closed = 1;
nodes = (
"76 343 LINE",
"76 289 LINE",
"629 289 LINE",
"629 343 LINE"
);
}
);
width = 706;
}
);
leftKerningGroup = hyphen;
rightKerningGroup = hyphen;
unicode = 2014;
},
{
glyphname = logicalnot;
lastChange = "2016-04-07 19:09:02 +0000";
layers = (
{
layerId = UUID0;
name = Regular;
paths = (
{
closed = 1;
nodes = (
"449 171 LINE",
"502 171 LINE",
"502 343 LINE",
"57 343 LINE",
"57 289 LINE",
"449 289 LINE"
);
}
);
width = 560;
}
);
unicode = 00AC;
},
{
glyphname = section;
lastChange = "2016-04-07 19:09:02 +0000";
layers = (
{
layerId = UUID0;
name = Regular;
paths = (
{
closed = 1;
nodes = (
"431 22 OFFCURVE",
"418 63 OFFCURVE",
"394 96 CURVE",
"437 142 OFFCURVE",
"446 204 OFFCURVE",
"446 240 CURVE SMOOTH",
"446 351 OFFCURVE",
"394 396 OFFCURVE",
"247 458 CURVE SMOOTH",
"151 498 OFFCURVE",
"126 531 OFFCURVE",
"126 587 CURVE SMOOTH",
"126 652 OFFCURVE",
"170 688 OFFCURVE",
"245 688 CURVE SMOOTH",
"297 688 OFFCURVE",
"338 667 OFFCURVE",
"353 645 CURVE",
"353 643 LINE",
"314 643 OFFCURVE",
"286 620 OFFCURVE",
"286 577 CURVE SMOOTH",
"286 540 OFFCURVE",
"312 512 OFFCURVE",
"352 512 CURVE SMOOTH",
"397 512 OFFCURVE",
"421 546 OFFCURVE",
"421 584 CURVE SMOOTH",
"421 628 OFFCURVE",
"387 714 OFFCURVE",
"251 714 CURVE SMOOTH",
"101 714 OFFCURVE",
"56 611 OFFCURVE",
"56 542 CURVE SMOOTH",
"56 495 OFFCURVE",
"67 455 OFFCURVE",
"91 422 CURVE",
"50 379 OFFCURVE",
"41 317 OFFCURVE",
"41 282 CURVE SMOOTH",
"41 171 OFFCURVE",
"88 126 OFFCURVE",
"235 64 CURVE SMOOTH",
"331 23 OFFCURVE",
"361 -14 OFFCURVE",
"361 -71 CURVE SMOOTH",
"361 -135 OFFCURVE",
"306 -166 OFFCURVE",
"231 -166 CURVE SMOOTH",
"179 -166 OFFCURVE",
"135 -142 OFFCURVE",
"121 -121 CURVE",
"121 -119 LINE",
"160 -119 OFFCURVE",
"188 -95 OFFCURVE",
"188 -53 CURVE SMOOTH",
"188 -15 OFFCURVE",
"162 13 OFFCURVE",
"122 13 CURVE SMOOTH",
"76 13 OFFCURVE",
"53 -24 OFFCURVE",
"53 -63 CURVE SMOOTH",
"53 -107 OFFCURVE",
"90 -192 OFFCURVE",
"229 -192 CURVE SMOOTH",
"385 -192 OFFCURVE",
"431 -95 OFFCURVE",
"431 -25 CURVE SMOOTH"
);
},
{
closed = 1;
nodes = (
"347 285 OFFCURVE",
"398 231 OFFCURVE",
"398 177 CURVE SMOOTH",
"398 160 OFFCURVE",
"394 133 OFFCURVE",
"379 113 CURVE",
"358 136 OFFCURVE",
"331 154 OFFCURVE",
"296 169 CURVE SMOOTH",
"135 237 OFFCURVE",
"89 291 OFFCURVE",
"89 345 CURVE SMOOTH",
"89 362 OFFCURVE",
"96 393 OFFCURVE",
"105 405 CURVE",
"125 384 OFFCURVE",
"152 367 OFFCURVE",
"186 353 CURVE SMOOTH"
);
}
);
width = 483;
}
);
unicode = 00A7;
},
{
glyphname = copyright;
lastChange = "2016-04-07 19:09:02 +0000";
layers = (
{
layerId = UUID0;
name = Regular;
paths = (
{
closed = 1;
nodes = (
"248 502 OFFCURVE",
"189 376 OFFCURVE",
"189 274 CURVE SMOOTH",
"189 139 OFFCURVE",
"250 50 OFFCURVE",
"390 50 CURVE SMOOTH",
"443 50 OFFCURVE",
"498 71 OFFCURVE",
"540 145 CURVE",
"521 157 LINE",
"486 103 OFFCURVE",
"438 89 OFFCURVE",
"409 89 CURVE SMOOTH",
"353 89 OFFCURVE",
"298 125 OFFCURVE",
"298 276 CURVE SMOOTH",
"298 391 OFFCURVE",
"324 472 OFFCURVE",
"401 472 CURVE SMOOTH",
"442 472 OFFCURVE",
"468 452 OFFCURVE",
"475 441 CURVE",
"475 438 LINE",
"439 445 OFFCURVE",
"416 419 OFFCURVE",
"416 388 CURVE SMOOTH",
"416 358 OFFCURVE",
"436 335 OFFCURVE",
"468 335 CURVE SMOOTH",
"503 335 OFFCURVE",
"522 362 OFFCURVE",
"522 391 CURVE SMOOTH",
"522 450 OFFCURVE",
"466 502 OFFCURVE",
"385 502 CURVE SMOOTH"
);
},
{
closed = 1;
nodes = (
"40 95 OFFCURVE",
"177 -51 OFFCURVE",
"364 -51 CURVE SMOOTH",
"552 -51 OFFCURVE",
"690 95 OFFCURVE",
"690 273 CURVE SMOOTH",
"690 453 OFFCURVE",
"552 599 OFFCURVE",
"364 599 CURVE SMOOTH",
"177 599 OFFCURVE",
"40 453 OFFCURVE",
"40 273 CURVE SMOOTH"
);
},
{
closed = 1;
nodes = (
"74 438 OFFCURVE",
"193 573 OFFCURVE",
"364 573 CURVE SMOOTH",
"536 573 OFFCURVE",
"656 438 OFFCURVE",
"656 273 CURVE SMOOTH",
"656 109 OFFCURVE",
"536 -25 OFFCURVE",
"364 -25 CURVE SMOOTH",
"193 -25 OFFCURVE",
"74 109 OFFCURVE",
"74 273 CURVE SMOOTH"
);
}
);
width = 729;
}
);
unicode = 00A9;
},
{
glyphname = registered;
lastChange = "2016-04-07 19:09:02 +0000";
layers = (
{
layerId = UUID0;
name = Regular;
paths = (
{
closed = 1;
nodes = (
"34 369 OFFCURVE",
"125 272 OFFCURVE",
"248 272 CURVE SMOOTH",
"372 272 OFFCURVE",
"463 369 OFFCURVE",
"463 487 CURVE SMOOTH",
"463 605 OFFCURVE",
"372 702 OFFCURVE",
"248 702 CURVE SMOOTH",
"125 702 OFFCURVE",
"34 605 OFFCURVE",
"34 487 CURVE SMOOTH"
);
},
{
closed = 1;
nodes = (
"68 589 OFFCURVE",
"132 677 OFFCURVE",
"248 677 CURVE SMOOTH",
"365 677 OFFCURVE",
"429 589 OFFCURVE",
"429 487 CURVE SMOOTH",
"429 385 OFFCURVE",
"365 296 OFFCURVE",
"248 296 CURVE SMOOTH",
"132 296 OFFCURVE",
"68 385 OFFCURVE",
"68 487 CURVE SMOOTH"
);
},
{
closed = 1;
nodes = (
"264 494 LINE",
"309 500 OFFCURVE",
"344 518 OFFCURVE",
"344 563 CURVE SMOOTH",
"344 611 OFFCURVE",
"297 629 OFFCURVE",
"244 629 CURVE SMOOTH",
"143 629 LINE",
"143 614 LINE",
"165 612 LINE",
"165 381 LINE",
"143 379 LINE",
"143 365 LINE",
"245 365 LINE",
"245 379 LINE",
"221 381 LINE",
"221 489 LINE",
"233 489 LINE SMOOTH",
"251 489 OFFCURVE",
"266 458 OFFCURVE",
"279 426 CURVE SMOOTH",
"301 371 OFFCURVE",
"315 365 OFFCURVE",
"346 365 CURVE SMOOTH",
"377 365 LINE",
"377 379 LINE",
"367 379 OFFCURVE",
"362 383 OFFCURVE",
"354 399 CURVE SMOOTH",
"341 422 OFFCURVE",
"338 431 OFFCURVE",
"327 454 CURVE SMOOTH",
"317 474 OFFCURVE",
"292 490 OFFCURVE",
"264 493 CURVE"
);
},
{
closed = 1;
nodes = (
"221 612 LINE",
"229 614 OFFCURVE",
"234 614 OFFCURVE",
"239 614 CURVE SMOOTH",
"266 614 OFFCURVE",
"289 604 OFFCURVE",
"289 563 CURVE SMOOTH",
"289 526 OFFCURVE",
"274 502 OFFCURVE",
"229 502 CURVE SMOOTH",
"221 502 LINE"
);
}
);
width = 496;
}
);
unicode = 00AE;
},
{
glyphname = guillemotleft;
lastChange = "2016-04-07 19:09:02 +0000";
layers = (
{
layerId = UUID0;
name = Regular;
paths = (
{
closed = 1;
nodes = (
"39 234 LINE",
"213 76 LINE",
"231 94 LINE",
"123 243 LINE",
"123 243 LINE",
"231 392 LINE",
"213 410 LINE",
"39 252 LINE"
);
},
{
closed = 1;
nodes = (
"205 234 LINE",
"379 62 LINE",
"397 80 LINE",
"289 243 LINE",
"289 243 LINE",
"397 406 LINE",
"379 424 LINE",
"205 252 LINE"
);
}
);
width = 440;
}
);
unicode = 00AB;
},
{
glyphname = guillemotright;
lastChange = "2016-04-07 19:09:02 +0000";
layers = (
{
layerId = UUID0;
name = Regular;
paths = (
{
closed = 1;
nodes = (
"400 252 LINE",
"226 410 LINE",
"208 392 LINE",
"317 243 LINE",
"317 243 LINE",
"208 94 LINE",
"226 76 LINE",
"400 234 LINE"
);
},
{
closed = 1;
nodes = (
"234 252 LINE",
"60 424 LINE",
"42 406 LINE",
"151 243 LINE",
"151 243 LINE",
"42 80 LINE",
"60 62 LINE",
"234 234 LINE"
);
}
);
width = 440;
}
);
unicode = 00BB;
},
{
glyphname = questiondown;
lastChange = "2016-04-07 19:09:02 +0000";
layers = (
{
layerId = UUID0;
name = Regular;
paths = (
{
closed = 1;
nodes = (
"128 225 OFFCURVE",
"239 313 OFFCURVE",
"239 405 CURVE SMOOTH",
"239 420 OFFCURVE",
"236 435 OFFCURVE",
"229 450 CURVE",
"203 450 LINE",
"207 439 OFFCURVE",
"208 430 OFFCURVE",
"208 420 CURVE SMOOTH",
"208 312 OFFCURVE",
"17 240 OFFCURVE",
"17 100 CURVE SMOOTH",
"17 13 OFFCURVE",
"79 -66 OFFCURVE",
"204 -66 CURVE SMOOTH",
"352 -66 OFFCURVE",
"405 21 OFFCURVE",
"405 83 CURVE SMOOTH",
"405 118 OFFCURVE",
"381 149 OFFCURVE",
"341 149 CURVE SMOOTH",
"302 149 OFFCURVE",
"277 123 OFFCURVE",
"277 87 CURVE SMOOTH",
"277 49 OFFCURVE",
"298 28 OFFCURVE",
"340 28 CURVE SMOOTH",
"347 28 LINE",
"347 25 LINE",
"341 2 OFFCURVE",
"296 -38 OFFCURVE",
"237 -38 CURVE SMOOTH",
"169 -38 OFFCURVE",
"128 4 OFFCURVE",
"128 93 CURVE SMOOTH"
);
},
{
closed = 1;
nodes = (
"270 642 OFFCURVE",
"245 665 OFFCURVE",
"210 665 CURVE SMOOTH",
"173 665 OFFCURVE",
"149 642 OFFCURVE",
"149 606 CURVE SMOOTH",
"149 569 OFFCURVE",
"173 545 OFFCURVE",
"210 545 CURVE SMOOTH",
"245 545 OFFCURVE",
"270 569 OFFCURVE",
"270 606 CURVE SMOOTH"
);
}
);
width = 414;
}
);
unicode = 00BF;
},
{
glyphname = exclamdown;
lastChange = "2016-04-07 19:09:02 +0000";
layers = (
{
layerId = UUID0;
name = Regular;
paths = (
{
closed = 1;
nodes = (
"120 457 LINE",
"113 243 OFFCURVE",
"61 86 OFFCURVE",
"61 4 CURVE SMOOTH",
"61 -36 OFFCURVE",
"83 -78 OFFCURVE",
"129 -78 CURVE SMOOTH",
"176 -78 OFFCURVE",
"203 -36 OFFCURVE",
"203 4 CURVE SMOOTH",
"203 86 OFFCURVE",
"149 243 OFFCURVE",
"143 457 CURVE"
);
},
{
closed = 1;
nodes = (
"199 619 OFFCURVE",
"172 646 OFFCURVE",
"133 646 CURVE SMOOTH",
"92 646 OFFCURVE",
"64 619 OFFCURVE",
"64 580 CURVE SMOOTH",
"64 539 OFFCURVE",
"92 511 OFFCURVE",
"133 511 CURVE SMOOTH",
"172 511 OFFCURVE",
"199 539 OFFCURVE",
"199 580 CURVE SMOOTH"
);
}
);
width = 263;
}
);
unicode = 00A1;
},
{
glyphname = cent;
lastChange = "2016-04-07 19:09:02 +0000";
layers = (
{
layerId = UUID0;
name = Regular;
paths = (
{
closed = 1;
nodes = (
"288 -95 LINE",
"288 -14 LINE",
"344 -10 OFFCURVE",
"402 16 OFFCURVE",
"445 94 CURVE",
"426 105 LINE",
"379 26 OFFCURVE",
"328 19 OFFCURVE",
"294 19 CURVE SMOOTH",
"288 19 LINE",
"288 480 LINE",
"290 480 OFFCURVE",
"292 480 OFFCURVE",
"295 480 CURVE SMOOTH",
"347 480 OFFCURVE",
"372 447 OFFCURVE",
"380 434 CURVE",
"380 432 LINE",
"375 432 OFFCURVE",
"372 433 OFFCURVE",
"368 433 CURVE SMOOTH",
"333 433 OFFCURVE",
"311 405 OFFCURVE",
"311 373 CURVE SMOOTH",
"311 339 OFFCURVE",
"336 313 OFFCURVE",
"372 313 CURVE SMOOTH",
"412 313 OFFCURVE",
"434 343 OFFCURVE",
"434 376 CURVE SMOOTH",
"434 442 OFFCURVE",
"374 500 OFFCURVE",
"288 504 CURVE",
"288 567 LINE",
"248 567 LINE",
"248 503 LINE",
"110 486 OFFCURVE",
"49 352 OFFCURVE",
"49 242 CURVE SMOOTH",
"49 95 OFFCURVE",
"105 -3 OFFCURVE",
"248 -14 CURVE",
"248 -95 LINE"
);
},
{
closed = 1;
nodes = (
"174 350 OFFCURVE",
"194 438 OFFCURVE",
"248 468 CURVE",
"248 29 LINE",
"205 52 OFFCURVE",
"174 114 OFFCURVE",
"174 244 CURVE SMOOTH"
);
}
);
width = 479;
}
);
unicode = 00A2;
},
{
glyphname = Euro;
lastChange = "2016-04-07 19:09:02 +0000";
layers = (
{
layerId = UUID0;
name = Regular;
paths = (
{
closed = 1;
nodes = (
"607 566 LINE",
"572 665 OFFCURVE",
"492 714 OFFCURVE",
"395 714 CURVE SMOOTH",
"220 714 OFFCURVE",
"133 594 OFFCURVE",
"100 458 CURVE",
"32 458 LINE",
"16 404 LINE",
"90 404 LINE",
"87 381 OFFCURVE",
"86 358 OFFCURVE",
"86 336 CURVE SMOOTH",
"86 321 LINE",
"32 321 LINE",
"16 268 LINE",
"89 268 LINE",
"107 103 OFFCURVE",
"194 -17 OFFCURVE",
"396 -17 CURVE SMOOTH",
"514 -17 OFFCURVE",
"588 47 OFFCURVE",
"632 155 CURVE",
"609 166 LINE",
"575 87 OFFCURVE",
"507 19 OFFCURVE",
"409 19 CURVE SMOOTH",
"294 19 OFFCURVE",
"238 140 OFFCURVE",
"221 268 CURVE",
"425 268 LINE",
"441 321 LINE",
"216 321 LINE",
"216 331 OFFCURVE",
"216 340 OFFCURVE",
"216 350 CURVE SMOOTH",
"216 369 OFFCURVE",
"216 387 OFFCURVE",
"218 404 CURVE",
"463 404 LINE",
"479 458 LINE",
"225 458 LINE",
"249 589 OFFCURVE",
"311 683 OFFCURVE",
"404 683 CURVE SMOOTH",
"483 683 OFFCURVE",
"542 649 OFFCURVE",
"583 557 CURVE"
);
}
);
width = 650;
}
);
unicode = 20AC;
},
{
glyphname = yen;
lastChange = "2016-04-07 19:09:02 +0000";
layers = (
{
layerId = UUID0;
name = Regular;
paths = (
{
closed = 1;
nodes = (
"119 360 LINE",
"119 308 LINE",
"255 308 LINE",
"255 238 LINE",
"119 238 LINE",
"119 186 LINE",
"255 186 LINE",
"255 27 LINE",
"180 22 LINE",
"180 0 LINE",
"455 0 LINE",
"455 22 LINE",
"380 27 LINE",
"380 186 LINE",
"516 186 LINE",
"516 238 LINE",
"380 238 LINE",
"380 308 LINE",
"516 308 LINE",
"516 360 LINE",
"388 360 LINE",
"532 670 LINE",
"593 675 LINE",
"593 697 LINE",
"430 697 LINE",
"430 675 LINE",
"499 670 LINE",
"361 374 LINE",
"359 374 LINE",
"194 670 LINE",
"270 675 LINE",
"270 697 LINE",
"-17 697 LINE",
"-17 675 LINE",
"49 670 LINE",
"228 360 LINE"
);
}
);
width = 589;
}
);
unicode = 00A5;
},
{
glyphname = sterling;
lastChange = "2016-04-07 19:09:02 +0000";
layers = (
{
layerId = UUID0;
name = Regular;
paths = (
{
closed = 1;
nodes = (
"395 351 LINE",
"395 371 LINE",
"227 371 LINE",
"227 467 LINE SMOOTH",
"227 632 OFFCURVE",
"272 686 OFFCURVE",
"330 686 CURVE SMOOTH",
"358 686 OFFCURVE",
"390 679 OFFCURVE",
"409 658 CURVE",
"409 656 LINE",
"375 648 OFFCURVE",
"363 625 OFFCURVE",
"363 599 CURVE SMOOTH",
"363 565 OFFCURVE",
"384 547 OFFCURVE",
"420 547 CURVE SMOOTH",
"456 547 OFFCURVE",
"475 575 OFFCURVE",
"475 605 CURVE SMOOTH",
"475 660 OFFCURVE",
"422 707 OFFCURVE",
"321 707 CURVE SMOOTH",
"187 707 OFFCURVE",
"106 619 OFFCURVE",
"106 425 CURVE SMOOTH",
"106 371 LINE",
"15 371 LINE",
"15 351 LINE",
"106 345 LINE",
"106 75 LINE",
"83 65 OFFCURVE",
"52 42 OFFCURVE",
"25 3 CURVE",
"48 -15 LINE",
"65 9 OFFCURVE",
"99 41 OFFCURVE",
"135 41 CURVE SMOOTH",
"167 41 OFFCURVE",
"218 28 OFFCURVE",
"273 9 CURVE SMOOTH",
"324 -9 OFFCURVE",
"380 -15 OFFCURVE",
"401 -15 CURVE SMOOTH",
"491 -15 OFFCURVE",
"529 54 OFFCURVE",
"529 104 CURVE SMOOTH",
"529 144 OFFCURVE",
"505 181 OFFCURVE",
"467 181 CURVE SMOOTH",
"439 181 OFFCURVE",
"420 161 OFFCURVE",
"420 133 CURVE SMOOTH",
"420 106 OFFCURVE",
"437 87 OFFCURVE",
"463 87 CURVE SMOOTH",
"482 87 OFFCURVE",
"497 97 OFFCURVE",
"501 110 CURVE",
"502 111 LINE",
"504 106 OFFCURVE",
"505 103 OFFCURVE",
"505 95 CURVE SMOOTH",
"505 75 OFFCURVE",
"492 52 OFFCURVE",
"455 52 CURVE SMOOTH",
"382 52 OFFCURVE",
"288 96 OFFCURVE",
"227 104 CURVE",
"227 345 LINE"
);
}
);
width = 545;
}
);
unicode = 00A3;
},
{
glyphname = paragraph;
lastChange = "2016-04-07 19:09:02 +0000";
layers = (
{
layerId = UUID0;
name = Regular;
paths = (
{
closed = 1;
nodes = (
"351 697 LINE",
"257 697 LINE SMOOTH",
"125 697 OFFCURVE",
"17 631 OFFCURVE",
"17 491 CURVE SMOOTH",
"17 331 OFFCURVE",
"125 278 OFFCURVE",
"290 278 CURVE SMOOTH",
"302 278 LINE",
"302 27 LINE",
"227 22 LINE",
"227 0 LINE",
"532 0 LINE",
"532 22 LINE",
"457 27 LINE",
"457 670 LINE",
"532 675 LINE",
"532 697 LINE",
"408 697 LINE",
"408 27 LINE",
"351 27 LINE"
);
},
{
closed = 1;
nodes = (
"287 305 LINE SMOOTH",
"191 305 OFFCURVE",
"146 351 OFFCURVE",
"146 495 CURVE SMOOTH",
"146 625 OFFCURVE",
"206 667 OFFCURVE",
"270 667 CURVE SMOOTH",
"277 667 OFFCURVE",
"289 667 OFFCURVE",
"302 665 CURVE",
"302 305 LINE"
);
}
);
width = 554;
}
);
unicode = 00B6;
},
{
glyphname = currency;
lastChange = "2016-04-07 19:09:02 +0000";
layers = (
{
layerId = UUID0;
name = Regular;
paths = (
{
closed = 1;
nodes = (
"78 292 OFFCURVE",
"95 245 OFFCURVE",
"124 209 CURVE",
"49 135 LINE",
"76 107 LINE",
"151 182 LINE",
"186 152 OFFCURVE",
"232 135 OFFCURVE",
"285 135 CURVE SMOOTH",
"337 135 OFFCURVE",
"383 152 OFFCURVE",
"418 182 CURVE",
"493 107 LINE",
"521 135 LINE",
"445 209 LINE",
"475 245 OFFCURVE",
"492 292 OFFCURVE",
"492 342 CURVE SMOOTH",
"492 393 OFFCURVE",
"474 439 OFFCURVE",
"444 475 CURVE",
"521 551 LINE",
"493 578 LINE",
"417 502 LINE",
"382 531 OFFCURVE",
"336 549 OFFCURVE",
"285 549 CURVE SMOOTH",
"233 549 OFFCURVE",
"187 531 OFFCURVE",
"152 502 CURVE",
"76 578 LINE",
"49 551 LINE",
"125 475 LINE",
"95 439 OFFCURVE",
"78 393 OFFCURVE",
"78 342 CURVE SMOOTH"
);
},
{
closed = 1;
nodes = (
"126 435 OFFCURVE",
"188 510 OFFCURVE",
"285 510 CURVE SMOOTH",
"381 510 OFFCURVE",
"443 435 OFFCURVE",
"443 342 CURVE SMOOTH",
"443 249 OFFCURVE",
"381 174 OFFCURVE",
"285 174 CURVE SMOOTH",
"188 174 OFFCURVE",
"126 249 OFFCURVE",
"126 342 CURVE SMOOTH"
);
}
);
width = 569;
}
);
unicode = 00A4;
},
{
glyphname = onesuperior;
lastChange = "2016-04-07 19:09:02 +0000";
layers = (
{
layerId = UUID0;
name = Regular;
paths = (
{
closed = 1;
nodes = (
"191 707 LINE",
"182 721 LINE",
"138 703 LINE",
"41 692 LINE",
"41 672 LINE",
"101 672 LINE",
"101 372 LINE",
"50 367 LINE",
"50 347 LINE",
"241 347 LINE",
"241 367 LINE",
"191 372 LINE"
);
}
);
width = 279;
}
);
unicode = 00B9;
},
{
glyphname = twosuperior;
lastChange = "2016-04-07 19:09:02 +0000";
layers = (
{
layerId = UUID0;
name = Regular;
paths = (
{
closed = 1;
nodes = (
"59 347 LINE",
"293 347 LINE",
"295 459 LINE",
"284 459 LINE",
"281 419 OFFCURVE",
"262 415 OFFCURVE",
"207 414 CURVE SMOOTH",
"101 412 LINE",
"101 413 LINE",
"215 479 OFFCURVE",
"286 545 OFFCURVE",
"286 618 CURVE SMOOTH",
"286 667 OFFCURVE",
"251 714 OFFCURVE",
"166 714 CURVE SMOOTH",
"86 714 OFFCURVE",
"50 664 OFFCURVE",
"50 625 CURVE SMOOTH",
"50 596 OFFCURVE",
"65 576 OFFCURVE",
"93 576 CURVE SMOOTH",
"119 576 OFFCURVE",
"136 594 OFFCURVE",
"136 619 CURVE SMOOTH",
"136 644 OFFCURVE",
"123 660 OFFCURVE",
"95 660 CURVE SMOOTH",
"93 660 OFFCURVE",
"87 660 OFFCURVE",
"84 658 CURVE",
"84 659 LINE SMOOTH",
"89 676 OFFCURVE",
"110 695 OFFCURVE",
"146 695 CURVE SMOOTH",
"179 695 OFFCURVE",
"198 675 OFFCURVE",
"198 626 CURVE SMOOTH",
"198 536 OFFCURVE",
"180 475 OFFCURVE",
"59 402 CURVE"
);
}
);
width = 350;
}
);
unicode = 00B2;
},
{
glyphname = threesuperior;
lastChange = "2016-04-07 19:09:02 +0000";
layers = (
{
layerId = UUID0;
name = Regular;
paths = (
{
closed = 1;
nodes = (
"179 539 LINE",
"245 551 OFFCURVE",
"277 584 OFFCURVE",
"277 627 CURVE SMOOTH",
"277 686 OFFCURVE",
"230 714 OFFCURVE",
"160 714 CURVE SMOOTH",
"85 714 OFFCURVE",
"49 665 OFFCURVE",
"49 628 CURVE SMOOTH",
"49 599 OFFCURVE",
"65 581 OFFCURVE",
"92 581 CURVE SMOOTH",
"117 581 OFFCURVE",
"131 597 OFFCURVE",
"131 620 CURVE SMOOTH",
"131 646 OFFCURVE",
"114 664 OFFCURVE",
"83 660 CURVE",
"83 661 LINE SMOOTH",
"88 676 OFFCURVE",
"111 696 OFFCURVE",
"146 696 CURVE SMOOTH",
"178 696 OFFCURVE",
"201 677 OFFCURVE",
"201 626 CURVE SMOOTH",
"201 582 OFFCURVE",
"191 545 OFFCURVE",
"134 545 CURVE SMOOTH",
"120 545 LINE",
"120 530 LINE",
"135 530 LINE SMOOTH",
"192 530 OFFCURVE",
"212 497 OFFCURVE",
"212 435 CURVE SMOOTH",
"212 384 OFFCURVE",
"185 358 OFFCURVE",
"141 358 CURVE SMOOTH",
"108 358 OFFCURVE",
"91 369 OFFCURVE",
"82 383 CURVE",
"82 385 LINE",
"114 381 OFFCURVE",
"132 399 OFFCURVE",
"132 427 CURVE SMOOTH",
"132 450 OFFCURVE",
"115 469 OFFCURVE",
"89 469 CURVE SMOOTH",
"62 469 OFFCURVE",
"46 449 OFFCURVE",
"46 417 CURVE SMOOTH",
"46 375 OFFCURVE",
"87 340 OFFCURVE",
"159 340 CURVE SMOOTH",
"244 340 OFFCURVE",
"295 373 OFFCURVE",
"295 441 CURVE SMOOTH",
"295 510 OFFCURVE",
"237 534 OFFCURVE",
"179 538 CURVE"
);
}
);
width = 336;
}
);
unicode = 00B3;
},
{
glyphname = foursuperior;
lastChange = "2016-04-07 19:09:02 +0000";
layers = (
{
layerId = UUID0;
name = Regular;
paths = (
{
closed = 1;
nodes = (
"21 420 LINE",
"160 420 LINE",
"160 372 LINE",
"110 367 LINE",
"110 347 LINE",
"301 347 LINE",
"301 367 LINE",
"250 372 LINE",
"250 420 LINE",
"301 420 LINE",
"301 447 LINE",
"250 446 LINE",
"250 715 LINE",
"208 715 LINE",
"21 444 LINE"
);
},
{
closed = 1;
nodes = (
"160 604 LINE",
"160 444 LINE",
"46 444 LINE",
"46 445 LINE",
"159 604 LINE"
);
}
);
width = 346;
}
);
unicode = 2074;
},
{
glyphname = fraction;
lastChange = "2016-04-07 19:09:02 +0000";
layers = (
{
layerId = UUID0;
name = Regular;
paths = (
{
closed = 1;
nodes = (
"9 0 LINE",
"390 714 LINE",
"359 714 LINE",
"-21 0 LINE"
);
}
);
width = 367;
}
);
unicode = 2044;
},
{
glyphname = onequarter;
lastChange = "2016-04-07 19:09:02 +0000";
layers = (
{
layerId = UUID0;
name = Regular;
paths = (
{
closed = 1;
nodes = (
"168 707 LINE",
"160 721 LINE",
"115 703 LINE",
"18 692 LINE",
"18 672 LINE",
"78 672 LINE",
"78 372 LINE",
"28 367 LINE",
"28 347 LINE",
"219 347 LINE",
"219 367 LINE",
"168 372 LINE"
);
},
{
closed = 1;
nodes = (
"131 0 LINE",
"511 714 LINE",
"480 714 LINE",
"100 0 LINE"
);
},
{
closed = 1;
nodes = (
"284 79 LINE",
"423 79 LINE",
"423 30 LINE",
"373 25 LINE",
"373 5 LINE",
"564 5 LINE",
"564 25 LINE",
"514 30 LINE",
"514 79 LINE",
"564 79 LINE",
"564 105 LINE",
"514 104 LINE",
"514 373 LINE",
"471 373 LINE",
"284 103 LINE"
);
},
{
closed = 1;
nodes = (
"423 262 LINE",
"423 103 LINE",
"309 102 LINE",
"309 103 LINE",
"422 262 LINE"
);
}
);
width = 584;
}
);
unicode = 00BC;
},
{
glyphname = onehalf;
lastChange = "2016-04-07 19:09:02 +0000";
layers = (
{
layerId = UUID0;
name = Regular;
paths = (
{
closed = 1;
nodes = (
"361 0 LINE",
"595 0 LINE",
"598 113 LINE",
"586 113 LINE",
"583 73 OFFCURVE",
"564 68 OFFCURVE",
"509 67 CURVE SMOOTH",
"403 65 LINE",
"403 66 LINE",
"518 132 OFFCURVE",
"588 199 OFFCURVE",
"588 271 CURVE SMOOTH",
"588 320 OFFCURVE",
"554 367 OFFCURVE",
"468 367 CURVE SMOOTH",
"389 367 OFFCURVE",
"353 317 OFFCURVE",
"353 278 CURVE SMOOTH",
"353 249 OFFCURVE",
"368 229 OFFCURVE",
"396 229 CURVE SMOOTH",
"421 229 OFFCURVE",
"438 247 OFFCURVE",
"438 272 CURVE SMOOTH",
"438 297 OFFCURVE",
"425 313 OFFCURVE",
"397 313 CURVE SMOOTH",
"395 313 OFFCURVE",
"389 313 OFFCURVE",
"386 312 CURVE",
"386 313 LINE SMOOTH",
"391 329 OFFCURVE",
"413 349 OFFCURVE",
"448 349 CURVE SMOOTH",
"481 349 OFFCURVE",
"500 328 OFFCURVE",
"500 280 CURVE SMOOTH",
"500 189 OFFCURVE",
"482 128 OFFCURVE",
"361 56 CURVE"
);
},
{
closed = 1;
nodes = (
"168 707 LINE",
"160 721 LINE",
"115 703 LINE",
"18 692 LINE",
"18 672 LINE",
"78 672 LINE",
"78 372 LINE",
"28 367 LINE",
"28 347 LINE",
"219 347 LINE",
"219 367 LINE",
"168 372 LINE"
);
},
{
closed = 1;
nodes = (
"131 0 LINE",
"511 714 LINE",
"480 714 LINE",
"100 0 LINE"
);
}
);
width = 624;
}
);
unicode = 00BD;
},
{
glyphname = threequarters;
lastChange = "2016-04-07 19:09:02 +0000";
layers = (
{
layerId = UUID0;
name = Regular;
paths = (
{
closed = 1;
nodes = (
"157 539 LINE",
"223 551 OFFCURVE",
"256 584 OFFCURVE",
"256 627 CURVE SMOOTH",
"256 686 OFFCURVE",
"209 714 OFFCURVE",
"139 714 CURVE SMOOTH",
"63 714 OFFCURVE",
"28 665 OFFCURVE",
"28 628 CURVE SMOOTH",
"28 599 OFFCURVE",
"44 581 OFFCURVE",
"70 581 CURVE SMOOTH",
"95 581 OFFCURVE",
"110 597 OFFCURVE",
"110 620 CURVE SMOOTH",
"110 646 OFFCURVE",
"93 664 OFFCURVE",
"62 660 CURVE",
"62 661 LINE SMOOTH",
"66 676 OFFCURVE",
"89 696 OFFCURVE",
"125 696 CURVE SMOOTH",
"157 696 OFFCURVE",
"180 677 OFFCURVE",
"180 626 CURVE SMOOTH",
"180 582 OFFCURVE",
"170 545 OFFCURVE",
"113 545 CURVE SMOOTH",
"99 545 LINE",
"99 530 LINE",
"113 530 LINE SMOOTH",
"171 530 OFFCURVE",
"190 497 OFFCURVE",
"190 435 CURVE SMOOTH",
"190 384 OFFCURVE",
"163 358 OFFCURVE",
"119 358 CURVE SMOOTH",
"87 358 OFFCURVE",
"69 369 OFFCURVE",
"60 383 CURVE",
"60 385 LINE",
"93 381 OFFCURVE",
"110 399 OFFCURVE",
"110 427 CURVE SMOOTH",
"110 450 OFFCURVE",
"94 469 OFFCURVE",
"68 469 CURVE SMOOTH",
"40 469 OFFCURVE",
"25 449 OFFCURVE",
"25 417 CURVE SMOOTH",
"25 375 OFFCURVE",
"65 340 OFFCURVE",
"137 340 CURVE SMOOTH",
"222 340 OFFCURVE",
"273 373 OFFCURVE",
"273 441 CURVE SMOOTH",
"273 510 OFFCURVE",
"215 534 OFFCURVE",
"157 538 CURVE"
);
},
{
closed = 1;
nodes = (
"156 0 LINE",
"537 714 LINE",
"506 714 LINE",
"125 0 LINE"
);
},
{
closed = 1;
nodes = (
"324 74 LINE",
"463 74 LINE",
"463 25 LINE",
"413 20 LINE",
"413 0 LINE",
"604 0 LINE",
"604 20 LINE",
"554 25 LINE",
"554 74 LINE",
"604 74 LINE",
"604 100 LINE",
"554 100 LINE",
"554 368 LINE",
"511 368 LINE",
"324 98 LINE"
);
},
{
closed = 1;
nodes = (
"463 257 LINE",
"463 98 LINE",
"349 97 LINE",
"349 98 LINE",
"462 257 LINE"
);
}
);
width = 622;
}
);
unicode = 00BE;
},
{
glyphname = quoteleft;
lastChange = "2016-04-07 19:09:02 +0000";
layers = (
{
layerId = UUID0;
name = Regular;
paths = (
{
closed = 1;
nodes = (
"144 707 LINE",
"62 662 OFFCURVE",
"41 591 OFFCURVE",
"41 536 CURVE SMOOTH",
"41 492 OFFCURVE",
"61 448 OFFCURVE",
"105 448 CURVE SMOOTH",
"149 448 OFFCURVE",
"165 488 OFFCURVE",
"165 515 CURVE SMOOTH",
"165 555 OFFCURVE",
"141 583 OFFCURVE",
"109 583 CURVE SMOOTH",
"100 583 OFFCURVE",
"93 582 OFFCURVE",
"82 574 CURVE",
"80 574 LINE",
"80 602 OFFCURVE",
"94 652 OFFCURVE",
"151 682 CURVE"
);
}
);
width = 206;
}
);
leftKerningGroup = quoteleft;
rightKerningGroup = quoteleft;
unicode = 2018;
},
{
glyphname = quoteright;
lastChange = "2016-04-07 19:09:02 +0000";
layers = (
{
layerId = UUID0;
name = Regular;
paths = (
{
closed = 1;
nodes = (
"66 448 LINE",
"148 493 OFFCURVE",
"169 563 OFFCURVE",
"169 619 CURVE SMOOTH",
"169 663 OFFCURVE",
"149 707 OFFCURVE",
"104 707 CURVE SMOOTH",
"61 707 OFFCURVE",
"45 667 OFFCURVE",
"45 640 CURVE SMOOTH",
"45 600 OFFCURVE",
"69 572 OFFCURVE",
"101 572 CURVE SMOOTH",
"110 572 OFFCURVE",
"117 573 OFFCURVE",
"128 581 CURVE",
"130 581 LINE",
"130 553 OFFCURVE",
"116 503 OFFCURVE",
"59 473 CURVE"
);
}
);
width = 204;
}
);
leftKerningGroup = quoteright;
rightKerningGroup = quoteright;
unicode = 2019;
},
{
glyphname = degree;
lastChange = "2016-04-07 19:09:02 +0000";
layers = (
{
layerId = UUID0;
name = Regular;
paths = (
{
closed = 1;
nodes = (
"36 471 OFFCURVE",
"102 400 OFFCURVE",
"192 400 CURVE SMOOTH",
"283 400 OFFCURVE",
"349 471 OFFCURVE",
"349 557 CURVE SMOOTH",
"349 644 OFFCURVE",
"283 714 OFFCURVE",
"192 714 CURVE SMOOTH",
"102 714 OFFCURVE",
"36 644 OFFCURVE",
"36 557 CURVE SMOOTH"
);
},
{
closed = 1;
nodes = (
"88 619 OFFCURVE",
"128 672 OFFCURVE",
"192 672 CURVE SMOOTH",
"257 672 OFFCURVE",
"297 619 OFFCURVE",
"297 557 CURVE SMOOTH",
"297 495 OFFCURVE",
"257 442 OFFCURVE",
"192 442 CURVE SMOOTH",
"128 442 OFFCURVE",
"88 495 OFFCURVE",
"88 557 CURVE SMOOTH"
);
}
);
width = 385;
}
);
unicode = 00B0;
},
{
glyphname = ordfeminine;
lastChange = "2016-04-07 19:09:02 +0000";
layers = (
{
layerId = UUID0;
name = Regular;
paths = (
{
closed = 1;
nodes = (
"324 365 LINE",
"324 556 LINE SMOOTH",
"324 653 OFFCURVE",
"309 714 OFFCURVE",
"188 714 CURVE SMOOTH",
"118 714 OFFCURVE",
"60 674 OFFCURVE",
"60 616 CURVE SMOOTH",
"60 592 OFFCURVE",
"76 568 OFFCURVE",
"104 568 CURVE SMOOTH",
"132 568 OFFCURVE",
"149 587 OFFCURVE",
"149 612 CURVE SMOOTH",
"149 635 OFFCURVE",
"133 651 OFFCURVE",
"112 651 CURVE SMOOTH",
"108 651 OFFCURVE",
"105 650 OFFCURVE",
"102 650 CURVE",
"102 651 LINE",
"110 667 OFFCURVE",
"128 688 OFFCURVE",
"173 688 CURVE SMOOTH",
"231 688 OFFCURVE",
"233 646 OFFCURVE",
"233 584 CURVE SMOOTH",
"233 538 LINE",
"222 539 OFFCURVE",
"211 540 OFFCURVE",
"200 540 CURVE SMOOTH",
"88 540 OFFCURVE",
"42 480 OFFCURVE",
"42 423 CURVE SMOOTH",
"42 380 OFFCURVE",
"69 336 OFFCURVE",
"131 336 CURVE SMOOTH",
"180 336 OFFCURVE",
"211 358 OFFCURVE",
"234 404 CURVE",
"235 404 LINE",
"244 346 LINE",
"360 346 LINE",
"360 361 LINE"
);
},
{
closed = 1;
nodes = (
"128 455 OFFCURVE",
"133 516 OFFCURVE",
"208 516 CURVE SMOOTH",
"216 516 OFFCURVE",
"224 515 OFFCURVE",
"233 514 CURVE",
"233 481 LINE SMOOTH",
"233 421 OFFCURVE",
"200 379 OFFCURVE",
"170 379 CURVE SMOOTH",
"142 379 OFFCURVE",
"128 395 OFFCURVE",
"128 431 CURVE SMOOTH"
);
}
);
width = 400;
}
);
unicode = 00AA;
},
{
glyphname = ordmasculine;
lastChange = "2016-04-07 19:09:02 +0000";
layers = (
{
layerId = UUID0;
name = Regular;
paths = (
{
closed = 1;
nodes = (
"134 590 OFFCURVE",
"142 687 OFFCURVE",
"215 687 CURVE SMOOTH",
"290 687 OFFCURVE",
"293 593 OFFCURVE",
"293 518 CURVE SMOOTH",
"293 458 OFFCURVE",
"285 368 OFFCURVE",
"213 368 CURVE SMOOTH",
"136 368 OFFCURVE",
"134 467 OFFCURVE",
"134 541 CURVE SMOOTH"
);
},
{
closed = 1;
nodes = (
"35 428 OFFCURVE",
"101 341 OFFCURVE",
"217 341 CURVE SMOOTH",
"316 341 OFFCURVE",
"393 431 OFFCURVE",
"393 533 CURVE SMOOTH",
"393 620 OFFCURVE",
"336 714 OFFCURVE",
"217 714 CURVE SMOOTH",
"100 714 OFFCURVE",
"35 617 OFFCURVE",
"35 524 CURVE SMOOTH"
);
}
);
width = 428;
}
);
unicode = 00BA;
},
{
glyphname = mu;
lastChange = "2016-04-07 19:09:02 +0000";
layers = (
{
layerId = UUID0;
name = Regular;
paths = (
{
closed = 1;
nodes = (
"225 -220 LINE",
"225 -201 LINE",
"182 -201 OFFCURVE",
"158 -179 OFFCURVE",
"158 -97 CURVE SMOOTH",
"158 7 LINE",
"176 1 OFFCURVE",
"194 0 OFFCURVE",
"208 0 CURVE SMOOTH",
"286 0 OFFCURVE",
"332 44 OFFCURVE",
"359 84 CURVE",
"361 84 LINE",
"359 14 LINE",
"368 0 LINE",
"479 0 LINE",
"479 490 LINE",
"359 490 LINE",
"359 145 LINE",
"347 93 OFFCURVE",
"304 43 OFFCURVE",
"259 43 CURVE SMOOTH",
"242 43 OFFCURVE",
"192 46 OFFCURVE",
"192 147 CURVE SMOOTH",
"192 490 LINE",
"72 490 LINE",
"72 -58 LINE SMOOTH",
"72 -173 OFFCURVE",
"103 -220 OFFCURVE",
"174 -220 CURVE SMOOTH"
);
}
);
width = 550;
}
);
unicode = 00B5;
},
{
glyphname = quotedblleft;
lastChange = "2016-04-07 19:09:02 +0000";
layers = (
{
layerId = UUID0;
name = Regular;
paths = (
{
closed = 1;
nodes = (
"305 707 LINE",
"223 662 OFFCURVE",
"202 591 OFFCURVE",
"202 536 CURVE SMOOTH",
"202 492 OFFCURVE",
"222 448 OFFCURVE",
"267 448 CURVE SMOOTH",
"311 448 OFFCURVE",
"326 488 OFFCURVE",
"326 515 CURVE SMOOTH",
"326 555 OFFCURVE",
"302 583 OFFCURVE",
"271 583 CURVE SMOOTH",
"261 583 OFFCURVE",
"254 582 OFFCURVE",
"243 574 CURVE",
"241 574 LINE",
"241 602 OFFCURVE",
"255 652 OFFCURVE",
"313 682 CURVE"
);
},
{
closed = 1;
nodes = (
"144 707 LINE",
"62 662 OFFCURVE",
"41 591 OFFCURVE",
"41 536 CURVE SMOOTH",
"41 492 OFFCURVE",
"61 448 OFFCURVE",
"105 448 CURVE SMOOTH",
"149 448 OFFCURVE",
"165 488 OFFCURVE",
"165 515 CURVE SMOOTH",
"165 555 OFFCURVE",
"141 583 OFFCURVE",
"109 583 CURVE SMOOTH",
"100 583 OFFCURVE",
"93 582 OFFCURVE",
"82 574 CURVE",
"80 574 LINE",
"80 602 OFFCURVE",
"94 652 OFFCURVE",
"151 682 CURVE"
);
}
);
width = 367;
}
);
leftKerningGroup = quoteleft;
rightKerningGroup = quoteleft;
unicode = 201C;
},
{
glyphname = quotedblright;
lastChange = "2016-04-07 19:09:02 +0000";
layers = (
{
layerId = UUID0;
name = Regular;
paths = (
{
closed = 1;
nodes = (
"66 448 LINE",
"148 493 OFFCURVE",
"169 563 OFFCURVE",
"169 619 CURVE SMOOTH",
"169 663 OFFCURVE",
"149 707 OFFCURVE",
"104 707 CURVE SMOOTH",
"61 707 OFFCURVE",
"45 667 OFFCURVE",
"45 640 CURVE SMOOTH",
"45 600 OFFCURVE",
"69 572 OFFCURVE",
"101 572 CURVE SMOOTH",
"110 572 OFFCURVE",
"117 573 OFFCURVE",
"128 581 CURVE",
"130 581 LINE",
"130 553 OFFCURVE",
"116 503 OFFCURVE",
"59 473 CURVE"
);
},
{
closed = 1;
nodes = (
"227 448 LINE",
"309 493 OFFCURVE",
"330 563 OFFCURVE",
"330 619 CURVE SMOOTH",
"330 663 OFFCURVE",
"311 707 OFFCURVE",
"266 707 CURVE SMOOTH",
"222 707 OFFCURVE",
"206 667 OFFCURVE",
"206 640 CURVE SMOOTH",
"206 600 OFFCURVE",
"230 572 OFFCURVE",
"262 572 CURVE SMOOTH",
"271 572 OFFCURVE",
"278 573 OFFCURVE",
"290 581 CURVE",
"292 581 LINE",
"292 553 OFFCURVE",
"277 503 OFFCURVE",
"220 473 CURVE"
);
}
);
width = 365;
}
);
leftKerningGroup = quoteright;
rightKerningGroup = quoteright;
unicode = 201D;
},
{
glyphname = periodcentered;
lastChange = "2016-04-07 19:09:02 +0000";
layers = (
{
layerId = UUID0;
name = Regular;
paths = (
{
closed = 1;
nodes = (
"51 302 OFFCURVE",
"79 276 OFFCURVE",
"118 276 CURVE SMOOTH",
"159 276 OFFCURVE",
"186 302 OFFCURVE",
"186 342 CURVE SMOOTH",
"186 383 OFFCURVE",
"159 410 OFFCURVE",
"118 410 CURVE SMOOTH",
"79 410 OFFCURVE",
"51 383 OFFCURVE",
"51 342 CURVE SMOOTH"
);
}
);
width = 236;
}
);
unicode = 00B7;
},
{
glyphname = bullet;
lastChange = "2016-04-07 19:09:02 +0000";
layers = (
{
layerId = UUID0;
name = Regular;
paths = (
{
closed = 1;
nodes = (
"43 279 OFFCURVE",
"88 232 OFFCURVE",
"150 232 CURVE SMOOTH",
"215 232 OFFCURVE",
"256 279 OFFCURVE",
"256 341 CURVE SMOOTH",
"256 406 OFFCURVE",
"215 454 OFFCURVE",
"150 454 CURVE SMOOTH",
"88 454 OFFCURVE",
"43 406 OFFCURVE",
"43 341 CURVE SMOOTH"
);
}
);
width = 299;
}
);
unicode = 2022;
},
{
glyphname = foundryicon;
lastChange = "2016-04-07 19:09:02 +0000";
layers = (
{
layerId = UUID0;
name = Regular;
paths = (
{
closed = 1;
nodes = (
"1441 -6 OFFCURVE",
"1448 95 OFFCURVE",
"1441 140 CURVE SMOOTH",
"1439 151 OFFCURVE",
"1438 145 OFFCURVE",
"1437 140 CURVE SMOOTH",
"1425 78 OFFCURVE",
"1404 39 OFFCURVE",
"1376 18 CURVE",
"1358 44 OFFCURVE",
"1350 79 OFFCURVE",
"1350 122 CURVE",
"1396 143 OFFCURVE",
"1421 229 OFFCURVE",
"1421 300 CURVE SMOOTH",
"1421 375 OFFCURVE",
"1401 407 OFFCURVE",
"1328 419 CURVE",
"1279 331 OFFCURVE",
"1265 177 OFFCURVE",
"1288 61 CURVE",
"1290 53 LINE",
"1285 43 OFFCURVE",
"1271 15 OFFCURVE",
"1259 18 CURVE",
"1241 80 OFFCURVE",
"1247 180 OFFCURVE",
"1256 245 CURVE",
"1247 255 OFFCURVE",
"1215 268 OFFCURVE",
"1201 265 CURVE",
"1197 261 OFFCURVE",
"1189 227 OFFCURVE",
"1188 221 CURVE",
"1175 225 OFFCURVE",
"1158 229 OFFCURVE",
"1144 229 CURVE",
"1115 198 OFFCURVE",
"1105 157 OFFCURVE",
"1103 112 CURVE",
"1103 102 OFFCURVE",
"1103 90 OFFCURVE",
"1103 79 CURVE",
"1095 59 OFFCURVE",
"1081 30 OFFCURVE",
"1058 20 CURVE",
"1046 28 OFFCURVE",
"1041 45 OFFCURVE",
"1037 62 CURVE",
"1071 73 OFFCURVE",
"1089 120 OFFCURVE",
"1089 162 CURVE SMOOTH",
"1089 223 OFFCURVE",
"1051 245 OFFCURVE",
"998 241 CURVE",
"983 215 OFFCURVE",
"973 162 OFFCURVE",
"972 117 CURVE",
"969 57 OFFCURVE",
"991 0 OFFCURVE",
"1056 0 CURVE",
"1083 3 OFFCURVE",
"1101 22 OFFCURVE",
"1111 39 CURVE",
"1118 16 OFFCURVE",
"1135 0 OFFCURVE",
"1167 0 CURVE",
"1183 2 OFFCURVE",
"1205 15 OFFCURVE",
"1209 32 CURVE",
"1216 15 OFFCURVE",
"1235 -6 OFFCURVE",
"1258 -6 CURVE SMOOTH",
"1279 -6 OFFCURVE",
"1294 13 OFFCURVE",
"1299 31 CURVE",
"1313 7 OFFCURVE",
"1336 -6 OFFCURVE",
"1366 -6 CURVE SMOOTH"
);
},
{
closed = 1;
nodes = (
"756 253 OFFCURVE",
"721 267 OFFCURVE",
"700 265 CURVE",
"707 218 OFFCURVE",
"725 124 OFFCURVE",
"708 47 CURVE SMOOTH",
"707 42 OFFCURVE",
"704 32 OFFCURVE",
"695 30 CURVE",
"677 87 OFFCURVE",
"677 151 OFFCURVE",
"681 218 CURVE",
"665 233 OFFCURVE",
"634 239 OFFCURVE",
"622 241 CURVE",
"615 227 OFFCURVE",
"610 205 OFFCURVE",
"610 175 CURVE SMOOTH",
"610 142 OFFCURVE",
"613 108 OFFCURVE",
"621 80 CURVE",
"612 59 OFFCURVE",
"592 23 OFFCURVE",
"560 13 CURVE",
"481 69 OFFCURVE",
"510 320 OFFCURVE",
"551 359 CURVE",
"562 345 OFFCURVE",
"574 293 OFFCURVE",
"569 260 CURVE",
"568 257 OFFCURVE",
"568 250 OFFCURVE",
"575 258 CURVE",
"598 278 OFFCURVE",
"615 303 OFFCURVE",
"615 333 CURVE SMOOTH",
"615 411 OFFCURVE",
"558 424 OFFCURVE",
"520 432 CURVE",
"452 373 OFFCURVE",
"428 270 OFFCURVE",
"429 169 CURVE",
"431 81 OFFCURVE",
"467 -10 OFFCURVE",
"563 -10 CURVE SMOOTH",
"604 -10 OFFCURVE",
"624 20 OFFCURVE",
"633 45 CURVE",
"646 18 OFFCURVE",
"667 0 OFFCURVE",
"696 0 CURVE SMOOTH",
"704 0 OFFCURVE",
"712 6 OFFCURVE",
"715 11 CURVE",
"705 -71 OFFCURVE",
"703 -126 OFFCURVE",
"652 -160 CURVE",
"646 -136 OFFCURVE",
"650 -104 OFFCURVE",
"653 -81 CURVE",
"637 -64 OFFCURVE",
"612 -58 OFFCURVE",
"592 -58 CURVE",
"587 -74 OFFCURVE",
"583 -93 OFFCURVE",
"583 -113 CURVE SMOOTH",
"583 -158 OFFCURVE",
"594 -182 OFFCURVE",
"638 -182 CURVE SMOOTH",
"761 -182 OFFCURVE",
"796 38 OFFCURVE",
"772 235 CURVE"
);
},
{
closed = 1;
nodes = (
"244 69 LINE",
"245 69 LINE",
"245 68 OFFCURVE",
"248 63 OFFCURVE",
"251 63 CURVE",
"249 62 OFFCURVE",
"248 61 OFFCURVE",
"248 59 CURVE SMOOTH",
"248 57 OFFCURVE",
"260 54 OFFCURVE",
"273 47 CURVE",
"268 45 OFFCURVE",
"265 45 OFFCURVE",
"260 41 CURVE",
"261 40 OFFCURVE",
"262 40 OFFCURVE",
"263 39 CURVE",
"270 42 OFFCURVE",
"271 43 OFFCURVE",
"278 43 CURVE SMOOTH",
"286 44 OFFCURVE",
"292 40 OFFCURVE",
"298 34 CURVE",
"298 34 OFFCURVE",
"299 34 OFFCURVE",
"300 36 CURVE",
"298 41 OFFCURVE",
"293 43 OFFCURVE",
"289 45 CURVE",
"297 45 OFFCURVE",
"301 43 OFFCURVE",
"307 41 CURVE",
"308 42 OFFCURVE",
"308 41 OFFCURVE",
"308 42 CURVE",
"298 49 OFFCURVE",
"289 49 OFFCURVE",
"283 48 CURVE",
"273 53 OFFCURVE",
"263 57 OFFCURVE",
"254 60 CURVE",
"258 63 LINE",
"263 65 OFFCURVE",
"263 71 OFFCURVE",
"263 72 CURVE",
"326 90 OFFCURVE",
"335 171 OFFCURVE",
"360 209 CURVE",
"370 222 LINE",
"370 222 OFFCURVE",
"371 222 OFFCURVE",
"370 223 CURVE",
"367 223 OFFCURVE",
"362 223 OFFCURVE",
"357 223 CURVE",
"361 236 LINE",
"361 236 OFFCURVE",
"362 238 OFFCURVE",
"360 238 CURVE SMOOTH",
"347 232 LINE",
"342 236 OFFCURVE",
"335 238 OFFCURVE",
"328 238 CURVE SMOOTH",
"311 238 OFFCURVE",
"293 225 OFFCURVE",
"287 204 CURVE",
"275 193 OFFCURVE",
"208 182 OFFCURVE",
"139 169 CURVE",
"126 169 OFFCURVE",
"42 178 OFFCURVE",
"40 179 CURVE SMOOTH",
"37 179 OFFCURVE",
"35 175 OFFCURVE",
"39 172 CURVE SMOOTH",
"57 155 OFFCURVE",
"104 157 OFFCURVE",
"117 144 CURVE SMOOTH",
"135 125 OFFCURVE",
"162 89 OFFCURVE",
"202 75 CURVE",
"202 74 OFFCURVE",
"201 68 OFFCURVE",
"205 65 CURVE",
"202 63 OFFCURVE",
"201 63 OFFCURVE",
"201 61 CURVE SMOOTH",
"201 58 OFFCURVE",
"213 53 OFFCURVE",
"224 44 CURVE",
"217 43 OFFCURVE",
"211 43 OFFCURVE",
"206 41 CURVE",
"206 40 OFFCURVE",
"206 39 OFFCURVE",
"207 38 CURVE",
"214 40 OFFCURVE",
"222 41 OFFCURVE",
"228 39 CURVE",
"235 38 OFFCURVE",
"240 31 OFFCURVE",
"244 25 CURVE",
"246 25 OFFCURVE",
"247 25 OFFCURVE",
"247 26 CURVE",
"245 32 OFFCURVE",
"241 37 OFFCURVE",
"238 39 CURVE",
"246 38 OFFCURVE",
"248 36 OFFCURVE",
"253 31 CURVE",
"254 32 OFFCURVE",
"255 32 OFFCURVE",
"255 33 CURVE",
"248 42 OFFCURVE",
"238 42 OFFCURVE",
"233 43 CURVE",
"225 49 OFFCURVE",
"215 56 OFFCURVE",
"208 61 CURVE",
"208 62 OFFCURVE",
"210 62 OFFCURVE",
"212 63 CURVE",
"216 63 OFFCURVE",
"220 68 OFFCURVE",
"221 70 CURVE",
"226 70 OFFCURVE",
"231 69 OFFCURVE",
"237 69 CURVE"
);
},
{
closed = 1;
nodes = (
"782 247 LINE",
"809 181 OFFCURVE",
"813 71 OFFCURVE",
"816 -4 CURVE",
"844 -8 OFFCURVE",
"861 11 OFFCURVE",
"868 37 CURVE",
"875 55 OFFCURVE",
"875 89 OFFCURVE",
"875 110 CURVE",
"880 133 OFFCURVE",
"897 150 OFFCURVE",
"904 167 CURVE",
"909 133 OFFCURVE",
"929 120 OFFCURVE",
"963 129 CURVE",
"958 159 OFFCURVE",
"961 200 OFFCURVE",
"966 230 CURVE",
"957 245 OFFCURVE",
"933 253 OFFCURVE",
"907 255 CURVE",
"902 245 OFFCURVE",
"897 227 OFFCURVE",
"897 215 CURVE",
"892 199 OFFCURVE",
"883 180 OFFCURVE",
"868 153 CURVE",
"866 187 OFFCURVE",
"858 210 OFFCURVE",
"849 227 CURVE",
"838 239 LINE",
"822 242 LINE",
"807 245 LINE"
);
},
{
closed = 1;
nodes = (
"1149 75 OFFCURVE",
"1167 169 OFFCURVE",
"1186 192 CURVE",
"1184 169 OFFCURVE",
"1183 112 OFFCURVE",
"1195 66 CURVE",
"1193 49 OFFCURVE",
"1176 31 OFFCURVE",
"1166 23 CURVE"
);
},
{
closed = 1;
nodes = (
"1352 215 OFFCURVE",
"1364 290 OFFCURVE",
"1377 341 CURVE",
"1386 291 OFFCURVE",
"1377 191 OFFCURVE",
"1349 151 CURVE"
);
},
{
closed = 1;
nodes = (
"1057 187 OFFCURVE",
"1063 171 OFFCURVE",
"1063 153 CURVE SMOOTH",
"1063 123 OFFCURVE",
"1054 87 OFFCURVE",
"1036 84 CURVE",
"1036 124 OFFCURVE",
"1041 161 OFFCURVE",
"1052 195 CURVE"
);
},
{
closed = 1;
nodes = (
"355 31 OFFCURVE",
"357 30 OFFCURVE",
"360 30 CURVE SMOOTH",
"364 30 OFFCURVE",
"365 31 OFFCURVE",
"365 34 CURVE SMOOTH",
"365 36 OFFCURVE",
"364 37 OFFCURVE",
"360 37 CURVE SMOOTH",
"357 37 OFFCURVE",
"355 36 OFFCURVE",
"355 34 CURVE SMOOTH"
);
},
{
closed = 1;
nodes = (
"406 30 LINE",
"406 29 OFFCURVE",
"406 28 OFFCURVE",
"406 28 CURVE SMOOTH",
"407 27 OFFCURVE",
"407 27 OFFCURVE",
"407 27 CURVE SMOOTH",
"408 27 OFFCURVE",
"408 26 OFFCURVE",
"409 26 CURVE SMOOTH",
"410 26 LINE",
"411 26 LINE SMOOTH",
"413 27 OFFCURVE",
"414 28 OFFCURVE",
"414 30 CURVE SMOOTH",
"414 31 OFFCURVE",
"414 32 OFFCURVE",
"413 33 CURVE",
"413 34 OFFCURVE",
"413 34 OFFCURVE",
"413 34 CURVE",
"412 35 LINE SMOOTH",
"412 35 OFFCURVE",
"411 36 OFFCURVE",
"411 36 CURVE",
"410 36 LINE",
"410 36 OFFCURVE",
"409 35 OFFCURVE",
"409 35 CURVE",
"409 35 OFFCURVE",
"408 35 OFFCURVE",
"408 35 CURVE",
"408 34 LINE",
"407 34 OFFCURVE",
"407 34 OFFCURVE",
"407 33 CURVE SMOOTH",
"406 32 OFFCURVE",
"406 31 OFFCURVE",
"406 30 CURVE"
);
},
{
closed = 1;
nodes = (
"376 26 OFFCURVE",
"376 25 OFFCURVE",
"376 25 CURVE",
"376 25 OFFCURVE",
"376 24 OFFCURVE",
"377 24 CURVE",
"377 24 LINE",
"379 23 LINE",
"380 23 LINE",
"381 23 LINE",
"382 23 LINE",
"383 23 LINE SMOOTH",
"384 23 OFFCURVE",
"385 24 OFFCURVE",
"386 26 CURVE SMOOTH",
"386 27 LINE",
"386 28 LINE",
"385 29 LINE SMOOTH",
"385 30 OFFCURVE",
"384 30 OFFCURVE",
"383 30 CURVE",
"381 30 LINE SMOOTH",
"380 30 OFFCURVE",
"379 30 OFFCURVE",
"379 30 CURVE SMOOTH",
"377 29 OFFCURVE",
"376 29 OFFCURVE",
"376 27 CURVE SMOOTH"
);
}
);
width = 1480;
}
);
},
{
glyphname = e;
lastChange = "2016-04-07 19:09:02 +0000";
layers = (
{
layerId = UUID0;
name = Regular;
paths = (
{
closed = 1;
nodes = (
"438 272 LINE",
"438 405 OFFCURVE",
"388 505 OFFCURVE",
"249 505 CURVE SMOOTH",
"101 505 OFFCURVE",
"40 368 OFFCURVE",
"40 245 CURVE SMOOTH",
"40 90 OFFCURVE",
"108 -15 OFFCURVE",
"263 -15 CURVE SMOOTH",
"327 -15 OFFCURVE",
"395 12 OFFCURVE",
"442 91 CURVE",
"423 103 LINE",
"379 29 OFFCURVE",
"326 17 OFFCURVE",
"286 17 CURVE SMOOTH",
"213 17 OFFCURVE",
"165 75 OFFCURVE",
"165 230 CURVE SMOOTH",
"165 260 LINE",
"424 260 LINE"
);
},
{
closed = 1;
nodes = (
"306 483 OFFCURVE",
"324 424 OFFCURVE",
"324 336 CURVE SMOOTH",
"324 321 OFFCURVE",
"323 305 OFFCURVE",
"322 288 CURVE",
"165 282 LINE",
"168 393 OFFCURVE",
"186 483 OFFCURVE",
"251 483 CURVE SMOOTH"
);
}
);
width = 479;
}
);
leftKerningGroup = o;
rightKerningGroup = e;
unicode = 0065;
},
{
glyphname = oe;
lastChange = "2016-04-07 19:09:02 +0000";
layers = (
{
layerId = UUID0;
name = Regular;
paths = (
{
closed = 1;
nodes = (
"414 68 LINE",
"452 5 OFFCURVE",
"501 -11 OFFCURVE",
"575 -11 CURVE SMOOTH",
"639 -11 OFFCURVE",
"707 16 OFFCURVE",
"754 95 CURVE",
"735 107 LINE",
"691 33 OFFCURVE",
"638 21 OFFCURVE",
"598 21 CURVE SMOOTH",
"525 21 OFFCURVE",
"477 79 OFFCURVE",
"477 234 CURVE SMOOTH",
"477 264 LINE",
"736 264 LINE",
"750 276 LINE",
"750 409 OFFCURVE",
"700 505 OFFCURVE",
"561 505 CURVE SMOOTH",
"481 505 OFFCURVE",
"438 463 OFFCURVE",
"413 424 CURVE",
"412 424 LINE",
"381 474 OFFCURVE",
"333 505 OFFCURVE",
"264 505 CURVE SMOOTH",
"132 505 OFFCURVE",
"39 391 OFFCURVE",
"39 242 CURVE SMOOTH",
"39 103 OFFCURVE",
"106 -15 OFFCURVE",
"263 -15 CURVE SMOOTH",
"324 -15 OFFCURVE",
"375 4 OFFCURVE",
"413 68 CURVE"
);
},
{
closed = 1;
nodes = (
"190 7 OFFCURVE",
"164 108 OFFCURVE",
"164 248 CURVE SMOOTH",
"164 383 OFFCURVE",
"190 483 OFFCURVE",
"261 483 CURVE SMOOTH",
"337 483 OFFCURVE",
"359 393 OFFCURVE",
"359 242 CURVE SMOOTH",
"359 107 OFFCURVE",
"334 7 OFFCURVE",
"261 7 CURVE SMOOTH"
);
},
{
closed = 1;
nodes = (
"618 483 OFFCURVE",
"636 428 OFFCURVE",
"636 340 CURVE SMOOTH",
"636 325 OFFCURVE",
"635 309 OFFCURVE",
"634 292 CURVE",
"477 286 LINE",
"480 396 OFFCURVE",
"498 483 OFFCURVE",
"563 483 CURVE SMOOTH"
);
}
);
width = 791;
}
);
leftKerningGroup = o;
rightKerningGroup = e;
unicode = 0153;
},
{
glyphname = Agrave;
lastChange = "2016-04-07 19:09:02 +0000";
layers = (
{
layerId = UUID0;
name = Regular;
paths = (
{
closed = 1;
nodes = (
"417 27 LINE",
"351 22 LINE",
"351 0 LINE",
"612 0 LINE",
"612 22 LINE",
"548 27 LINE",
"309 717 LINE",
"287 717 LINE",
"56 27 LINE",
"-3 22 LINE",
"-3 0 LINE",
"150 0 LINE",
"150 22 LINE",
"84 27 LINE",
"141 202 LINE",
"359 202 LINE"
);
},
{
closed = 1;
nodes = (
"249 535 LINE",
"251 535 LINE",
"349 235 LINE",
"149 231 LINE"
);
},
{
closed = 1;
nodes = (
"331 753 LINE",
"338 771 LINE",
"220 865 LINE",
"211 872 OFFCURVE",
"196 881 OFFCURVE",
"184 881 CURVE SMOOTH",
"165 881 OFFCURVE",
"140 869 OFFCURVE",
"140 839 CURVE SMOOTH",
"140 812 OFFCURVE",
"162 797 OFFCURVE",
"184 792 CURVE SMOOTH"
);
}
);
width = 604;
}
);
leftKerningGroup = A;
rightKerningGroup = A;
unicode = 00C0;
},
{
glyphname = Aacute;
lastChange = "2016-04-07 19:09:02 +0000";
layers = (
{
layerId = UUID0;
name = Regular;
paths = (
{
closed = 1;
nodes = (
"417 27 LINE",
"351 22 LINE",
"351 0 LINE",
"612 0 LINE",
"612 22 LINE",
"548 27 LINE",
"309 717 LINE",
"287 717 LINE",
"56 27 LINE",
"-3 22 LINE",
"-3 0 LINE",
"150 0 LINE",
"150 22 LINE",
"84 27 LINE",
"141 202 LINE",
"359 202 LINE"
);
},
{
closed = 1;
nodes = (
"249 535 LINE",
"251 535 LINE",
"349 235 LINE",
"149 231 LINE"
);
},
{
closed = 1;
nodes = (
"397 789 LINE SMOOTH",
"419 793 OFFCURVE",
"441 813 OFFCURVE",
"441 836 CURVE SMOOTH",
"441 865 OFFCURVE",
"418 878 OFFCURVE",
"399 878 CURVE SMOOTH",
"386 878 OFFCURVE",
"370 868 OFFCURVE",
"361 861 CURVE",
"243 768 LINE",
"250 750 LINE"
);
}
);
width = 604;
}
);
leftKerningGroup = A;
rightKerningGroup = A;
unicode = 00C1;
},
{
glyphname = Acircumflex;
lastChange = "2016-04-07 19:09:02 +0000";
layers = (
{
layerId = UUID0;
name = Regular;
paths = (
{
closed = 1;
nodes = (
"417 27 LINE",
"351 22 LINE",
"351 0 LINE",
"612 0 LINE",
"612 22 LINE",
"548 27 LINE",
"309 717 LINE",
"287 717 LINE",
"56 27 LINE",
"-3 22 LINE",
"-3 0 LINE",
"150 0 LINE",
"150 22 LINE",
"84 27 LINE",
"141 202 LINE",
"359 202 LINE"
);
},
{
closed = 1;
nodes = (
"249 535 LINE",
"251 535 LINE",
"349 235 LINE",
"149 231 LINE"
);
},
{
closed = 1;
nodes = (
"156 769 LINE",
"183 747 LINE",
"297 827 LINE",
"299 827 LINE",
"417 748 LINE",
"447 771 LINE",
"303 905 LINE",
"301 905 LINE"
);
}
);
width = 604;
}
);
leftKerningGroup = A;
rightKerningGroup = A;
unicode = 00C2;
},
{
glyphname = Atilde;
lastChange = "2016-04-07 19:09:02 +0000";
layers = (
{
layerId = UUID0;
name = Regular;
paths = (
{
closed = 1;
nodes = (
"417 27 LINE",
"351 22 LINE",
"351 0 LINE",
"612 0 LINE",
"612 22 LINE",
"548 27 LINE",
"309 717 LINE",
"287 717 LINE",
"56 27 LINE",
"-3 22 LINE",
"-3 0 LINE",
"150 0 LINE",
"150 22 LINE",
"84 27 LINE",
"141 202 LINE",
"359 202 LINE"
);
},
{
closed = 1;
nodes = (
"249 535 LINE",
"251 535 LINE",
"349 235 LINE",
"149 231 LINE"
);
},
{
closed = 1;
nodes = (
"284 825 OFFCURVE",
"297 781 OFFCURVE",
"356 781 CURVE SMOOTH",
"401 781 OFFCURVE",
"443 815 OFFCURVE",
"457 889 CURVE",
"438 895 LINE",
"411 855 OFFCURVE",
"381 850 OFFCURVE",
"362 850 CURVE SMOOTH",
"314 850 OFFCURVE",
"307 891 OFFCURVE",
"248 891 CURVE SMOOTH",
"190 891 OFFCURVE",
"154 840 OFFCURVE",
"141 794 CURVE",
"159 786 LINE",
"185 819 OFFCURVE",
"214 825 OFFCURVE",
"238 825 CURVE SMOOTH"
);
}
);
width = 604;
}
);
leftKerningGroup = A;
rightKerningGroup = A;
unicode = 00C3;
},
{
glyphname = Adieresis;
lastChange = "2016-04-07 19:09:02 +0000";
layers = (
{
layerId = UUID0;
name = Regular;
paths = (
{
closed = 1;
nodes = (
"417 27 LINE",
"351 22 LINE",
"351 0 LINE",
"612 0 LINE",
"612 22 LINE",
"548 27 LINE",
"309 717 LINE",
"287 717 LINE",
"56 27 LINE",
"-3 22 LINE",
"-3 0 LINE",
"150 0 LINE",
"150 22 LINE",
"84 27 LINE",
"141 202 LINE",
"359 202 LINE"
);
},
{
closed = 1;
nodes = (
"249 535 LINE",
"251 535 LINE",
"349 235 LINE",
"149 231 LINE"
);
},
{
closed = 1;
nodes = (
"149 797 OFFCURVE",
"172 768 OFFCURVE",
"208 768 CURVE SMOOTH",
"245 768 OFFCURVE",
"269 797 OFFCURVE",
"269 833 CURVE SMOOTH",
"269 870 OFFCURVE",
"245 899 OFFCURVE",
"208 899 CURVE SMOOTH",
"172 899 OFFCURVE",
"149 870 OFFCURVE",
"149 833 CURVE SMOOTH"
);
},
{
closed = 1;
nodes = (
"325 797 OFFCURVE",
"348 768 OFFCURVE",
"384 768 CURVE SMOOTH",
"421 768 OFFCURVE",
"444 797 OFFCURVE",
"444 833 CURVE SMOOTH",
"444 870 OFFCURVE",
"421 899 OFFCURVE",
"384 899 CURVE SMOOTH",
"348 899 OFFCURVE",
"325 870 OFFCURVE",
"325 833 CURVE SMOOTH"
);
}
);
width = 604;
}
);
leftKerningGroup = A;
rightKerningGroup = A;
unicode = 00C4;
},
{
glyphname = Aring;
lastChange = "2016-04-07 19:09:02 +0000";
layers = (
{
layerId = UUID0;
name = Regular;
paths = (
{
closed = 1;
nodes = (
"417 27 LINE",
"351 22 LINE",
"351 0 LINE",
"612 0 LINE",
"612 22 LINE",
"548 27 LINE",
"309 717 LINE",
"287 717 LINE",
"56 27 LINE",
"-3 22 LINE",
"-3 0 LINE",
"150 0 LINE",
"150 22 LINE",
"84 27 LINE",
"141 202 LINE",
"359 202 LINE"
);
},
{
closed = 1;
nodes = (
"249 535 LINE",
"251 535 LINE",
"349 235 LINE",
"149 231 LINE"
);
},
{
closed = 1;
nodes = (
"177 768 OFFCURVE",
"219 739 OFFCURVE",
"297 739 CURVE SMOOTH",
"375 739 OFFCURVE",
"419 768 OFFCURVE",
"419 826 CURVE SMOOTH",
"419 884 OFFCURVE",
"375 915 OFFCURVE",
"297 915 CURVE SMOOTH",
"224 915 OFFCURVE",
"177 884 OFFCURVE",
"177 826 CURVE SMOOTH"
);
},
{
closed = 1;
nodes = (
"245 866 OFFCURVE",
"261 888 OFFCURVE",
"297 888 CURVE SMOOTH",
"333 888 OFFCURVE",
"351 866 OFFCURVE",
"351 826 CURVE SMOOTH",
"351 787 OFFCURVE",
"333 767 OFFCURVE",
"297 767 CURVE SMOOTH",
"261 767 OFFCURVE",
"245 787 OFFCURVE",
"245 826 CURVE SMOOTH"
);
}
);
width = 604;
}
);
leftKerningGroup = A;
rightKerningGroup = A;
unicode = 00C5;
},
{
glyphname = Ccedilla;
lastChange = "2016-04-07 19:09:02 +0000";
layers = (
{
layerId = UUID0;
name = Regular;
paths = (
{
closed = 1;
nodes = (
"394 -66 OFFCURVE",
"361 -73 OFFCURVE",
"341 -83 CURVE",
"362 -17 LINE",
"477 -15 OFFCURVE",
"548 48 OFFCURVE",
"592 155 CURVE",
"569 166 LINE",
"534 87 OFFCURVE",
"467 19 OFFCURVE",
"368 19 CURVE SMOOTH",
"234 19 OFFCURVE",
"178 183 OFFCURVE",
"178 350 CURVE SMOOTH",
"178 555 OFFCURVE",
"264 686 OFFCURVE",
"381 686 CURVE SMOOTH",
"451 686 OFFCURVE",
"492 650 OFFCURVE",
"498 638 CURVE",
"498 636 LINE",
"496 637 OFFCURVE",
"493 637 OFFCURVE",
"490 637 CURVE SMOOTH",
"455 637 OFFCURVE",
"427 607 OFFCURVE",
"427 570 CURVE SMOOTH",
"427 532 OFFCURVE",
"455 503 OFFCURVE",
"496 503 CURVE SMOOTH",
"540 503 OFFCURVE",
"564 537 OFFCURVE",
"564 573 CURVE SMOOTH",
"564 650 OFFCURVE",
"472 714 OFFCURVE",
"372 714 CURVE SMOOTH",
"146 714 OFFCURVE",
"48 512 OFFCURVE",
"48 336 CURVE SMOOTH",
"48 166 OFFCURVE",
"104 -4 OFFCURVE",
"331 -16 CURVE",
"308 -106 LINE",
"325 -120 LINE",
"338 -111 OFFCURVE",
"355 -105 OFFCURVE",
"370 -105 CURVE SMOOTH",
"392 -105 OFFCURVE",
"402 -120 OFFCURVE",
"402 -141 CURVE SMOOTH",
"402 -180 OFFCURVE",
"362 -238 OFFCURVE",
"288 -249 CURVE",
"292 -273 LINE",
"360 -264 OFFCURVE",
"488 -213 OFFCURVE",
"488 -132 CURVE SMOOTH",
"488 -91 OFFCURVE",
"458 -66 OFFCURVE",
"417 -66 CURVE SMOOTH"
);
}
);
width = 612;
}
);
leftKerningGroup = C;
rightKerningGroup = C;
unicode = 00C7;
},
{
glyphname = Egrave;
lastChange = "2016-04-07 19:09:02 +0000";
layers = (
{
layerId = UUID0;
name = Regular;
paths = (
{
closed = 1;
nodes = (
"236 665 LINE",
"273 668 OFFCURVE",
"310 670 OFFCURVE",
"340 670 CURVE SMOOTH",
"456 670 OFFCURVE",
"483 598 OFFCURVE",
"501 498 CURVE",
"521 498 LINE",
"517 697 LINE",
"36 697 LINE",
"36 675 LINE",
"111 670 LINE",
"111 27 LINE",
"36 22 LINE",
"36 0 LINE",
"537 0 LINE",
"542 199 LINE",
"521 199 LINE",
"500 88 OFFCURVE",
"476 27 OFFCURVE",
"360 27 CURVE SMOOTH",
"324 27 OFFCURVE",
"273 29 OFFCURVE",
"236 32 CURVE",
"236 345 LINE",
"251 347 OFFCURVE",
"281 347 OFFCURVE",
"289 347 CURVE SMOOTH",
"355 347 OFFCURVE",
"384 319 OFFCURVE",
"384 228 CURVE",
"411 228 LINE",
"411 490 LINE",
"384 490 LINE",
"384 399 OFFCURVE",
"355 374 OFFCURVE",
"289 374 CURVE SMOOTH",
"276 374 OFFCURVE",
"250 374 OFFCURVE",
"236 375 CURVE"
);
},
{
closed = 1;
nodes = (
"380 753 LINE",
"388 771 LINE",
"270 865 LINE",
"261 872 OFFCURVE",
"246 881 OFFCURVE",
"233 881 CURVE SMOOTH",
"214 881 OFFCURVE",
"189 869 OFFCURVE",
"189 839 CURVE SMOOTH",
"189 812 OFFCURVE",
"211 797 OFFCURVE",
"233 792 CURVE SMOOTH"
);
}
);
width = 591;
}
);
leftKerningGroup = I;
rightKerningGroup = E;
unicode = 00C8;
},
{
glyphname = Eacute;
lastChange = "2016-04-07 19:09:02 +0000";
layers = (
{
layerId = UUID0;
name = Regular;
paths = (
{
closed = 1;
nodes = (
"236 665 LINE",
"273 668 OFFCURVE",
"310 670 OFFCURVE",
"340 670 CURVE SMOOTH",
"456 670 OFFCURVE",
"483 598 OFFCURVE",
"501 498 CURVE",
"521 498 LINE",
"517 697 LINE",
"36 697 LINE",
"36 675 LINE",
"111 670 LINE",
"111 27 LINE",
"36 22 LINE",
"36 0 LINE",
"537 0 LINE",
"542 199 LINE",
"521 199 LINE",
"500 88 OFFCURVE",
"476 27 OFFCURVE",
"360 27 CURVE SMOOTH",
"324 27 OFFCURVE",
"273 29 OFFCURVE",
"236 32 CURVE",
"236 345 LINE",
"251 347 OFFCURVE",
"281 347 OFFCURVE",
"289 347 CURVE SMOOTH",
"355 347 OFFCURVE",
"384 319 OFFCURVE",
"384 228 CURVE",
"411 228 LINE",
"411 490 LINE",
"384 490 LINE",
"384 399 OFFCURVE",
"355 374 OFFCURVE",
"289 374 CURVE SMOOTH",
"276 374 OFFCURVE",
"250 374 OFFCURVE",
"236 375 CURVE"
);
},
{
closed = 1;
nodes = (
"417 789 LINE SMOOTH",
"439 793 OFFCURVE",
"461 813 OFFCURVE",
"461 836 CURVE SMOOTH",
"461 865 OFFCURVE",
"438 878 OFFCURVE",
"419 878 CURVE SMOOTH",
"406 878 OFFCURVE",
"390 868 OFFCURVE",
"381 861 CURVE",
"263 768 LINE",
"270 750 LINE"
);
}
);
width = 591;
}
);
leftKerningGroup = I;
rightKerningGroup = E;
unicode = 00C9;
},
{
glyphname = Ecircumflex;
lastChange = "2016-04-07 19:09:02 +0000";
layers = (
{
layerId = UUID0;
name = Regular;
paths = (
{
closed = 1;
nodes = (
"236 665 LINE",
"273 668 OFFCURVE",
"310 670 OFFCURVE",
"340 670 CURVE SMOOTH",
"456 670 OFFCURVE",
"483 598 OFFCURVE",
"501 498 CURVE",
"521 498 LINE",
"517 697 LINE",
"36 697 LINE",
"36 675 LINE",
"111 670 LINE",
"111 27 LINE",
"36 22 LINE",
"36 0 LINE",
"537 0 LINE",
"542 199 LINE",
"521 199 LINE",
"500 88 OFFCURVE",
"476 27 OFFCURVE",
"360 27 CURVE SMOOTH",
"324 27 OFFCURVE",
"273 29 OFFCURVE",
"236 32 CURVE",
"236 345 LINE",
"251 347 OFFCURVE",
"281 347 OFFCURVE",
"289 347 CURVE SMOOTH",
"355 347 OFFCURVE",
"384 319 OFFCURVE",
"384 228 CURVE",
"411 228 LINE",
"411 490 LINE",
"384 490 LINE",
"384 399 OFFCURVE",
"355 374 OFFCURVE",
"289 374 CURVE SMOOTH",
"276 374 OFFCURVE",
"250 374 OFFCURVE",
"236 375 CURVE"
);
},
{
closed = 1;
nodes = (
"176 769 LINE",
"203 747 LINE",
"317 827 LINE",
"319 827 LINE",
"437 748 LINE",
"467 771 LINE",
"323 905 LINE",
"321 905 LINE"
);
}
);
width = 591;
}
);
leftKerningGroup = I;
rightKerningGroup = E;
unicode = 00CA;
},
{
glyphname = Edieresis;
lastChange = "2016-04-07 19:09:02 +0000";
layers = (
{
layerId = UUID0;
name = Regular;
paths = (
{
closed = 1;
nodes = (
"236 665 LINE",
"273 668 OFFCURVE",
"310 670 OFFCURVE",
"340 670 CURVE SMOOTH",
"456 670 OFFCURVE",
"483 598 OFFCURVE",
"501 498 CURVE",
"521 498 LINE",
"517 697 LINE",
"36 697 LINE",
"36 675 LINE",
"111 670 LINE",
"111 27 LINE",
"36 22 LINE",
"36 0 LINE",
"537 0 LINE",
"542 199 LINE",
"521 199 LINE",
"500 88 OFFCURVE",
"476 27 OFFCURVE",
"360 27 CURVE SMOOTH",
"324 27 OFFCURVE",
"273 29 OFFCURVE",
"236 32 CURVE",
"236 345 LINE",
"251 347 OFFCURVE",
"281 347 OFFCURVE",
"289 347 CURVE SMOOTH",
"355 347 OFFCURVE",
"384 319 OFFCURVE",
"384 228 CURVE",
"411 228 LINE",
"411 490 LINE",
"384 490 LINE",
"384 399 OFFCURVE",
"355 374 OFFCURVE",
"289 374 CURVE SMOOTH",
"276 374 OFFCURVE",
"250 374 OFFCURVE",
"236 375 CURVE"
);
},
{
closed = 1;
nodes = (
"159 797 OFFCURVE",
"182 768 OFFCURVE",
"219 768 CURVE SMOOTH",
"255 768 OFFCURVE",
"279 797 OFFCURVE",
"279 833 CURVE SMOOTH",
"279 870 OFFCURVE",
"255 899 OFFCURVE",
"219 899 CURVE SMOOTH",
"182 899 OFFCURVE",
"159 870 OFFCURVE",
"159 833 CURVE SMOOTH"
);
},
{
closed = 1;
nodes = (
"335 797 OFFCURVE",
"358 768 OFFCURVE",
"395 768 CURVE SMOOTH",
"431 768 OFFCURVE",
"455 797 OFFCURVE",
"455 833 CURVE SMOOTH",
"455 870 OFFCURVE",
"431 899 OFFCURVE",
"395 899 CURVE SMOOTH",
"358 899 OFFCURVE",
"335 870 OFFCURVE",
"335 833 CURVE SMOOTH"
);
}
);
width = 591;
}
);
leftKerningGroup = I;
rightKerningGroup = E;
unicode = 00CB;
},
{
glyphname = Igrave;
lastChange = "2016-04-07 19:09:02 +0000";
layers = (
{
layerId = UUID0;
name = Regular;
paths = (
{
closed = 1;
nodes = (
"311 697 LINE",
"36 697 LINE",
"36 675 LINE",
"111 670 LINE",
"111 27 LINE",
"36 22 LINE",
"36 0 LINE",
"311 0 LINE",
"311 22 LINE",
"236 27 LINE",
"236 670 LINE",
"311 675 LINE"
);
},
{
closed = 1;
nodes = (
"219 753 LINE",
"226 771 LINE",
"108 865 LINE",
"99 872 OFFCURVE",
"84 881 OFFCURVE",
"72 881 CURVE SMOOTH",
"52 881 OFFCURVE",
"27 869 OFFCURVE",
"27 839 CURVE SMOOTH",
"27 812 OFFCURVE",
"49 797 OFFCURVE",
"72 792 CURVE SMOOTH"
);
}
);
width = 347;
}
);
leftKerningGroup = I;
rightKerningGroup = I;
unicode = 00CC;
},
{
glyphname = Iacute;
lastChange = "2016-04-07 19:09:02 +0000";
layers = (
{
layerId = UUID0;
name = Regular;
paths = (
{
closed = 1;
nodes = (
"311 697 LINE",
"36 697 LINE",
"36 675 LINE",
"111 670 LINE",
"111 27 LINE",
"36 22 LINE",
"36 0 LINE",
"311 0 LINE",
"311 22 LINE",
"236 27 LINE",
"236 670 LINE",
"311 675 LINE"
);
},
{
closed = 1;
nodes = (
"265 789 LINE SMOOTH",
"288 793 OFFCURVE",
"309 813 OFFCURVE",
"309 836 CURVE SMOOTH",
"309 865 OFFCURVE",
"286 878 OFFCURVE",
"267 878 CURVE SMOOTH",
"254 878 OFFCURVE",
"238 868 OFFCURVE",
"229 861 CURVE",
"111 768 LINE",
"118 750 LINE"
);
}
);
width = 347;
}
);
leftKerningGroup = I;
rightKerningGroup = I;
unicode = 00CD;
},
{
glyphname = Icircumflex;
lastChange = "2016-04-07 19:09:02 +0000";
layers = (
{
layerId = UUID0;
name = Regular;
paths = (
{
closed = 1;
nodes = (
"311 697 LINE",
"36 697 LINE",
"36 675 LINE",
"111 670 LINE",
"111 27 LINE",
"36 22 LINE",
"36 0 LINE",
"311 0 LINE",
"311 22 LINE",
"236 27 LINE",
"236 670 LINE",
"311 675 LINE"
);
},
{
closed = 1;
nodes = (
"29 769 LINE",
"56 747 LINE",
"170 827 LINE",
"172 827 LINE",
"290 748 LINE",
"320 771 LINE",
"176 905 LINE",
"174 905 LINE"
);
}
);
width = 347;
}
);
leftKerningGroup = I;
rightKerningGroup = I;
unicode = 00CE;
},
{
glyphname = Idieresis;
lastChange = "2016-04-07 19:09:02 +0000";
layers = (
{
layerId = UUID0;
name = Regular;
paths = (
{
closed = 1;
nodes = (
"311 697 LINE",
"36 697 LINE",
"36 675 LINE",
"111 670 LINE",
"111 27 LINE",
"36 22 LINE",
"36 0 LINE",
"311 0 LINE",
"311 22 LINE",
"236 27 LINE",
"236 670 LINE",
"311 675 LINE"
);
},
{
closed = 1;
nodes = (
"22 797 OFFCURVE",
"45 768 OFFCURVE",
"82 768 CURVE SMOOTH",
"118 768 OFFCURVE",
"142 797 OFFCURVE",
"142 833 CURVE SMOOTH",
"142 870 OFFCURVE",
"118 899 OFFCURVE",
"82 899 CURVE SMOOTH",
"45 899 OFFCURVE",
"22 870 OFFCURVE",
"22 833 CURVE SMOOTH"
);
},
{
closed = 1;
nodes = (
"198 797 OFFCURVE",
"221 768 OFFCURVE",
"257 768 CURVE SMOOTH",
"294 768 OFFCURVE",
"317 797 OFFCURVE",
"317 833 CURVE SMOOTH",
"317 870 OFFCURVE",
"294 899 OFFCURVE",
"257 899 CURVE SMOOTH",
"221 899 OFFCURVE",
"198 870 OFFCURVE",
"198 833 CURVE SMOOTH"
);
}
);
width = 347;
}
);
leftKerningGroup = I;
rightKerningGroup = I;
unicode = 00CF;
},
{
glyphname = Ntilde;
lastChange = "2016-04-07 19:09:02 +0000";
layers = (
{
layerId = UUID0;
name = Regular;
paths = (
{
closed = 1;
nodes = (
"138 500 LINE",
"139 500 LINE",
"558 -10 LINE",
"587 -10 LINE",
"582 670 LINE",
"657 675 LINE",
"657 697 LINE",
"477 697 LINE",
"477 675 LINE",
"551 670 LINE",
"558 189 LINE",
"557 189 LINE",
"138 697 LINE",
"34 697 LINE",
"34 675 LINE",
"108 670 LINE",
"114 27 LINE",
"39 22 LINE",
"39 0 LINE",
"219 0 LINE",
"219 22 LINE",
"145 27 LINE"
);
},
{
closed = 1;
nodes = (
"329 825 OFFCURVE",
"342 781 OFFCURVE",
"401 781 CURVE SMOOTH",
"446 781 OFFCURVE",
"488 815 OFFCURVE",
"502 889 CURVE",
"483 895 LINE",
"456 855 OFFCURVE",
"426 850 OFFCURVE",
"407 850 CURVE SMOOTH",
"359 850 OFFCURVE",
"352 891 OFFCURVE",
"292 891 CURVE SMOOTH",
"235 891 OFFCURVE",
"199 840 OFFCURVE",
"186 794 CURVE",
"204 786 LINE",
"230 819 OFFCURVE",
"259 825 OFFCURVE",
"283 825 CURVE SMOOTH"
);
}
);
width = 690;
}
);
leftKerningGroup = I;
rightKerningGroup = N;
unicode = 00D1;
},
{
glyphname = Ograve;
lastChange = "2016-04-07 19:09:02 +0000";
layers = (
{
layerId = UUID0;
name = Regular;
paths = (
{
closed = 1;
nodes = (
"178 590 OFFCURVE",
"261 687 OFFCURVE",
"354 687 CURVE SMOOTH",
"458 687 OFFCURVE",
"526 583 OFFCURVE",
"526 358 CURVE SMOOTH",
"526 151 OFFCURVE",
"462 10 OFFCURVE",
"351 10 CURVE SMOOTH",
"237 10 OFFCURVE",
"178 168 OFFCURVE",
"178 357 CURVE SMOOTH"
);
},
{
closed = 1;
nodes = (
"47 131 OFFCURVE",
"160 -17 OFFCURVE",
"354 -17 CURVE SMOOTH",
"561 -17 OFFCURVE",
"657 174 OFFCURVE",
"657 362 CURVE SMOOTH",
"657 572 OFFCURVE",
"535 714 OFFCURVE",
"351 714 CURVE SMOOTH",
"163 714 OFFCURVE",
"47 546 OFFCURVE",
"47 346 CURVE SMOOTH"
);
},
{
closed = 1;
nodes = (
"402 753 LINE",
"410 771 LINE",
"292 865 LINE",
"283 872 OFFCURVE",
"268 881 OFFCURVE",
"255 881 CURVE SMOOTH",
"236 881 OFFCURVE",
"211 869 OFFCURVE",
"211 839 CURVE SMOOTH",
"211 812 OFFCURVE",
"233 797 OFFCURVE",
"255 792 CURVE SMOOTH"
);
}
);
width = 704;
}
);
leftKerningGroup = O;
rightKerningGroup = O;
unicode = 00D2;
},
{
glyphname = Oacute;
lastChange = "2016-04-07 19:09:02 +0000";
layers = (
{
layerId = UUID0;
name = Regular;
paths = (
{
closed = 1;
nodes = (
"178 590 OFFCURVE",
"261 687 OFFCURVE",
"354 687 CURVE SMOOTH",
"458 687 OFFCURVE",
"526 583 OFFCURVE",
"526 358 CURVE SMOOTH",
"526 151 OFFCURVE",
"462 10 OFFCURVE",
"351 10 CURVE SMOOTH",
"237 10 OFFCURVE",
"178 168 OFFCURVE",
"178 357 CURVE SMOOTH"
);
},
{
closed = 1;
nodes = (
"47 131 OFFCURVE",
"160 -17 OFFCURVE",
"354 -17 CURVE SMOOTH",
"561 -17 OFFCURVE",
"657 174 OFFCURVE",
"657 362 CURVE SMOOTH",
"657 572 OFFCURVE",
"535 714 OFFCURVE",
"351 714 CURVE SMOOTH",
"163 714 OFFCURVE",
"47 546 OFFCURVE",
"47 346 CURVE SMOOTH"
);
},
{
closed = 1;
nodes = (
"449 789 LINE SMOOTH",
"471 793 OFFCURVE",
"493 813 OFFCURVE",
"493 836 CURVE SMOOTH",
"493 865 OFFCURVE",
"470 878 OFFCURVE",
"451 878 CURVE SMOOTH",
"438 878 OFFCURVE",
"421 868 OFFCURVE",
"413 861 CURVE",
"294 768 LINE",
"302 750 LINE"
);
}
);
width = 704;
}
);
leftKerningGroup = O;
rightKerningGroup = O;
unicode = 00D3;
},
{
glyphname = Ocircumflex;
lastChange = "2016-04-07 19:09:02 +0000";
layers = (
{
layerId = UUID0;
name = Regular;
paths = (
{
closed = 1;
nodes = (
"178 590 OFFCURVE",
"261 687 OFFCURVE",
"354 687 CURVE SMOOTH",
"458 687 OFFCURVE",
"526 583 OFFCURVE",
"526 358 CURVE SMOOTH",
"526 151 OFFCURVE",
"462 10 OFFCURVE",
"351 10 CURVE SMOOTH",
"237 10 OFFCURVE",
"178 168 OFFCURVE",
"178 357 CURVE SMOOTH"
);
},
{
closed = 1;
nodes = (
"47 131 OFFCURVE",
"160 -17 OFFCURVE",
"354 -17 CURVE SMOOTH",
"561 -17 OFFCURVE",
"657 174 OFFCURVE",
"657 362 CURVE SMOOTH",
"657 572 OFFCURVE",
"535 714 OFFCURVE",
"351 714 CURVE SMOOTH",
"163 714 OFFCURVE",
"47 546 OFFCURVE",
"47 346 CURVE SMOOTH"
);
},
{
closed = 1;
nodes = (
"208 769 LINE",
"235 747 LINE",
"349 827 LINE",
"351 827 LINE",
"469 748 LINE",
"499 771 LINE",
"355 905 LINE",
"353 905 LINE"
);
}
);
width = 704;
}
);
leftKerningGroup = O;
rightKerningGroup = O;
unicode = 00D4;
},
{
glyphname = Otilde;
lastChange = "2016-04-07 19:09:02 +0000";
layers = (
{
layerId = UUID0;
name = Regular;
paths = (
{
closed = 1;
nodes = (
"178 590 OFFCURVE",
"261 687 OFFCURVE",
"354 687 CURVE SMOOTH",
"458 687 OFFCURVE",
"526 583 OFFCURVE",
"526 358 CURVE SMOOTH",
"526 151 OFFCURVE",
"462 10 OFFCURVE",
"351 10 CURVE SMOOTH",
"237 10 OFFCURVE",
"178 168 OFFCURVE",
"178 357 CURVE SMOOTH"
);
},
{
closed = 1;
nodes = (
"47 131 OFFCURVE",
"160 -17 OFFCURVE",
"354 -17 CURVE SMOOTH",
"561 -17 OFFCURVE",
"657 174 OFFCURVE",
"657 362 CURVE SMOOTH",
"657 572 OFFCURVE",
"535 714 OFFCURVE",
"351 714 CURVE SMOOTH",
"163 714 OFFCURVE",
"47 546 OFFCURVE",
"47 346 CURVE SMOOTH"
);
},
{
closed = 1;
nodes = (
"336 825 OFFCURVE",
"349 781 OFFCURVE",
"408 781 CURVE SMOOTH",
"453 781 OFFCURVE",
"495 815 OFFCURVE",
"509 889 CURVE",
"490 895 LINE",
"463 855 OFFCURVE",
"433 850 OFFCURVE",
"414 850 CURVE SMOOTH",
"366 850 OFFCURVE",
"358 891 OFFCURVE",
"299 891 CURVE SMOOTH",
"242 891 OFFCURVE",
"206 840 OFFCURVE",
"193 794 CURVE",
"210 786 LINE",
"237 819 OFFCURVE",
"266 825 OFFCURVE",
"290 825 CURVE SMOOTH"
);
}
);
width = 704;
}
);
leftKerningGroup = O;
rightKerningGroup = O;
unicode = 00D5;
},
{
glyphname = Odieresis;
lastChange = "2016-04-07 19:09:02 +0000";
layers = (
{
layerId = UUID0;
name = Regular;
paths = (
{
closed = 1;
nodes = (
"178 590 OFFCURVE",
"261 687 OFFCURVE",
"354 687 CURVE SMOOTH",
"458 687 OFFCURVE",
"526 583 OFFCURVE",
"526 358 CURVE SMOOTH",
"526 151 OFFCURVE",
"462 10 OFFCURVE",
"351 10 CURVE SMOOTH",
"237 10 OFFCURVE",
"178 168 OFFCURVE",
"178 357 CURVE SMOOTH"
);
},
{
closed = 1;
nodes = (
"47 131 OFFCURVE",
"160 -17 OFFCURVE",
"354 -17 CURVE SMOOTH",
"561 -17 OFFCURVE",
"657 174 OFFCURVE",
"657 362 CURVE SMOOTH",
"657 572 OFFCURVE",
"535 714 OFFCURVE",
"351 714 CURVE SMOOTH",
"163 714 OFFCURVE",
"47 546 OFFCURVE",
"47 346 CURVE SMOOTH"
);
},
{
closed = 1;
nodes = (
"201 797 OFFCURVE",
"224 768 OFFCURVE",
"260 768 CURVE SMOOTH",
"297 768 OFFCURVE",
"320 797 OFFCURVE",
"320 833 CURVE SMOOTH",
"320 870 OFFCURVE",
"297 899 OFFCURVE",
"260 899 CURVE SMOOTH",
"224 899 OFFCURVE",
"201 870 OFFCURVE",
"201 833 CURVE SMOOTH"
);
},
{
closed = 1;
nodes = (
"376 797 OFFCURVE",
"399 768 OFFCURVE",
"436 768 CURVE SMOOTH",
"473 768 OFFCURVE",
"496 797 OFFCURVE",
"496 833 CURVE SMOOTH",
"496 870 OFFCURVE",
"473 899 OFFCURVE",
"436 899 CURVE SMOOTH",
"399 899 OFFCURVE",
"376 870 OFFCURVE",
"376 833 CURVE SMOOTH"
);
}
);
width = 704;
}
);
leftKerningGroup = O;
rightKerningGroup = O;
unicode = 00D6;
},
{
glyphname = Ugrave;
lastChange = "2016-04-07 19:09:02 +0000";
layers = (
{
layerId = UUID0;
name = Regular;
paths = (
{
closed = 1;
nodes = (
"99 234 LINE SMOOTH",
"99 113 OFFCURVE",
"119 -17 OFFCURVE",
"378 -17 CURVE SMOOTH",
"559 -17 OFFCURVE",
"600 115 OFFCURVE",
"600 223 CURVE SMOOTH",
"600 670 LINE",
"675 675 LINE",
"675 697 LINE",
"494 697 LINE",
"494 675 LINE",
"569 670 LINE",
"569 233 LINE SMOOTH",
"569 125 OFFCURVE",
"532 17 OFFCURVE",
"394 17 CURVE SMOOTH",
"233 17 OFFCURVE",
"224 136 OFFCURVE",
"224 214 CURVE SMOOTH",
"224 670 LINE",
"299 675 LINE",
"299 697 LINE",
"24 697 LINE",
"24 675 LINE",
"99 670 LINE"
);
},
{
closed = 1;
nodes = (
"438 753 LINE",
"445 771 LINE",
"327 865 LINE SMOOTH",
"318 872 OFFCURVE",
"303 881 OFFCURVE",
"291 881 CURVE SMOOTH",
"271 881 OFFCURVE",
"246 869 OFFCURVE",
"246 839 CURVE SMOOTH",
"246 812 OFFCURVE",
"268 797 OFFCURVE",
"291 792 CURVE"
);
}
);
width = 699;
}
);
leftKerningGroup = U;
rightKerningGroup = U;
unicode = 00D9;
},
{
glyphname = Uacute;
lastChange = "2016-04-07 19:09:02 +0000";
layers = (
{
layerId = UUID0;
name = Regular;
paths = (
{
closed = 1;
nodes = (
"99 234 LINE SMOOTH",
"99 113 OFFCURVE",
"119 -17 OFFCURVE",
"378 -17 CURVE SMOOTH",
"559 -17 OFFCURVE",
"600 115 OFFCURVE",
"600 223 CURVE SMOOTH",
"600 670 LINE",
"675 675 LINE",
"675 697 LINE",
"494 697 LINE",
"494 675 LINE",
"569 670 LINE",
"569 233 LINE SMOOTH",
"569 125 OFFCURVE",
"532 17 OFFCURVE",
"394 17 CURVE SMOOTH",
"233 17 OFFCURVE",
"224 136 OFFCURVE",
"224 214 CURVE SMOOTH",
"224 670 LINE",
"299 675 LINE",
"299 697 LINE",
"24 697 LINE",
"24 675 LINE",
"99 670 LINE"
);
},
{
closed = 1;
nodes = (
"484 789 LINE",
"506 793 OFFCURVE",
"528 813 OFFCURVE",
"528 836 CURVE SMOOTH",
"528 865 OFFCURVE",
"505 878 OFFCURVE",
"486 878 CURVE SMOOTH",
"473 878 OFFCURVE",
"457 868 OFFCURVE",
"448 861 CURVE SMOOTH",
"330 768 LINE",
"337 750 LINE"
);
}
);
width = 699;
}
);
leftKerningGroup = U;
rightKerningGroup = U;
unicode = 00DA;
},
{
glyphname = Ucircumflex;
lastChange = "2016-04-07 19:09:02 +0000";
layers = (
{
layerId = UUID0;
name = Regular;
paths = (
{
closed = 1;
nodes = (
"99 234 LINE SMOOTH",
"99 113 OFFCURVE",
"119 -17 OFFCURVE",
"378 -17 CURVE SMOOTH",
"559 -17 OFFCURVE",
"600 115 OFFCURVE",
"600 223 CURVE SMOOTH",
"600 670 LINE",
"675 675 LINE",
"675 697 LINE",
"494 697 LINE",
"494 675 LINE",
"569 670 LINE",
"569 233 LINE SMOOTH",
"569 125 OFFCURVE",
"532 17 OFFCURVE",
"394 17 CURVE SMOOTH",
"233 17 OFFCURVE",
"224 136 OFFCURVE",
"224 214 CURVE SMOOTH",
"224 670 LINE",
"299 675 LINE",
"299 697 LINE",
"24 697 LINE",
"24 675 LINE",
"99 670 LINE"
);
},
{
closed = 1;
nodes = (
"248 769 LINE",
"275 747 LINE",
"389 827 LINE",
"391 827 LINE",
"509 748 LINE",
"539 771 LINE",
"395 905 LINE",
"393 905 LINE"
);
}
);
width = 699;
}
);
leftKerningGroup = U;
rightKerningGroup = U;
unicode = 00DB;
},
{
glyphname = Udieresis;
lastChange = "2016-04-07 19:09:02 +0000";
layers = (
{
layerId = UUID0;
name = Regular;
paths = (
{
closed = 1;
nodes = (
"99 234 LINE SMOOTH",
"99 113 OFFCURVE",
"119 -17 OFFCURVE",
"378 -17 CURVE SMOOTH",
"559 -17 OFFCURVE",
"600 115 OFFCURVE",
"600 223 CURVE SMOOTH",
"600 670 LINE",
"675 675 LINE",
"675 697 LINE",
"494 697 LINE",
"494 675 LINE",
"569 670 LINE",
"569 233 LINE SMOOTH",
"569 125 OFFCURVE",
"532 17 OFFCURVE",
"394 17 CURVE SMOOTH",
"233 17 OFFCURVE",
"224 136 OFFCURVE",
"224 214 CURVE SMOOTH",
"224 670 LINE",
"299 675 LINE",
"299 697 LINE",
"24 697 LINE",
"24 675 LINE",
"99 670 LINE"
);
},
{
closed = 1;
nodes = (
"417 797 OFFCURVE",
"439 768 OFFCURVE",
"476 768 CURVE SMOOTH",
"513 768 OFFCURVE",
"536 797 OFFCURVE",
"536 833 CURVE SMOOTH",
"536 870 OFFCURVE",
"513 899 OFFCURVE",
"476 899 CURVE SMOOTH",
"439 899 OFFCURVE",
"417 870 OFFCURVE",
"417 833 CURVE SMOOTH"
);
},
{
closed = 1;
nodes = (
"241 797 OFFCURVE",
"264 768 OFFCURVE",
"300 768 CURVE SMOOTH",
"337 768 OFFCURVE",
"360 797 OFFCURVE",
"360 833 CURVE SMOOTH",
"360 870 OFFCURVE",
"337 899 OFFCURVE",
"300 899 CURVE SMOOTH",
"264 899 OFFCURVE",
"241 870 OFFCURVE",
"241 833 CURVE SMOOTH"
);
}
);
width = 699;
}
);
leftKerningGroup = U;
rightKerningGroup = U;
unicode = 00DC;
},
{
glyphname = Yacute;
lastChange = "2016-04-07 19:09:02 +0000";
layers = (
{
layerId = UUID0;
name = Regular;
paths = (
{
closed = 1;
nodes = (
"48 670 LINE",
"253 314 LINE",
"253 27 LINE",
"179 22 LINE",
"179 0 LINE",
"454 0 LINE",
"454 22 LINE",
"378 27 LINE",
"378 343 LINE",
"531 670 LINE",
"591 675 LINE",
"591 697 LINE",
"429 697 LINE",
"429 675 LINE",
"498 670 LINE",
"360 374 LINE",
"357 374 LINE",
"193 670 LINE",
"269 675 LINE",
"269 697 LINE",
"-18 697 LINE",
"-18 675 LINE"
);
},
{
closed = 1;
nodes = (
"439 789 LINE SMOOTH",
"462 793 OFFCURVE",
"483 813 OFFCURVE",
"483 836 CURVE SMOOTH",
"483 865 OFFCURVE",
"460 878 OFFCURVE",
"441 878 CURVE SMOOTH",
"429 878 OFFCURVE",
"412 868 OFFCURVE",
"403 861 CURVE",
"285 768 LINE",
"292 750 LINE"
);
}
);
width = 595;
}
);
leftKerningGroup = Y;
rightKerningGroup = Y;
unicode = 00DD;
},
{
glyphname = agrave;
lastChange = "2016-04-07 19:09:02 +0000";
layers = (
{
layerId = UUID0;
name = Regular;
paths = (
{
closed = 1;
nodes = (
"153 149 OFFCURVE",
"161 242 OFFCURVE",
"267 242 CURVE SMOOTH",
"276 242 OFFCURVE",
"287 241 OFFCURVE",
"298 239 CURVE",
"298 172 LINE SMOOTH",
"298 89 OFFCURVE",
"253 29 OFFCURVE",
"211 29 CURVE SMOOTH",
"172 29 OFFCURVE",
"153 67 OFFCURVE",
"153 116 CURVE SMOOTH"
);
},
{
closed = 1;
nodes = (
"299 77 LINE",
"313 0 LINE",
"468 0 LINE",
"468 20 LINE",
"418 25 LINE",
"418 288 LINE SMOOTH",
"418 422 OFFCURVE",
"395 505 OFFCURVE",
"229 505 CURVE SMOOTH",
"141 505 OFFCURVE",
"54 450 OFFCURVE",
"54 370 CURVE SMOOTH",
"54 337 OFFCURVE",
"76 305 OFFCURVE",
"116 305 CURVE SMOOTH",
"152 305 OFFCURVE",
"178 331 OFFCURVE",
"178 365 CURVE SMOOTH",
"178 405 OFFCURVE",
"156 425 OFFCURVE",
"123 425 CURVE SMOOTH",
"118 425 OFFCURVE",
"113 425 OFFCURVE",
"108 424 CURVE",
"108 426 LINE",
"120 447 OFFCURVE",
"149 482 OFFCURVE",
"212 482 CURVE SMOOTH",
"292 482 OFFCURVE",
"298 422 OFFCURVE",
"298 329 CURVE SMOOTH",
"298 262 LINE",
"282 263 OFFCURVE",
"267 264 OFFCURVE",
"253 264 CURVE SMOOTH",
"99 264 OFFCURVE",
"35 184 OFFCURVE",
"35 106 CURVE SMOOTH",
"35 46 OFFCURVE",
"73 -15 OFFCURVE",
"158 -15 CURVE SMOOTH",
"224 -15 OFFCURVE",
"267 17 OFFCURVE",
"298 77 CURVE"
);
},
{
closed = 1;
nodes = (
"255 571 LINE",
"273 583 LINE",
"219 739 LINE",
"213 757 OFFCURVE",
"196 772 OFFCURVE",
"175 772 CURVE SMOOTH",
"150 772 OFFCURVE",
"131 752 OFFCURVE",
"131 727 CURVE SMOOTH",
"131 712 OFFCURVE",
"137 698 OFFCURVE",
"146 688 CURVE SMOOTH"
);
}
);
width = 491;
}
);
leftKerningGroup = a;
rightKerningGroup = a;
unicode = 00E0;
},
{
glyphname = aacute;
lastChange = "2016-04-07 19:09:02 +0000";
layers = (
{
layerId = UUID0;
name = Regular;
paths = (
{
closed = 1;
nodes = (
"153 149 OFFCURVE",
"161 242 OFFCURVE",
"267 242 CURVE SMOOTH",
"276 242 OFFCURVE",
"287 241 OFFCURVE",
"298 239 CURVE",
"298 172 LINE SMOOTH",
"298 89 OFFCURVE",
"253 29 OFFCURVE",
"211 29 CURVE SMOOTH",
"172 29 OFFCURVE",
"153 67 OFFCURVE",
"153 116 CURVE SMOOTH"
);
},
{
closed = 1;
nodes = (
"299 77 LINE",
"313 0 LINE",
"468 0 LINE",
"468 20 LINE",
"418 25 LINE",
"418 288 LINE SMOOTH",
"418 422 OFFCURVE",
"395 505 OFFCURVE",
"229 505 CURVE SMOOTH",
"141 505 OFFCURVE",
"54 450 OFFCURVE",
"54 370 CURVE SMOOTH",
"54 337 OFFCURVE",
"76 305 OFFCURVE",
"116 305 CURVE SMOOTH",
"152 305 OFFCURVE",
"178 331 OFFCURVE",
"178 365 CURVE SMOOTH",
"178 405 OFFCURVE",
"156 425 OFFCURVE",
"123 425 CURVE SMOOTH",
"118 425 OFFCURVE",
"113 425 OFFCURVE",
"108 424 CURVE",
"108 426 LINE",
"120 447 OFFCURVE",
"149 482 OFFCURVE",
"212 482 CURVE SMOOTH",
"292 482 OFFCURVE",
"298 422 OFFCURVE",
"298 329 CURVE SMOOTH",
"298 262 LINE",
"282 263 OFFCURVE",
"267 264 OFFCURVE",
"253 264 CURVE SMOOTH",
"99 264 OFFCURVE",
"35 184 OFFCURVE",
"35 106 CURVE SMOOTH",
"35 46 OFFCURVE",
"73 -15 OFFCURVE",
"158 -15 CURVE SMOOTH",
"224 -15 OFFCURVE",
"267 17 OFFCURVE",
"298 77 CURVE"
);
},
{
closed = 1;
nodes = (
"330 682 LINE SMOOTH",
"339 691 OFFCURVE",
"345 706 OFFCURVE",
"345 721 CURVE SMOOTH",
"345 746 OFFCURVE",
"326 766 OFFCURVE",
"301 766 CURVE SMOOTH",
"280 766 OFFCURVE",
"263 751 OFFCURVE",
"257 732 CURVE",
"203 577 LINE",
"221 564 LINE"
);
}
);
width = 491;
}
);
leftKerningGroup = a;
rightKerningGroup = a;
unicode = 00E1;
},
{
glyphname = acircumflex;
lastChange = "2016-04-07 19:09:02 +0000";
layers = (
{
layerId = UUID0;
name = Regular;
paths = (
{
closed = 1;
nodes = (
"153 149 OFFCURVE",
"161 242 OFFCURVE",
"267 242 CURVE SMOOTH",
"276 242 OFFCURVE",
"287 241 OFFCURVE",
"298 239 CURVE",
"298 172 LINE SMOOTH",
"298 89 OFFCURVE",
"253 29 OFFCURVE",
"211 29 CURVE SMOOTH",
"172 29 OFFCURVE",
"153 67 OFFCURVE",
"153 116 CURVE SMOOTH"
);
},
{
closed = 1;
nodes = (
"299 77 LINE",
"313 0 LINE",
"468 0 LINE",
"468 20 LINE",
"418 25 LINE",
"418 288 LINE SMOOTH",
"418 422 OFFCURVE",
"395 505 OFFCURVE",
"229 505 CURVE SMOOTH",
"141 505 OFFCURVE",
"54 450 OFFCURVE",
"54 370 CURVE SMOOTH",
"54 337 OFFCURVE",
"76 305 OFFCURVE",
"116 305 CURVE SMOOTH",
"152 305 OFFCURVE",
"178 331 OFFCURVE",
"178 365 CURVE SMOOTH",
"178 405 OFFCURVE",
"156 425 OFFCURVE",
"123 425 CURVE SMOOTH",
"118 425 OFFCURVE",
"113 425 OFFCURVE",
"108 424 CURVE",
"108 426 LINE",
"120 447 OFFCURVE",
"149 482 OFFCURVE",
"212 482 CURVE SMOOTH",
"292 482 OFFCURVE",
"298 422 OFFCURVE",
"298 329 CURVE SMOOTH",
"298 262 LINE",
"282 263 OFFCURVE",
"267 264 OFFCURVE",
"253 264 CURVE SMOOTH",
"99 264 OFFCURVE",
"35 184 OFFCURVE",
"35 106 CURVE SMOOTH",
"35 46 OFFCURVE",
"73 -15 OFFCURVE",
"158 -15 CURVE SMOOTH",
"224 -15 OFFCURVE",
"267 17 OFFCURVE",
"298 77 CURVE"
);
},
{
closed = 1;
nodes = (
"240 774 LINE",
"110 590 LINE",
"147 570 LINE",
"234 673 LINE",
"236 673 LINE",
"317 570 LINE",
"357 592 LINE",
"243 774 LINE"
);
}
);
width = 491;
}
);
leftKerningGroup = a;
rightKerningGroup = a;
unicode = 00E2;
},
{
glyphname = atilde;
lastChange = "2016-04-07 19:09:02 +0000";
layers = (
{
layerId = UUID0;
name = Regular;
paths = (
{
closed = 1;
nodes = (
"153 149 OFFCURVE",
"161 242 OFFCURVE",
"267 242 CURVE SMOOTH",
"276 242 OFFCURVE",
"287 241 OFFCURVE",
"298 239 CURVE",
"298 172 LINE SMOOTH",
"298 89 OFFCURVE",
"253 29 OFFCURVE",
"211 29 CURVE SMOOTH",
"172 29 OFFCURVE",
"153 67 OFFCURVE",
"153 116 CURVE SMOOTH"
);
},
{
closed = 1;
nodes = (
"299 77 LINE",
"313 0 LINE",
"468 0 LINE",
"468 20 LINE",
"418 25 LINE",
"418 288 LINE SMOOTH",
"418 422 OFFCURVE",
"395 505 OFFCURVE",
"229 505 CURVE SMOOTH",
"141 505 OFFCURVE",
"54 450 OFFCURVE",
"54 370 CURVE SMOOTH",
"54 337 OFFCURVE",
"76 305 OFFCURVE",
"116 305 CURVE SMOOTH",
"152 305 OFFCURVE",
"178 331 OFFCURVE",
"178 365 CURVE SMOOTH",
"178 405 OFFCURVE",
"156 425 OFFCURVE",
"123 425 CURVE SMOOTH",
"118 425 OFFCURVE",
"113 425 OFFCURVE",
"108 424 CURVE",
"108 426 LINE",
"120 447 OFFCURVE",
"149 482 OFFCURVE",
"212 482 CURVE SMOOTH",
"292 482 OFFCURVE",
"298 422 OFFCURVE",
"298 329 CURVE SMOOTH",
"298 262 LINE",
"282 263 OFFCURVE",
"267 264 OFFCURVE",
"253 264 CURVE SMOOTH",
"99 264 OFFCURVE",
"35 184 OFFCURVE",
"35 106 CURVE SMOOTH",
"35 46 OFFCURVE",
"73 -15 OFFCURVE",
"158 -15 CURVE SMOOTH",
"224 -15 OFFCURVE",
"267 17 OFFCURVE",
"298 77 CURVE"
);
},
{
closed = 1;
nodes = (
"221 662 OFFCURVE",
"234 617 OFFCURVE",
"293 617 CURVE SMOOTH",
"338 617 OFFCURVE",
"380 651 OFFCURVE",
"394 725 CURVE",
"375 731 LINE",
"348 691 OFFCURVE",
"318 687 OFFCURVE",
"299 687 CURVE SMOOTH",
"251 687 OFFCURVE",
"244 728 OFFCURVE",
"185 728 CURVE SMOOTH",
"127 728 OFFCURVE",
"91 677 OFFCURVE",
"78 630 CURVE",
"96 623 LINE",
"122 655 OFFCURVE",
"151 662 OFFCURVE",
"175 662 CURVE SMOOTH"
);
}
);
width = 491;
}
);
leftKerningGroup = a;
rightKerningGroup = a;
unicode = 00E3;
},
{
glyphname = adieresis;
lastChange = "2016-04-07 19:09:02 +0000";
layers = (
{
layerId = UUID0;
name = Regular;
paths = (
{
closed = 1;
nodes = (
"153 149 OFFCURVE",
"161 242 OFFCURVE",
"267 242 CURVE SMOOTH",
"276 242 OFFCURVE",
"287 241 OFFCURVE",
"298 239 CURVE",
"298 172 LINE SMOOTH",
"298 89 OFFCURVE",
"253 29 OFFCURVE",
"211 29 CURVE SMOOTH",
"172 29 OFFCURVE",
"153 67 OFFCURVE",
"153 116 CURVE SMOOTH"
);
},
{
closed = 1;
nodes = (
"299 77 LINE",
"313 0 LINE",
"468 0 LINE",
"468 20 LINE",
"418 25 LINE",
"418 288 LINE SMOOTH",
"418 422 OFFCURVE",
"395 505 OFFCURVE",
"229 505 CURVE SMOOTH",
"141 505 OFFCURVE",
"54 450 OFFCURVE",
"54 370 CURVE SMOOTH",
"54 337 OFFCURVE",
"76 305 OFFCURVE",
"116 305 CURVE SMOOTH",
"152 305 OFFCURVE",
"178 331 OFFCURVE",
"178 365 CURVE SMOOTH",
"178 405 OFFCURVE",
"156 425 OFFCURVE",
"123 425 CURVE SMOOTH",
"118 425 OFFCURVE",
"113 425 OFFCURVE",
"108 424 CURVE",
"108 426 LINE",
"120 447 OFFCURVE",
"149 482 OFFCURVE",
"212 482 CURVE SMOOTH",
"292 482 OFFCURVE",
"298 422 OFFCURVE",
"298 329 CURVE SMOOTH",
"298 262 LINE",
"282 263 OFFCURVE",
"267 264 OFFCURVE",
"253 264 CURVE SMOOTH",
"99 264 OFFCURVE",
"35 184 OFFCURVE",
"35 106 CURVE SMOOTH",
"35 46 OFFCURVE",
"73 -15 OFFCURVE",
"158 -15 CURVE SMOOTH",
"224 -15 OFFCURVE",
"267 17 OFFCURVE",
"298 77 CURVE"
);
},
{
closed = 1;
nodes = (
"262 636 OFFCURVE",
"284 608 OFFCURVE",
"318 608 CURVE SMOOTH",
"353 608 OFFCURVE",
"375 636 OFFCURVE",
"375 673 CURVE SMOOTH",
"375 710 OFFCURVE",
"353 738 OFFCURVE",
"318 738 CURVE SMOOTH",
"284 738 OFFCURVE",
"262 710 OFFCURVE",
"262 673 CURVE SMOOTH"
);
},
{
closed = 1;
nodes = (
"94 636 OFFCURVE",
"116 608 OFFCURVE",
"151 608 CURVE SMOOTH",
"186 608 OFFCURVE",
"208 636 OFFCURVE",
"208 673 CURVE SMOOTH",
"208 710 OFFCURVE",
"186 738 OFFCURVE",
"151 738 CURVE SMOOTH",
"116 738 OFFCURVE",
"94 710 OFFCURVE",
"94 673 CURVE SMOOTH"
);
}
);
width = 491;
}
);
leftKerningGroup = a;
rightKerningGroup = a;
unicode = 00E4;
},
{
glyphname = aring;
lastChange = "2016-04-07 19:09:02 +0000";
layers = (
{
layerId = UUID0;
name = Regular;
paths = (
{
closed = 1;
nodes = (
"153 149 OFFCURVE",
"161 242 OFFCURVE",
"267 242 CURVE SMOOTH",
"276 242 OFFCURVE",
"287 241 OFFCURVE",
"298 239 CURVE",
"298 172 LINE SMOOTH",
"298 89 OFFCURVE",
"253 29 OFFCURVE",
"211 29 CURVE SMOOTH",
"172 29 OFFCURVE",
"153 67 OFFCURVE",
"153 116 CURVE SMOOTH"
);
},
{
closed = 1;
nodes = (
"299 77 LINE",
"313 0 LINE",
"468 0 LINE",
"468 20 LINE",
"418 25 LINE",
"418 288 LINE SMOOTH",
"418 422 OFFCURVE",
"395 505 OFFCURVE",
"229 505 CURVE SMOOTH",
"141 505 OFFCURVE",
"54 450 OFFCURVE",
"54 370 CURVE SMOOTH",
"54 337 OFFCURVE",
"76 305 OFFCURVE",
"116 305 CURVE SMOOTH",
"152 305 OFFCURVE",
"178 331 OFFCURVE",
"178 365 CURVE SMOOTH",
"178 405 OFFCURVE",
"156 425 OFFCURVE",
"123 425 CURVE SMOOTH",
"118 425 OFFCURVE",
"113 425 OFFCURVE",
"108 424 CURVE",
"108 426 LINE",
"120 447 OFFCURVE",
"149 482 OFFCURVE",
"212 482 CURVE SMOOTH",
"292 482 OFFCURVE",
"298 422 OFFCURVE",
"298 329 CURVE SMOOTH",
"298 262 LINE",
"282 263 OFFCURVE",
"267 264 OFFCURVE",
"253 264 CURVE SMOOTH",
"99 264 OFFCURVE",
"35 184 OFFCURVE",
"35 106 CURVE SMOOTH",
"35 46 OFFCURVE",
"73 -15 OFFCURVE",
"158 -15 CURVE SMOOTH",
"224 -15 OFFCURVE",
"267 17 OFFCURVE",
"298 77 CURVE"
);
},
{
closed = 1;
nodes = (
"122 615 OFFCURVE",
"167 574 OFFCURVE",
"235 574 CURVE SMOOTH",
"303 574 OFFCURVE",
"351 615 OFFCURVE",
"351 673 CURVE SMOOTH",
"351 731 OFFCURVE",
"303 774 OFFCURVE",
"235 774 CURVE SMOOTH",
"172 774 OFFCURVE",
"122 731 OFFCURVE",
"122 673 CURVE SMOOTH"
);
},
{
closed = 1;
nodes = (
"194 713 OFFCURVE",
"205 750 OFFCURVE",
"235 750 CURVE SMOOTH",
"267 750 OFFCURVE",
"278 713 OFFCURVE",
"278 673 CURVE SMOOTH",
"278 634 OFFCURVE",
"267 599 OFFCURVE",
"235 599 CURVE SMOOTH",
"205 599 OFFCURVE",
"194 634 OFFCURVE",
"194 673 CURVE SMOOTH"
);
}
);
width = 491;
}
);
leftKerningGroup = a;
rightKerningGroup = a;
unicode = 00E5;
},
{
glyphname = ccedilla;
lastChange = "2016-04-07 19:09:02 +0000";
layers = (
{
layerId = UUID0;
name = Regular;
paths = (
{
closed = 1;
nodes = (
"241 -57 OFFCURVE",
"211 -64 OFFCURVE",
"192 -76 CURVE",
"213 -11 LINE",
"229 -13 OFFCURVE",
"246 -15 OFFCURVE",
"264 -15 CURVE SMOOTH",
"325 -15 OFFCURVE",
"389 9 OFFCURVE",
"436 94 CURVE",
"417 105 LINE",
"370 26 OFFCURVE",
"319 19 OFFCURVE",
"285 19 CURVE SMOOTH",
"220 19 OFFCURVE",
"165 71 OFFCURVE",
"165 244 CURVE SMOOTH",
"165 377 OFFCURVE",
"197 480 OFFCURVE",
"286 480 CURVE SMOOTH",
"338 480 OFFCURVE",
"363 447 OFFCURVE",
"371 434 CURVE",
"371 432 LINE",
"366 432 OFFCURVE",
"362 433 OFFCURVE",
"358 433 CURVE SMOOTH",
"324 433 OFFCURVE",
"302 405 OFFCURVE",
"302 373 CURVE SMOOTH",
"302 339 OFFCURVE",
"327 313 OFFCURVE",
"363 313 CURVE SMOOTH",
"403 313 OFFCURVE",
"425 343 OFFCURVE",
"425 376 CURVE SMOOTH",
"425 445 OFFCURVE",
"360 505 OFFCURVE",
"268 505 CURVE SMOOTH",
"110 505 OFFCURVE",
"40 359 OFFCURVE",
"40 242 CURVE SMOOTH",
"40 116 OFFCURVE",
"81 25 OFFCURVE",
"183 -4 CURVE",
"158 -95 LINE",
"172 -111 LINE",
"185 -102 OFFCURVE",
"202 -97 OFFCURVE",
"217 -97 CURVE SMOOTH",
"235 -97 OFFCURVE",
"249 -110 OFFCURVE",
"249 -131 CURVE SMOOTH",
"249 -170 OFFCURVE",
"202 -213 OFFCURVE",
"134 -225 CURVE",
"140 -251 LINE",
"208 -241 OFFCURVE",
"331 -204 OFFCURVE",
"331 -123 CURVE SMOOTH",
"331 -82 OFFCURVE",
"305 -57 OFFCURVE",
"264 -57 CURVE SMOOTH"
);
}
);
width = 462;
}
);
leftKerningGroup = o;
rightKerningGroup = c;
unicode = 00E7;
},
{
glyphname = egrave;
lastChange = "2016-04-07 19:09:02 +0000";
layers = (
{
layerId = UUID0;
name = Regular;
paths = (
{
closed = 1;
nodes = (
"438 272 LINE",
"438 405 OFFCURVE",
"388 505 OFFCURVE",
"249 505 CURVE SMOOTH",
"101 505 OFFCURVE",
"40 368 OFFCURVE",
"40 245 CURVE SMOOTH",
"40 90 OFFCURVE",
"108 -15 OFFCURVE",
"263 -15 CURVE SMOOTH",
"327 -15 OFFCURVE",
"395 12 OFFCURVE",
"442 91 CURVE",
"423 103 LINE",
"379 29 OFFCURVE",
"326 17 OFFCURVE",
"286 17 CURVE SMOOTH",
"213 17 OFFCURVE",
"165 75 OFFCURVE",
"165 230 CURVE SMOOTH",
"165 260 LINE",
"424 260 LINE"
);
},
{
closed = 1;
nodes = (
"306 483 OFFCURVE",
"324 424 OFFCURVE",
"324 336 CURVE SMOOTH",
"324 321 OFFCURVE",
"323 305 OFFCURVE",
"322 288 CURVE",
"165 282 LINE",
"168 393 OFFCURVE",
"186 483 OFFCURVE",
"251 483 CURVE SMOOTH"
);
},
{
closed = 1;
nodes = (
"277 571 LINE",
"295 583 LINE",
"241 739 LINE",
"235 757 OFFCURVE",
"218 772 OFFCURVE",
"197 772 CURVE SMOOTH",
"172 772 OFFCURVE",
"154 752 OFFCURVE",
"154 727 CURVE SMOOTH",
"154 712 OFFCURVE",
"159 698 OFFCURVE",
"168 688 CURVE SMOOTH"
);
}
);
width = 479;
}
);
leftKerningGroup = o;
rightKerningGroup = e;
unicode = 00E8;
},
{
glyphname = eacute;
lastChange = "2016-04-07 19:09:02 +0000";
layers = (
{
layerId = UUID0;
name = Regular;
paths = (
{
closed = 1;
nodes = (
"438 272 LINE",
"438 405 OFFCURVE",
"388 505 OFFCURVE",
"249 505 CURVE SMOOTH",
"101 505 OFFCURVE",
"40 368 OFFCURVE",
"40 245 CURVE SMOOTH",
"40 90 OFFCURVE",
"108 -15 OFFCURVE",
"263 -15 CURVE SMOOTH",
"327 -15 OFFCURVE",
"395 12 OFFCURVE",
"442 91 CURVE",
"423 103 LINE",
"379 29 OFFCURVE",
"326 17 OFFCURVE",
"286 17 CURVE SMOOTH",
"213 17 OFFCURVE",
"165 75 OFFCURVE",
"165 230 CURVE SMOOTH",
"165 260 LINE",
"424 260 LINE"
);
},
{
closed = 1;
nodes = (
"306 483 OFFCURVE",
"324 424 OFFCURVE",
"324 336 CURVE SMOOTH",
"324 321 OFFCURVE",
"323 305 OFFCURVE",
"322 288 CURVE",
"165 282 LINE",
"168 393 OFFCURVE",
"186 483 OFFCURVE",
"251 483 CURVE SMOOTH"
);
},
{
closed = 1;
nodes = (
"348 682 LINE SMOOTH",
"357 691 OFFCURVE",
"363 706 OFFCURVE",
"363 721 CURVE SMOOTH",
"363 746 OFFCURVE",
"343 766 OFFCURVE",
"319 766 CURVE SMOOTH",
"298 766 OFFCURVE",
"281 751 OFFCURVE",
"275 732 CURVE",
"221 577 LINE",
"239 564 LINE"
);
}
);
width = 479;
}
);
leftKerningGroup = o;
rightKerningGroup = e;
unicode = 00E9;
},
{
glyphname = ecircumflex;
lastChange = "2016-04-07 19:09:02 +0000";
layers = (
{
layerId = UUID0;
name = Regular;
paths = (
{
closed = 1;
nodes = (
"438 272 LINE",
"438 405 OFFCURVE",
"388 505 OFFCURVE",
"249 505 CURVE SMOOTH",
"101 505 OFFCURVE",
"40 368 OFFCURVE",
"40 245 CURVE SMOOTH",
"40 90 OFFCURVE",
"108 -15 OFFCURVE",
"263 -15 CURVE SMOOTH",
"327 -15 OFFCURVE",
"395 12 OFFCURVE",
"442 91 CURVE",
"423 103 LINE",
"379 29 OFFCURVE",
"326 17 OFFCURVE",
"286 17 CURVE SMOOTH",
"213 17 OFFCURVE",
"165 75 OFFCURVE",
"165 230 CURVE SMOOTH",
"165 260 LINE",
"424 260 LINE"
);
},
{
closed = 1;
nodes = (
"306 483 OFFCURVE",
"324 424 OFFCURVE",
"324 336 CURVE SMOOTH",
"324 321 OFFCURVE",
"323 305 OFFCURVE",
"322 288 CURVE",
"165 282 LINE",
"168 393 OFFCURVE",
"186 483 OFFCURVE",
"251 483 CURVE SMOOTH"
);
},
{
closed = 1;
nodes = (
"248 774 LINE",
"118 590 LINE",
"155 570 LINE",
"242 673 LINE",
"244 673 LINE",
"325 570 LINE",
"365 592 LINE",
"250 774 LINE"
);
}
);
width = 479;
}
);
leftKerningGroup = o;
rightKerningGroup = e;
unicode = 00EA;
},
{
glyphname = edieresis;
lastChange = "2016-04-07 19:09:02 +0000";
layers = (
{
layerId = UUID0;
name = Regular;
paths = (
{
closed = 1;
nodes = (
"438 272 LINE",
"438 405 OFFCURVE",
"388 505 OFFCURVE",
"249 505 CURVE SMOOTH",
"101 505 OFFCURVE",
"40 368 OFFCURVE",
"40 245 CURVE SMOOTH",
"40 90 OFFCURVE",
"108 -15 OFFCURVE",
"263 -15 CURVE SMOOTH",
"327 -15 OFFCURVE",
"395 12 OFFCURVE",
"442 91 CURVE",
"423 103 LINE",
"379 29 OFFCURVE",
"326 17 OFFCURVE",
"286 17 CURVE SMOOTH",
"213 17 OFFCURVE",
"165 75 OFFCURVE",
"165 230 CURVE SMOOTH",
"165 260 LINE",
"424 260 LINE"
);
},
{
closed = 1;
nodes = (
"306 483 OFFCURVE",
"324 424 OFFCURVE",
"324 336 CURVE SMOOTH",
"324 321 OFFCURVE",
"323 305 OFFCURVE",
"322 288 CURVE",
"165 282 LINE",
"168 393 OFFCURVE",
"186 483 OFFCURVE",
"251 483 CURVE SMOOTH"
);
},
{
closed = 1;
nodes = (
"270 636 OFFCURVE",
"292 608 OFFCURVE",
"326 608 CURVE SMOOTH",
"361 608 OFFCURVE",
"383 636 OFFCURVE",
"383 673 CURVE SMOOTH",
"383 710 OFFCURVE",
"361 738 OFFCURVE",
"326 738 CURVE SMOOTH",
"292 738 OFFCURVE",
"270 710 OFFCURVE",
"270 673 CURVE SMOOTH"
);
},
{
closed = 1;
nodes = (
"102 636 OFFCURVE",
"124 608 OFFCURVE",
"159 608 CURVE SMOOTH",
"193 608 OFFCURVE",
"216 636 OFFCURVE",
"216 673 CURVE SMOOTH",
"216 710 OFFCURVE",
"193 738 OFFCURVE",
"159 738 CURVE SMOOTH",
"124 738 OFFCURVE",
"102 710 OFFCURVE",
"102 673 CURVE SMOOTH"
);
}
);
width = 479;
}
);
leftKerningGroup = o;
rightKerningGroup = e;
unicode = 00EB;
},
{
glyphname = igrave;
lastChange = "2016-04-07 19:09:02 +0000";
layers = (
{
layerId = UUID0;
name = Regular;
paths = (
{
closed = 1;
nodes = (
"207 486 LINE",
"198 500 LINE",
"129 482 LINE",
"27 471 LINE",
"28 451 LINE",
"87 452 LINE",
"87 25 LINE",
"37 20 LINE",
"37 0 LINE",
"257 0 LINE",
"257 20 LINE",
"207 25 LINE"
);
},
{
closed = 1;
nodes = (
"151 571 LINE",
"169 583 LINE",
"115 739 LINE",
"109 757 OFFCURVE",
"92 772 OFFCURVE",
"71 772 CURVE SMOOTH",
"46 772 OFFCURVE",
"28 752 OFFCURVE",
"28 727 CURVE SMOOTH",
"28 712 OFFCURVE",
"33 698 OFFCURVE",
"42 688 CURVE SMOOTH"
);
}
);
width = 286;
}
);
leftKerningGroup = i;
rightKerningGroup = i;
unicode = 00EC;
},
